%TF.GenerationSoftware,KiCad,Pcbnew,5.1.10*%
%TF.CreationDate,2021-09-06T22:27:18-05:00*%
%TF.ProjectId,kicad,6b696361-642e-46b6-9963-61645f706362,1*%
%TF.SameCoordinates,Original*%
%TF.FileFunction,Soldermask,Top*%
%TF.FilePolarity,Negative*%
%FSLAX46Y46*%
G04 Gerber Fmt 4.6, Leading zero omitted, Abs format (unit mm)*
G04 Created by KiCad (PCBNEW 5.1.10) date 2021-09-06 22:27:18*
%MOMM*%
%LPD*%
G01*
G04 APERTURE LIST*
%ADD10C,0.150000*%
%ADD11C,0.120000*%
%ADD12C,0.010000*%
%ADD13C,0.100000*%
%ADD14C,4.400000*%
%ADD15C,3.900000*%
%ADD16C,1.300000*%
%ADD17C,1.200000*%
%ADD18C,3.400000*%
%ADD19C,2.800000*%
%ADD20C,2.200000*%
%ADD21C,1.700000*%
%ADD22C,1.400000*%
%ADD23C,1.100000*%
%ADD24C,1.000000*%
%ADD25C,0.900000*%
%ADD26C,0.800000*%
%ADD27C,0.700000*%
%ADD28C,0.600000*%
%ADD29C,0.500000*%
G04 APERTURE END LIST*
%TO.C,REF\u002A\u002A*%
D10*
X333890085Y-116710071D02*
X333032942Y-116710071D01*
X333461514Y-116710071D02*
X333461514Y-115210071D01*
X333318657Y-115424357D01*
X333175800Y-115567214D01*
X333032942Y-115638642D01*
X334461514Y-115352928D02*
X334532942Y-115281500D01*
X334675800Y-115210071D01*
X335032942Y-115210071D01*
X335175800Y-115281500D01*
X335247228Y-115352928D01*
X335318657Y-115495785D01*
X335318657Y-115638642D01*
X335247228Y-115852928D01*
X334390085Y-116710071D01*
X335318657Y-116710071D01*
X312398371Y-116710071D02*
X311541228Y-116710071D01*
X311969800Y-116710071D02*
X311969800Y-115210071D01*
X311826942Y-115424357D01*
X311684085Y-115567214D01*
X311541228Y-115638642D01*
X286499971Y-115210071D02*
X286642828Y-115210071D01*
X286785685Y-115281500D01*
X286857114Y-115352928D01*
X286928542Y-115495785D01*
X286999971Y-115781500D01*
X286999971Y-116138642D01*
X286928542Y-116424357D01*
X286857114Y-116567214D01*
X286785685Y-116638642D01*
X286642828Y-116710071D01*
X286499971Y-116710071D01*
X286357114Y-116638642D01*
X286285685Y-116567214D01*
X286214257Y-116424357D01*
X286142828Y-116138642D01*
X286142828Y-115781500D01*
X286214257Y-115495785D01*
X286285685Y-115352928D01*
X286357114Y-115281500D01*
X286499971Y-115210071D01*
X309223571Y-116710071D02*
X308366428Y-116710071D01*
X308795000Y-116710071D02*
X308795000Y-115210071D01*
X308652142Y-115424357D01*
X308509285Y-115567214D01*
X308366428Y-115638642D01*
X283825171Y-116710071D02*
X282968028Y-116710071D01*
X283396600Y-116710071D02*
X283396600Y-115210071D01*
X283253742Y-115424357D01*
X283110885Y-115567214D01*
X282968028Y-115638642D01*
X257712485Y-116710071D02*
X257998200Y-116710071D01*
X258141057Y-116638642D01*
X258212485Y-116567214D01*
X258355342Y-116352928D01*
X258426771Y-116067214D01*
X258426771Y-115495785D01*
X258355342Y-115352928D01*
X258283914Y-115281500D01*
X258141057Y-115210071D01*
X257855342Y-115210071D01*
X257712485Y-115281500D01*
X257641057Y-115352928D01*
X257569628Y-115495785D01*
X257569628Y-115852928D01*
X257641057Y-115995785D01*
X257712485Y-116067214D01*
X257855342Y-116138642D01*
X258141057Y-116138642D01*
X258283914Y-116067214D01*
X258355342Y-115995785D01*
X258426771Y-115852928D01*
X232456942Y-115852928D02*
X232314085Y-115781500D01*
X232242657Y-115710071D01*
X232171228Y-115567214D01*
X232171228Y-115495785D01*
X232242657Y-115352928D01*
X232314085Y-115281500D01*
X232456942Y-115210071D01*
X232742657Y-115210071D01*
X232885514Y-115281500D01*
X232956942Y-115352928D01*
X233028371Y-115495785D01*
X233028371Y-115567214D01*
X232956942Y-115710071D01*
X232885514Y-115781500D01*
X232742657Y-115852928D01*
X232456942Y-115852928D01*
X232314085Y-115924357D01*
X232242657Y-115995785D01*
X232171228Y-116138642D01*
X232171228Y-116424357D01*
X232242657Y-116567214D01*
X232314085Y-116638642D01*
X232456942Y-116710071D01*
X232742657Y-116710071D01*
X232885514Y-116638642D01*
X232956942Y-116567214D01*
X233028371Y-116424357D01*
X233028371Y-116138642D01*
X232956942Y-115995785D01*
X232885514Y-115924357D01*
X232742657Y-115852928D01*
X206701400Y-115210071D02*
X207701400Y-115210071D01*
X207058542Y-116710071D01*
X182088714Y-115210071D02*
X181803000Y-115210071D01*
X181660142Y-115281500D01*
X181588714Y-115352928D01*
X181445857Y-115567214D01*
X181374428Y-115852928D01*
X181374428Y-116424357D01*
X181445857Y-116567214D01*
X181517285Y-116638642D01*
X181660142Y-116710071D01*
X181945857Y-116710071D01*
X182088714Y-116638642D01*
X182160142Y-116567214D01*
X182231571Y-116424357D01*
X182231571Y-116067214D01*
X182160142Y-115924357D01*
X182088714Y-115852928D01*
X181945857Y-115781500D01*
X181660142Y-115781500D01*
X181517285Y-115852928D01*
X181445857Y-115924357D01*
X181374428Y-116067214D01*
X156761742Y-115210071D02*
X156047457Y-115210071D01*
X155976028Y-115924357D01*
X156047457Y-115852928D01*
X156190314Y-115781500D01*
X156547457Y-115781500D01*
X156690314Y-115852928D01*
X156761742Y-115924357D01*
X156833171Y-116067214D01*
X156833171Y-116424357D01*
X156761742Y-116567214D01*
X156690314Y-116638642D01*
X156547457Y-116710071D01*
X156190314Y-116710071D01*
X156047457Y-116638642D01*
X155976028Y-116567214D01*
X131291914Y-115710071D02*
X131291914Y-116710071D01*
X130934771Y-115138642D02*
X130577628Y-116210071D01*
X131506200Y-116210071D01*
X105107800Y-115210071D02*
X106036371Y-115210071D01*
X105536371Y-115781500D01*
X105750657Y-115781500D01*
X105893514Y-115852928D01*
X105964942Y-115924357D01*
X106036371Y-116067214D01*
X106036371Y-116424357D01*
X105964942Y-116567214D01*
X105893514Y-116638642D01*
X105750657Y-116710071D01*
X105322085Y-116710071D01*
X105179228Y-116638642D01*
X105107800Y-116567214D01*
X32389085Y-116483880D02*
X31817657Y-116483880D01*
X32103371Y-116483880D02*
X32103371Y-115483880D01*
X32008133Y-115626738D01*
X31912895Y-115721976D01*
X31817657Y-115769595D01*
X33531942Y-115436261D02*
X32674800Y-116721976D01*
X34008133Y-115912452D02*
X33912895Y-115864833D01*
X33865276Y-115817214D01*
X33817657Y-115721976D01*
X33817657Y-115674357D01*
X33865276Y-115579119D01*
X33912895Y-115531500D01*
X34008133Y-115483880D01*
X34198609Y-115483880D01*
X34293847Y-115531500D01*
X34341466Y-115579119D01*
X34389085Y-115674357D01*
X34389085Y-115721976D01*
X34341466Y-115817214D01*
X34293847Y-115864833D01*
X34198609Y-115912452D01*
X34008133Y-115912452D01*
X33912895Y-115960071D01*
X33865276Y-116007690D01*
X33817657Y-116102928D01*
X33817657Y-116293404D01*
X33865276Y-116388642D01*
X33912895Y-116436261D01*
X34008133Y-116483880D01*
X34198609Y-116483880D01*
X34293847Y-116436261D01*
X34341466Y-116388642D01*
X34389085Y-116293404D01*
X34389085Y-116102928D01*
X34341466Y-116007690D01*
X34293847Y-115960071D01*
X34198609Y-115912452D01*
X35579561Y-116483880D02*
X35579561Y-115817214D01*
X35579561Y-115483880D02*
X35531942Y-115531500D01*
X35579561Y-115579119D01*
X35627180Y-115531500D01*
X35579561Y-115483880D01*
X35579561Y-115579119D01*
X36055752Y-115817214D02*
X36055752Y-116483880D01*
X36055752Y-115912452D02*
X36103371Y-115864833D01*
X36198609Y-115817214D01*
X36341466Y-115817214D01*
X36436704Y-115864833D01*
X36484323Y-115960071D01*
X36484323Y-116483880D01*
X79780828Y-115352928D02*
X79852257Y-115281500D01*
X79995114Y-115210071D01*
X80352257Y-115210071D01*
X80495114Y-115281500D01*
X80566542Y-115352928D01*
X80637971Y-115495785D01*
X80637971Y-115638642D01*
X80566542Y-115852928D01*
X79709400Y-116710071D01*
X80637971Y-116710071D01*
X55239571Y-116710071D02*
X54382428Y-116710071D01*
X54811000Y-116710071D02*
X54811000Y-115210071D01*
X54668142Y-115424357D01*
X54525285Y-115567214D01*
X54382428Y-115638642D01*
X329500000Y-93178571D02*
X330428571Y-93178571D01*
X329928571Y-93750000D01*
X330142857Y-93750000D01*
X330285714Y-93821428D01*
X330357142Y-93892857D01*
X330428571Y-94035714D01*
X330428571Y-94392857D01*
X330357142Y-94535714D01*
X330285714Y-94607142D01*
X330142857Y-94678571D01*
X329714285Y-94678571D01*
X329571428Y-94607142D01*
X329500000Y-94535714D01*
X331928571Y-93178571D02*
X332071428Y-93178571D01*
X332214285Y-93250000D01*
X332285714Y-93321428D01*
X332357142Y-93464285D01*
X332428571Y-93750000D01*
X332428571Y-94107142D01*
X332357142Y-94392857D01*
X332285714Y-94535714D01*
X332214285Y-94607142D01*
X332071428Y-94678571D01*
X331928571Y-94678571D01*
X331785714Y-94607142D01*
X331714285Y-94535714D01*
X331642857Y-94392857D01*
X331571428Y-94107142D01*
X331571428Y-93750000D01*
X331642857Y-93464285D01*
X331714285Y-93321428D01*
X331785714Y-93250000D01*
X331928571Y-93178571D01*
X321714285Y-94678571D02*
X322000000Y-94678571D01*
X322142857Y-94607142D01*
X322214285Y-94535714D01*
X322357142Y-94321428D01*
X322428571Y-94035714D01*
X322428571Y-93464285D01*
X322357142Y-93321428D01*
X322285714Y-93250000D01*
X322142857Y-93178571D01*
X321857142Y-93178571D01*
X321714285Y-93250000D01*
X321642857Y-93321428D01*
X321571428Y-93464285D01*
X321571428Y-93821428D01*
X321642857Y-93964285D01*
X321714285Y-94035714D01*
X321857142Y-94107142D01*
X322142857Y-94107142D01*
X322285714Y-94035714D01*
X322357142Y-93964285D01*
X322428571Y-93821428D01*
X311857142Y-93821428D02*
X311714285Y-93750000D01*
X311642857Y-93678571D01*
X311571428Y-93535714D01*
X311571428Y-93464285D01*
X311642857Y-93321428D01*
X311714285Y-93250000D01*
X311857142Y-93178571D01*
X312142857Y-93178571D01*
X312285714Y-93250000D01*
X312357142Y-93321428D01*
X312428571Y-93464285D01*
X312428571Y-93535714D01*
X312357142Y-93678571D01*
X312285714Y-93750000D01*
X312142857Y-93821428D01*
X311857142Y-93821428D01*
X311714285Y-93892857D01*
X311642857Y-93964285D01*
X311571428Y-94107142D01*
X311571428Y-94392857D01*
X311642857Y-94535714D01*
X311714285Y-94607142D01*
X311857142Y-94678571D01*
X312142857Y-94678571D01*
X312285714Y-94607142D01*
X312357142Y-94535714D01*
X312428571Y-94392857D01*
X312428571Y-94107142D01*
X312357142Y-93964285D01*
X312285714Y-93892857D01*
X312142857Y-93821428D01*
X272285714Y-93678571D02*
X272285714Y-94678571D01*
X271928571Y-93107142D02*
X271571428Y-94178571D01*
X272500000Y-94178571D01*
X242428571Y-94678571D02*
X241571428Y-94678571D01*
X242000000Y-94678571D02*
X242000000Y-93178571D01*
X241857142Y-93392857D01*
X241714285Y-93535714D01*
X241571428Y-93607142D01*
X261500000Y-93178571D02*
X262428571Y-93178571D01*
X261928571Y-93750000D01*
X262142857Y-93750000D01*
X262285714Y-93821428D01*
X262357142Y-93892857D01*
X262428571Y-94035714D01*
X262428571Y-94392857D01*
X262357142Y-94535714D01*
X262285714Y-94607142D01*
X262142857Y-94678571D01*
X261714285Y-94678571D01*
X261571428Y-94607142D01*
X261500000Y-94535714D01*
X282357142Y-93178571D02*
X281642857Y-93178571D01*
X281571428Y-93892857D01*
X281642857Y-93821428D01*
X281785714Y-93750000D01*
X282142857Y-93750000D01*
X282285714Y-93821428D01*
X282357142Y-93892857D01*
X282428571Y-94035714D01*
X282428571Y-94392857D01*
X282357142Y-94535714D01*
X282285714Y-94607142D01*
X282142857Y-94678571D01*
X281785714Y-94678571D01*
X281642857Y-94607142D01*
X281571428Y-94535714D01*
X292285714Y-93178571D02*
X292000000Y-93178571D01*
X291857142Y-93250000D01*
X291785714Y-93321428D01*
X291642857Y-93535714D01*
X291571428Y-93821428D01*
X291571428Y-94392857D01*
X291642857Y-94535714D01*
X291714285Y-94607142D01*
X291857142Y-94678571D01*
X292142857Y-94678571D01*
X292285714Y-94607142D01*
X292357142Y-94535714D01*
X292428571Y-94392857D01*
X292428571Y-94035714D01*
X292357142Y-93892857D01*
X292285714Y-93821428D01*
X292142857Y-93750000D01*
X291857142Y-93750000D01*
X291714285Y-93821428D01*
X291642857Y-93892857D01*
X291571428Y-94035714D01*
X301500000Y-93178571D02*
X302500000Y-93178571D01*
X301857142Y-94678571D01*
X251571428Y-93321428D02*
X251642857Y-93250000D01*
X251785714Y-93178571D01*
X252142857Y-93178571D01*
X252285714Y-93250000D01*
X252357142Y-93321428D01*
X252428571Y-93464285D01*
X252428571Y-93607142D01*
X252357142Y-93821428D01*
X251500000Y-94678571D01*
X252428571Y-94678571D01*
X231928571Y-93178571D02*
X232071428Y-93178571D01*
X232214285Y-93250000D01*
X232285714Y-93321428D01*
X232357142Y-93464285D01*
X232428571Y-93750000D01*
X232428571Y-94107142D01*
X232357142Y-94392857D01*
X232285714Y-94535714D01*
X232214285Y-94607142D01*
X232071428Y-94678571D01*
X231928571Y-94678571D01*
X231785714Y-94607142D01*
X231714285Y-94535714D01*
X231642857Y-94392857D01*
X231571428Y-94107142D01*
X231571428Y-93750000D01*
X231642857Y-93464285D01*
X231714285Y-93321428D01*
X231785714Y-93250000D01*
X231928571Y-93178571D01*
X279571428Y-93321428D02*
X279642857Y-93250000D01*
X279785714Y-93178571D01*
X280142857Y-93178571D01*
X280285714Y-93250000D01*
X280357142Y-93321428D01*
X280428571Y-93464285D01*
X280428571Y-93607142D01*
X280357142Y-93821428D01*
X279500000Y-94678571D01*
X280428571Y-94678571D01*
X299571428Y-93321428D02*
X299642857Y-93250000D01*
X299785714Y-93178571D01*
X300142857Y-93178571D01*
X300285714Y-93250000D01*
X300357142Y-93321428D01*
X300428571Y-93464285D01*
X300428571Y-93607142D01*
X300357142Y-93821428D01*
X299500000Y-94678571D01*
X300428571Y-94678571D01*
X289571428Y-93321428D02*
X289642857Y-93250000D01*
X289785714Y-93178571D01*
X290142857Y-93178571D01*
X290285714Y-93250000D01*
X290357142Y-93321428D01*
X290428571Y-93464285D01*
X290428571Y-93607142D01*
X290357142Y-93821428D01*
X289500000Y-94678571D01*
X290428571Y-94678571D01*
X309571428Y-93321428D02*
X309642857Y-93250000D01*
X309785714Y-93178571D01*
X310142857Y-93178571D01*
X310285714Y-93250000D01*
X310357142Y-93321428D01*
X310428571Y-93464285D01*
X310428571Y-93607142D01*
X310357142Y-93821428D01*
X309500000Y-94678571D01*
X310428571Y-94678571D01*
X319571428Y-93321428D02*
X319642857Y-93250000D01*
X319785714Y-93178571D01*
X320142857Y-93178571D01*
X320285714Y-93250000D01*
X320357142Y-93321428D01*
X320428571Y-93464285D01*
X320428571Y-93607142D01*
X320357142Y-93821428D01*
X319500000Y-94678571D01*
X320428571Y-94678571D01*
X269571428Y-93321428D02*
X269642857Y-93250000D01*
X269785714Y-93178571D01*
X270142857Y-93178571D01*
X270285714Y-93250000D01*
X270357142Y-93321428D01*
X270428571Y-93464285D01*
X270428571Y-93607142D01*
X270357142Y-93821428D01*
X269500000Y-94678571D01*
X270428571Y-94678571D01*
X259571428Y-93321428D02*
X259642857Y-93250000D01*
X259785714Y-93178571D01*
X260142857Y-93178571D01*
X260285714Y-93250000D01*
X260357142Y-93321428D01*
X260428571Y-93464285D01*
X260428571Y-93607142D01*
X260357142Y-93821428D01*
X259500000Y-94678571D01*
X260428571Y-94678571D01*
X249571428Y-93321428D02*
X249642857Y-93250000D01*
X249785714Y-93178571D01*
X250142857Y-93178571D01*
X250285714Y-93250000D01*
X250357142Y-93321428D01*
X250428571Y-93464285D01*
X250428571Y-93607142D01*
X250357142Y-93821428D01*
X249500000Y-94678571D01*
X250428571Y-94678571D01*
X239571428Y-93321428D02*
X239642857Y-93250000D01*
X239785714Y-93178571D01*
X240142857Y-93178571D01*
X240285714Y-93250000D01*
X240357142Y-93321428D01*
X240428571Y-93464285D01*
X240428571Y-93607142D01*
X240357142Y-93821428D01*
X239500000Y-94678571D01*
X240428571Y-94678571D01*
X229571428Y-93321428D02*
X229642857Y-93250000D01*
X229785714Y-93178571D01*
X230142857Y-93178571D01*
X230285714Y-93250000D01*
X230357142Y-93321428D01*
X230428571Y-93464285D01*
X230428571Y-93607142D01*
X230357142Y-93821428D01*
X229500000Y-94678571D01*
X230428571Y-94678571D01*
X221714285Y-94678571D02*
X222000000Y-94678571D01*
X222142857Y-94607142D01*
X222214285Y-94535714D01*
X222357142Y-94321428D01*
X222428571Y-94035714D01*
X222428571Y-93464285D01*
X222357142Y-93321428D01*
X222285714Y-93250000D01*
X222142857Y-93178571D01*
X221857142Y-93178571D01*
X221714285Y-93250000D01*
X221642857Y-93321428D01*
X221571428Y-93464285D01*
X221571428Y-93821428D01*
X221642857Y-93964285D01*
X221714285Y-94035714D01*
X221857142Y-94107142D01*
X222142857Y-94107142D01*
X222285714Y-94035714D01*
X222357142Y-93964285D01*
X222428571Y-93821428D01*
X211857142Y-93821428D02*
X211714285Y-93750000D01*
X211642857Y-93678571D01*
X211571428Y-93535714D01*
X211571428Y-93464285D01*
X211642857Y-93321428D01*
X211714285Y-93250000D01*
X211857142Y-93178571D01*
X212142857Y-93178571D01*
X212285714Y-93250000D01*
X212357142Y-93321428D01*
X212428571Y-93464285D01*
X212428571Y-93535714D01*
X212357142Y-93678571D01*
X212285714Y-93750000D01*
X212142857Y-93821428D01*
X211857142Y-93821428D01*
X211714285Y-93892857D01*
X211642857Y-93964285D01*
X211571428Y-94107142D01*
X211571428Y-94392857D01*
X211642857Y-94535714D01*
X211714285Y-94607142D01*
X211857142Y-94678571D01*
X212142857Y-94678571D01*
X212285714Y-94607142D01*
X212357142Y-94535714D01*
X212428571Y-94392857D01*
X212428571Y-94107142D01*
X212357142Y-93964285D01*
X212285714Y-93892857D01*
X212142857Y-93821428D01*
X172285714Y-93678571D02*
X172285714Y-94678571D01*
X171928571Y-93107142D02*
X171571428Y-94178571D01*
X172500000Y-94178571D01*
X142428571Y-94678571D02*
X141571428Y-94678571D01*
X142000000Y-94678571D02*
X142000000Y-93178571D01*
X141857142Y-93392857D01*
X141714285Y-93535714D01*
X141571428Y-93607142D01*
X161500000Y-93178571D02*
X162428571Y-93178571D01*
X161928571Y-93750000D01*
X162142857Y-93750000D01*
X162285714Y-93821428D01*
X162357142Y-93892857D01*
X162428571Y-94035714D01*
X162428571Y-94392857D01*
X162357142Y-94535714D01*
X162285714Y-94607142D01*
X162142857Y-94678571D01*
X161714285Y-94678571D01*
X161571428Y-94607142D01*
X161500000Y-94535714D01*
X182357142Y-93178571D02*
X181642857Y-93178571D01*
X181571428Y-93892857D01*
X181642857Y-93821428D01*
X181785714Y-93750000D01*
X182142857Y-93750000D01*
X182285714Y-93821428D01*
X182357142Y-93892857D01*
X182428571Y-94035714D01*
X182428571Y-94392857D01*
X182357142Y-94535714D01*
X182285714Y-94607142D01*
X182142857Y-94678571D01*
X181785714Y-94678571D01*
X181642857Y-94607142D01*
X181571428Y-94535714D01*
X192285714Y-93178571D02*
X192000000Y-93178571D01*
X191857142Y-93250000D01*
X191785714Y-93321428D01*
X191642857Y-93535714D01*
X191571428Y-93821428D01*
X191571428Y-94392857D01*
X191642857Y-94535714D01*
X191714285Y-94607142D01*
X191857142Y-94678571D01*
X192142857Y-94678571D01*
X192285714Y-94607142D01*
X192357142Y-94535714D01*
X192428571Y-94392857D01*
X192428571Y-94035714D01*
X192357142Y-93892857D01*
X192285714Y-93821428D01*
X192142857Y-93750000D01*
X191857142Y-93750000D01*
X191714285Y-93821428D01*
X191642857Y-93892857D01*
X191571428Y-94035714D01*
X201500000Y-93178571D02*
X202500000Y-93178571D01*
X201857142Y-94678571D01*
X151571428Y-93321428D02*
X151642857Y-93250000D01*
X151785714Y-93178571D01*
X152142857Y-93178571D01*
X152285714Y-93250000D01*
X152357142Y-93321428D01*
X152428571Y-93464285D01*
X152428571Y-93607142D01*
X152357142Y-93821428D01*
X151500000Y-94678571D01*
X152428571Y-94678571D01*
X131928571Y-93178571D02*
X132071428Y-93178571D01*
X132214285Y-93250000D01*
X132285714Y-93321428D01*
X132357142Y-93464285D01*
X132428571Y-93750000D01*
X132428571Y-94107142D01*
X132357142Y-94392857D01*
X132285714Y-94535714D01*
X132214285Y-94607142D01*
X132071428Y-94678571D01*
X131928571Y-94678571D01*
X131785714Y-94607142D01*
X131714285Y-94535714D01*
X131642857Y-94392857D01*
X131571428Y-94107142D01*
X131571428Y-93750000D01*
X131642857Y-93464285D01*
X131714285Y-93321428D01*
X131785714Y-93250000D01*
X131928571Y-93178571D01*
X210428571Y-94678571D02*
X209571428Y-94678571D01*
X210000000Y-94678571D02*
X210000000Y-93178571D01*
X209857142Y-93392857D01*
X209714285Y-93535714D01*
X209571428Y-93607142D01*
X220428571Y-94678571D02*
X219571428Y-94678571D01*
X220000000Y-94678571D02*
X220000000Y-93178571D01*
X219857142Y-93392857D01*
X219714285Y-93535714D01*
X219571428Y-93607142D01*
X200428571Y-94678571D02*
X199571428Y-94678571D01*
X200000000Y-94678571D02*
X200000000Y-93178571D01*
X199857142Y-93392857D01*
X199714285Y-93535714D01*
X199571428Y-93607142D01*
X190428571Y-94678571D02*
X189571428Y-94678571D01*
X190000000Y-94678571D02*
X190000000Y-93178571D01*
X189857142Y-93392857D01*
X189714285Y-93535714D01*
X189571428Y-93607142D01*
X180428571Y-94678571D02*
X179571428Y-94678571D01*
X180000000Y-94678571D02*
X180000000Y-93178571D01*
X179857142Y-93392857D01*
X179714285Y-93535714D01*
X179571428Y-93607142D01*
X170428571Y-94678571D02*
X169571428Y-94678571D01*
X170000000Y-94678571D02*
X170000000Y-93178571D01*
X169857142Y-93392857D01*
X169714285Y-93535714D01*
X169571428Y-93607142D01*
X160428571Y-94678571D02*
X159571428Y-94678571D01*
X160000000Y-94678571D02*
X160000000Y-93178571D01*
X159857142Y-93392857D01*
X159714285Y-93535714D01*
X159571428Y-93607142D01*
X150428571Y-94678571D02*
X149571428Y-94678571D01*
X150000000Y-94678571D02*
X150000000Y-93178571D01*
X149857142Y-93392857D01*
X149714285Y-93535714D01*
X149571428Y-93607142D01*
X140428571Y-94678571D02*
X139571428Y-94678571D01*
X140000000Y-94678571D02*
X140000000Y-93178571D01*
X139857142Y-93392857D01*
X139714285Y-93535714D01*
X139571428Y-93607142D01*
X130428571Y-94678571D02*
X129571428Y-94678571D01*
X130000000Y-94678571D02*
X130000000Y-93178571D01*
X129857142Y-93392857D01*
X129714285Y-93535714D01*
X129571428Y-93607142D01*
X31904761Y-94452380D02*
X31904761Y-93785714D01*
X31904761Y-93880952D02*
X31952380Y-93833333D01*
X32047619Y-93785714D01*
X32190476Y-93785714D01*
X32285714Y-93833333D01*
X32333333Y-93928571D01*
X32333333Y-94452380D01*
X32333333Y-93928571D02*
X32380952Y-93833333D01*
X32476190Y-93785714D01*
X32619047Y-93785714D01*
X32714285Y-93833333D01*
X32761904Y-93928571D01*
X32761904Y-94452380D01*
X33238095Y-94452380D02*
X33238095Y-93785714D01*
X33238095Y-93880952D02*
X33285714Y-93833333D01*
X33380952Y-93785714D01*
X33523809Y-93785714D01*
X33619047Y-93833333D01*
X33666666Y-93928571D01*
X33666666Y-94452380D01*
X33666666Y-93928571D02*
X33714285Y-93833333D01*
X33809523Y-93785714D01*
X33952380Y-93785714D01*
X34047619Y-93833333D01*
X34095238Y-93928571D01*
X34095238Y-94452380D01*
X40428571Y-94678571D02*
X39571428Y-94678571D01*
X40000000Y-94678571D02*
X40000000Y-93178571D01*
X39857142Y-93392857D01*
X39714285Y-93535714D01*
X39571428Y-93607142D01*
X49571428Y-93321428D02*
X49642857Y-93250000D01*
X49785714Y-93178571D01*
X50142857Y-93178571D01*
X50285714Y-93250000D01*
X50357142Y-93321428D01*
X50428571Y-93464285D01*
X50428571Y-93607142D01*
X50357142Y-93821428D01*
X49500000Y-94678571D01*
X50428571Y-94678571D01*
X59500000Y-93178571D02*
X60428571Y-93178571D01*
X59928571Y-93750000D01*
X60142857Y-93750000D01*
X60285714Y-93821428D01*
X60357142Y-93892857D01*
X60428571Y-94035714D01*
X60428571Y-94392857D01*
X60357142Y-94535714D01*
X60285714Y-94607142D01*
X60142857Y-94678571D01*
X59714285Y-94678571D01*
X59571428Y-94607142D01*
X59500000Y-94535714D01*
X70285714Y-93678571D02*
X70285714Y-94678571D01*
X69928571Y-93107142D02*
X69571428Y-94178571D01*
X70500000Y-94178571D01*
X80357142Y-93178571D02*
X79642857Y-93178571D01*
X79571428Y-93892857D01*
X79642857Y-93821428D01*
X79785714Y-93750000D01*
X80142857Y-93750000D01*
X80285714Y-93821428D01*
X80357142Y-93892857D01*
X80428571Y-94035714D01*
X80428571Y-94392857D01*
X80357142Y-94535714D01*
X80285714Y-94607142D01*
X80142857Y-94678571D01*
X79785714Y-94678571D01*
X79642857Y-94607142D01*
X79571428Y-94535714D01*
X90285714Y-93178571D02*
X90000000Y-93178571D01*
X89857142Y-93250000D01*
X89785714Y-93321428D01*
X89642857Y-93535714D01*
X89571428Y-93821428D01*
X89571428Y-94392857D01*
X89642857Y-94535714D01*
X89714285Y-94607142D01*
X89857142Y-94678571D01*
X90142857Y-94678571D01*
X90285714Y-94607142D01*
X90357142Y-94535714D01*
X90428571Y-94392857D01*
X90428571Y-94035714D01*
X90357142Y-93892857D01*
X90285714Y-93821428D01*
X90142857Y-93750000D01*
X89857142Y-93750000D01*
X89714285Y-93821428D01*
X89642857Y-93892857D01*
X89571428Y-94035714D01*
X99500000Y-93178571D02*
X100500000Y-93178571D01*
X99857142Y-94678571D01*
X109857142Y-93821428D02*
X109714285Y-93750000D01*
X109642857Y-93678571D01*
X109571428Y-93535714D01*
X109571428Y-93464285D01*
X109642857Y-93321428D01*
X109714285Y-93250000D01*
X109857142Y-93178571D01*
X110142857Y-93178571D01*
X110285714Y-93250000D01*
X110357142Y-93321428D01*
X110428571Y-93464285D01*
X110428571Y-93535714D01*
X110357142Y-93678571D01*
X110285714Y-93750000D01*
X110142857Y-93821428D01*
X109857142Y-93821428D01*
X109714285Y-93892857D01*
X109642857Y-93964285D01*
X109571428Y-94107142D01*
X109571428Y-94392857D01*
X109642857Y-94535714D01*
X109714285Y-94607142D01*
X109857142Y-94678571D01*
X110142857Y-94678571D01*
X110285714Y-94607142D01*
X110357142Y-94535714D01*
X110428571Y-94392857D01*
X110428571Y-94107142D01*
X110357142Y-93964285D01*
X110285714Y-93892857D01*
X110142857Y-93821428D01*
X119714285Y-94678571D02*
X120000000Y-94678571D01*
X120142857Y-94607142D01*
X120214285Y-94535714D01*
X120357142Y-94321428D01*
X120428571Y-94035714D01*
X120428571Y-93464285D01*
X120357142Y-93321428D01*
X120285714Y-93250000D01*
X120142857Y-93178571D01*
X119857142Y-93178571D01*
X119714285Y-93250000D01*
X119642857Y-93321428D01*
X119571428Y-93464285D01*
X119571428Y-93821428D01*
X119642857Y-93964285D01*
X119714285Y-94035714D01*
X119857142Y-94107142D01*
X120142857Y-94107142D01*
X120285714Y-94035714D01*
X120357142Y-93964285D01*
X120428571Y-93821428D01*
X33572741Y-97095986D02*
X34108852Y-97405509D01*
X33629700Y-97568757D01*
X33753418Y-97640186D01*
X33812087Y-97729044D01*
X33829517Y-97794093D01*
X33823138Y-97900381D01*
X33704090Y-98106578D01*
X33615232Y-98165247D01*
X33550183Y-98182676D01*
X33443895Y-98176297D01*
X33196459Y-98033440D01*
X33137790Y-97944581D01*
X33120360Y-97879532D01*
X34644963Y-97715033D02*
X34727441Y-97762652D01*
X34786110Y-97851511D01*
X34803540Y-97916559D01*
X34797161Y-98022848D01*
X34743162Y-98211614D01*
X34624114Y-98417811D01*
X34487637Y-98558959D01*
X34398778Y-98617628D01*
X34333730Y-98635057D01*
X34227441Y-98628678D01*
X34144963Y-98581059D01*
X34086294Y-98492200D01*
X34068864Y-98427151D01*
X34075244Y-98320863D01*
X34129242Y-98132097D01*
X34248290Y-97925900D01*
X34384767Y-97784752D01*
X34473626Y-97726083D01*
X34538675Y-97708653D01*
X34644963Y-97715033D01*
X37331394Y-100453754D02*
X37236156Y-100288797D01*
X37147298Y-100230128D01*
X37082249Y-100212698D01*
X36910912Y-100201648D01*
X36722145Y-100255647D01*
X36392231Y-100446123D01*
X36333562Y-100534981D01*
X36316132Y-100600030D01*
X36322512Y-100706318D01*
X36417750Y-100871276D01*
X36506608Y-100929945D01*
X36571657Y-100947374D01*
X36677945Y-100940995D01*
X36884142Y-100821947D01*
X36942811Y-100733089D01*
X36960241Y-100668040D01*
X36953861Y-100561752D01*
X36858623Y-100396795D01*
X36769764Y-100338125D01*
X36704716Y-100320696D01*
X36598427Y-100327075D01*
X37688537Y-101072344D02*
X37736156Y-101154822D01*
X37742536Y-101261110D01*
X37725106Y-101326159D01*
X37666437Y-101415018D01*
X37525289Y-101551495D01*
X37319093Y-101670543D01*
X37130326Y-101724541D01*
X37024038Y-101730921D01*
X36958989Y-101713491D01*
X36870131Y-101654822D01*
X36822512Y-101572344D01*
X36816132Y-101466056D01*
X36833562Y-101401007D01*
X36892231Y-101312148D01*
X37033379Y-101175671D01*
X37239575Y-101056623D01*
X37428342Y-101002625D01*
X37534630Y-100996245D01*
X37599679Y-101013675D01*
X37688537Y-101072344D01*
X34351159Y-111499893D02*
X34846031Y-111214178D01*
X34598595Y-111357036D02*
X35098595Y-112223061D01*
X35109645Y-112051724D01*
X35144505Y-111921626D01*
X35203174Y-111832768D01*
X34067612Y-112818299D02*
X34480006Y-112580204D01*
X34283150Y-112144001D01*
X34265720Y-112209050D01*
X34207051Y-112297908D01*
X34000854Y-112416956D01*
X33894566Y-112423336D01*
X33829517Y-112405906D01*
X33740659Y-112347237D01*
X33621611Y-112141040D01*
X33615232Y-112034752D01*
X33632661Y-111969704D01*
X33691330Y-111880845D01*
X33897527Y-111761798D01*
X34003815Y-111755418D01*
X34068864Y-111772848D01*
X33490262Y-113151632D02*
X33407784Y-113199252D01*
X33301495Y-113205631D01*
X33236447Y-113188201D01*
X33147588Y-113129532D01*
X33011111Y-112988385D01*
X32892063Y-112782188D01*
X32838064Y-112593421D01*
X32831685Y-112487133D01*
X32849115Y-112422084D01*
X32907784Y-112333226D01*
X32990262Y-112285607D01*
X33096550Y-112279227D01*
X33161599Y-112296657D01*
X33250458Y-112355326D01*
X33386935Y-112496474D01*
X33505983Y-112702670D01*
X33559981Y-112891437D01*
X33566361Y-112997725D01*
X33548931Y-113062774D01*
X33490262Y-113151632D01*
X37241559Y-108296459D02*
X37527274Y-107801587D01*
X37384417Y-108049023D02*
X38250442Y-108549023D01*
X38174343Y-108395116D01*
X38139484Y-108265018D01*
X38145863Y-108158730D01*
X37834630Y-109078754D02*
X37852060Y-109143803D01*
X37845680Y-109250091D01*
X37726632Y-109456288D01*
X37637774Y-109514957D01*
X37572725Y-109532387D01*
X37466437Y-109526007D01*
X37383959Y-109478388D01*
X37284050Y-109365720D01*
X37074893Y-108585134D01*
X36765369Y-109121245D01*
X37321871Y-110157356D02*
X37274252Y-110239834D01*
X37185393Y-110298504D01*
X37120344Y-110315933D01*
X37014056Y-110309554D01*
X36825289Y-110255555D01*
X36619093Y-110136507D01*
X36477945Y-110000030D01*
X36419276Y-109911171D01*
X36401846Y-109846123D01*
X36408226Y-109739834D01*
X36455845Y-109657356D01*
X36544704Y-109598687D01*
X36609752Y-109581257D01*
X36716040Y-109587637D01*
X36904807Y-109641635D01*
X37111004Y-109760683D01*
X37252151Y-109897161D01*
X37310821Y-109986019D01*
X37328250Y-110051068D01*
X37321871Y-110157356D01*
X37797619Y-104308333D02*
X37797619Y-104498809D01*
X37845238Y-104594047D01*
X37892857Y-104641666D01*
X38035714Y-104736904D01*
X38226190Y-104784523D01*
X38607142Y-104784523D01*
X38702380Y-104736904D01*
X38750000Y-104689285D01*
X38797619Y-104594047D01*
X38797619Y-104403571D01*
X38750000Y-104308333D01*
X38702380Y-104260714D01*
X38607142Y-104213095D01*
X38369047Y-104213095D01*
X38273809Y-104260714D01*
X38226190Y-104308333D01*
X38178571Y-104403571D01*
X38178571Y-104594047D01*
X38226190Y-104689285D01*
X38273809Y-104736904D01*
X38369047Y-104784523D01*
X38797619Y-105403571D02*
X38797619Y-105498809D01*
X38750000Y-105594047D01*
X38702380Y-105641666D01*
X38607142Y-105689285D01*
X38416666Y-105736904D01*
X38178571Y-105736904D01*
X37988095Y-105689285D01*
X37892857Y-105641666D01*
X37845238Y-105594047D01*
X37797619Y-105498809D01*
X37797619Y-105403571D01*
X37845238Y-105308333D01*
X37892857Y-105260714D01*
X37988095Y-105213095D01*
X38178571Y-105165476D01*
X38416666Y-105165476D01*
X38607142Y-105213095D01*
X38702380Y-105260714D01*
X38750000Y-105308333D01*
X38797619Y-105403571D01*
X335780800Y-115000000D02*
X335780800Y-120000000D01*
X43700000Y-117000000D02*
X43700000Y-120000000D01*
X34175000Y-118000000D02*
X34175000Y-120000000D01*
X37350000Y-118000000D02*
X37350000Y-120000000D01*
X40525000Y-118000000D02*
X40525000Y-120000000D01*
X46875000Y-118000000D02*
X46875000Y-120000000D01*
X50050000Y-118000000D02*
X50050000Y-120000000D01*
X31000000Y-115000000D02*
X31000000Y-120000000D01*
X53225000Y-118000000D02*
X53225000Y-120000000D01*
X62750000Y-118000000D02*
X62750000Y-120000000D01*
X65925000Y-118000000D02*
X65925000Y-120000000D01*
X72275000Y-118000000D02*
X72275000Y-120000000D01*
X69100000Y-117000000D02*
X69100000Y-120000000D01*
X78625000Y-118000000D02*
X78625000Y-120000000D01*
X59575000Y-118000000D02*
X59575000Y-120000000D01*
X75450000Y-118000000D02*
X75450000Y-120000000D01*
X56400000Y-115000000D02*
X56400000Y-120000000D01*
X88150000Y-118000000D02*
X88150000Y-120000000D01*
X91325000Y-118000000D02*
X91325000Y-120000000D01*
X97675000Y-118000000D02*
X97675000Y-120000000D01*
X94500000Y-117000000D02*
X94500000Y-120000000D01*
X104025000Y-118000000D02*
X104025000Y-120000000D01*
X84975000Y-118000000D02*
X84975000Y-120000000D01*
X100850000Y-118000000D02*
X100850000Y-120000000D01*
X81800000Y-115000000D02*
X81800000Y-120000000D01*
X113550000Y-118000000D02*
X113550000Y-120000000D01*
X177050000Y-118000000D02*
X177050000Y-120000000D01*
X116725000Y-118000000D02*
X116725000Y-120000000D01*
X167525000Y-118000000D02*
X167525000Y-120000000D01*
X123075000Y-118000000D02*
X123075000Y-120000000D01*
X151650000Y-118000000D02*
X151650000Y-120000000D01*
X164350000Y-118000000D02*
X164350000Y-120000000D01*
X173875000Y-118000000D02*
X173875000Y-120000000D01*
X119900000Y-117000000D02*
X119900000Y-120000000D01*
X148475000Y-118000000D02*
X148475000Y-120000000D01*
X170700000Y-117000000D02*
X170700000Y-120000000D01*
X129425000Y-118000000D02*
X129425000Y-120000000D01*
X132600000Y-115000000D02*
X132600000Y-120000000D01*
X180225000Y-118000000D02*
X180225000Y-120000000D01*
X145300000Y-117000000D02*
X145300000Y-120000000D01*
X110375000Y-118000000D02*
X110375000Y-120000000D01*
X154825000Y-118000000D02*
X154825000Y-120000000D01*
X135775000Y-118000000D02*
X135775000Y-120000000D01*
X158000000Y-115000000D02*
X158000000Y-120000000D01*
X126250000Y-118000000D02*
X126250000Y-120000000D01*
X142125000Y-118000000D02*
X142125000Y-120000000D01*
X138950000Y-118000000D02*
X138950000Y-120000000D01*
X161175000Y-118000000D02*
X161175000Y-120000000D01*
X107200000Y-115000000D02*
X107200000Y-120000000D01*
X189750000Y-118000000D02*
X189750000Y-120000000D01*
X329450000Y-118000000D02*
X329450000Y-120000000D01*
X265950000Y-118000000D02*
X265950000Y-120000000D01*
X259600000Y-115000000D02*
X259600000Y-120000000D01*
X313575000Y-118000000D02*
X313575000Y-120000000D01*
X253250000Y-118000000D02*
X253250000Y-120000000D01*
X192925000Y-118000000D02*
X192925000Y-120000000D01*
X243725000Y-118000000D02*
X243725000Y-120000000D01*
X199275000Y-118000000D02*
X199275000Y-120000000D01*
X319925000Y-118000000D02*
X319925000Y-120000000D01*
X269125000Y-118000000D02*
X269125000Y-120000000D01*
X227850000Y-118000000D02*
X227850000Y-120000000D01*
X310400000Y-115000000D02*
X310400000Y-120000000D01*
X332625000Y-118000000D02*
X332625000Y-120000000D01*
X240550000Y-118000000D02*
X240550000Y-120000000D01*
X250075000Y-118000000D02*
X250075000Y-120000000D01*
X307225000Y-118000000D02*
X307225000Y-120000000D01*
X291350000Y-118000000D02*
X291350000Y-120000000D01*
X294525000Y-118000000D02*
X294525000Y-120000000D01*
X278650000Y-118000000D02*
X278650000Y-120000000D01*
X196100000Y-117000000D02*
X196100000Y-120000000D01*
X224675000Y-118000000D02*
X224675000Y-120000000D01*
X285000000Y-115000000D02*
X285000000Y-120000000D01*
X246900000Y-117000000D02*
X246900000Y-120000000D01*
X205625000Y-118000000D02*
X205625000Y-120000000D01*
X208800000Y-115000000D02*
X208800000Y-120000000D01*
X256425000Y-118000000D02*
X256425000Y-120000000D01*
X272300000Y-117000000D02*
X272300000Y-120000000D01*
X221500000Y-117000000D02*
X221500000Y-120000000D01*
X186575000Y-118000000D02*
X186575000Y-120000000D01*
X231025000Y-118000000D02*
X231025000Y-120000000D01*
X211975000Y-118000000D02*
X211975000Y-120000000D01*
X234200000Y-115000000D02*
X234200000Y-120000000D01*
X300875000Y-118000000D02*
X300875000Y-120000000D01*
X297700000Y-117000000D02*
X297700000Y-120000000D01*
X304050000Y-118000000D02*
X304050000Y-120000000D01*
X275475000Y-118000000D02*
X275475000Y-120000000D01*
X202450000Y-118000000D02*
X202450000Y-120000000D01*
X288175000Y-118000000D02*
X288175000Y-120000000D01*
X262775000Y-118000000D02*
X262775000Y-120000000D01*
X218325000Y-118000000D02*
X218325000Y-120000000D01*
X215150000Y-118000000D02*
X215150000Y-120000000D01*
X237375000Y-118000000D02*
X237375000Y-120000000D01*
X323100000Y-117000000D02*
X323100000Y-120000000D01*
X281825000Y-118000000D02*
X281825000Y-120000000D01*
X183400000Y-115000000D02*
X183400000Y-120000000D01*
X326275000Y-118000000D02*
X326275000Y-120000000D01*
X316750000Y-118000000D02*
X316750000Y-120000000D01*
D11*
X336000000Y-90000000D02*
X336000000Y-93000000D01*
X335000000Y-90000000D02*
X335000000Y-92000000D01*
X332000000Y-90000000D02*
X332000000Y-92000000D01*
X334000000Y-90000000D02*
X334000000Y-92000000D01*
X333000000Y-90000000D02*
X333000000Y-92000000D01*
X331000000Y-90000000D02*
X331000000Y-95000000D01*
X250000000Y-90000000D02*
X250000000Y-92000000D01*
X305000000Y-90000000D02*
X305000000Y-92000000D01*
X248000000Y-90000000D02*
X248000000Y-92000000D01*
X272000000Y-90000000D02*
X272000000Y-92000000D01*
X258000000Y-90000000D02*
X258000000Y-92000000D01*
X245000000Y-90000000D02*
X245000000Y-92000000D01*
X278000000Y-90000000D02*
X278000000Y-92000000D01*
X235000000Y-90000000D02*
X235000000Y-92000000D01*
X295000000Y-90000000D02*
X295000000Y-92000000D01*
X322000000Y-90000000D02*
X322000000Y-92000000D01*
X243000000Y-90000000D02*
X243000000Y-92000000D01*
X284000000Y-90000000D02*
X284000000Y-92000000D01*
X301000000Y-90000000D02*
X301000000Y-95000000D01*
X237000000Y-90000000D02*
X237000000Y-92000000D01*
X244000000Y-90000000D02*
X244000000Y-92000000D01*
X316000000Y-90000000D02*
X316000000Y-93000000D01*
X265000000Y-90000000D02*
X265000000Y-92000000D01*
X288000000Y-90000000D02*
X288000000Y-92000000D01*
X270000000Y-90000000D02*
X270000000Y-92000000D01*
X311000000Y-90000000D02*
X311000000Y-95000000D01*
X283000000Y-90000000D02*
X283000000Y-92000000D01*
X306000000Y-90000000D02*
X306000000Y-93000000D01*
X238000000Y-90000000D02*
X238000000Y-92000000D01*
X325000000Y-90000000D02*
X325000000Y-92000000D01*
X308000000Y-90000000D02*
X308000000Y-92000000D01*
X249000000Y-90000000D02*
X249000000Y-92000000D01*
X268000000Y-90000000D02*
X268000000Y-92000000D01*
X231000000Y-90000000D02*
X231000000Y-95000000D01*
X259000000Y-90000000D02*
X259000000Y-92000000D01*
X303000000Y-90000000D02*
X303000000Y-92000000D01*
X252000000Y-90000000D02*
X252000000Y-92000000D01*
X323000000Y-90000000D02*
X323000000Y-92000000D01*
X327000000Y-90000000D02*
X327000000Y-92000000D01*
X291000000Y-90000000D02*
X291000000Y-95000000D01*
X240000000Y-90000000D02*
X240000000Y-92000000D01*
X263000000Y-90000000D02*
X263000000Y-92000000D01*
X324000000Y-90000000D02*
X324000000Y-92000000D01*
X260000000Y-90000000D02*
X260000000Y-92000000D01*
X273000000Y-90000000D02*
X273000000Y-92000000D01*
X253000000Y-90000000D02*
X253000000Y-92000000D01*
X292000000Y-90000000D02*
X292000000Y-92000000D01*
X329000000Y-90000000D02*
X329000000Y-92000000D01*
X285000000Y-90000000D02*
X285000000Y-92000000D01*
X255000000Y-90000000D02*
X255000000Y-92000000D01*
X251000000Y-90000000D02*
X251000000Y-95000000D01*
X280000000Y-90000000D02*
X280000000Y-92000000D01*
X312000000Y-90000000D02*
X312000000Y-92000000D01*
X274000000Y-90000000D02*
X274000000Y-92000000D01*
X256000000Y-90000000D02*
X256000000Y-93000000D01*
X320000000Y-90000000D02*
X320000000Y-92000000D01*
X239000000Y-90000000D02*
X239000000Y-92000000D01*
X232000000Y-90000000D02*
X232000000Y-92000000D01*
X310000000Y-90000000D02*
X310000000Y-92000000D01*
X282000000Y-90000000D02*
X282000000Y-92000000D01*
X315000000Y-90000000D02*
X315000000Y-92000000D01*
X293000000Y-90000000D02*
X293000000Y-92000000D01*
X300000000Y-90000000D02*
X300000000Y-92000000D01*
X247000000Y-90000000D02*
X247000000Y-92000000D01*
X234000000Y-90000000D02*
X234000000Y-92000000D01*
X298000000Y-90000000D02*
X298000000Y-92000000D01*
X328000000Y-90000000D02*
X328000000Y-92000000D01*
X262000000Y-90000000D02*
X262000000Y-92000000D01*
X236000000Y-90000000D02*
X236000000Y-93000000D01*
X299000000Y-90000000D02*
X299000000Y-92000000D01*
X294000000Y-90000000D02*
X294000000Y-92000000D01*
X287000000Y-90000000D02*
X287000000Y-92000000D01*
X319000000Y-90000000D02*
X319000000Y-92000000D01*
X281000000Y-90000000D02*
X281000000Y-95000000D01*
X289000000Y-90000000D02*
X289000000Y-92000000D01*
X330000000Y-90000000D02*
X330000000Y-92000000D01*
X302000000Y-90000000D02*
X302000000Y-92000000D01*
X264000000Y-90000000D02*
X264000000Y-92000000D01*
X257000000Y-90000000D02*
X257000000Y-92000000D01*
X241000000Y-90000000D02*
X241000000Y-95000000D01*
X314000000Y-90000000D02*
X314000000Y-92000000D01*
X254000000Y-90000000D02*
X254000000Y-92000000D01*
X290000000Y-90000000D02*
X290000000Y-92000000D01*
X266000000Y-90000000D02*
X266000000Y-93000000D01*
X313000000Y-90000000D02*
X313000000Y-92000000D01*
X307000000Y-90000000D02*
X307000000Y-92000000D01*
X296000000Y-90000000D02*
X296000000Y-93000000D01*
X242000000Y-90000000D02*
X242000000Y-92000000D01*
X326000000Y-90000000D02*
X326000000Y-93000000D01*
X275000000Y-90000000D02*
X275000000Y-92000000D01*
X267000000Y-90000000D02*
X267000000Y-92000000D01*
X279000000Y-90000000D02*
X279000000Y-92000000D01*
X304000000Y-90000000D02*
X304000000Y-92000000D01*
X246000000Y-90000000D02*
X246000000Y-93000000D01*
X269000000Y-90000000D02*
X269000000Y-92000000D01*
X286000000Y-90000000D02*
X286000000Y-93000000D01*
X297000000Y-90000000D02*
X297000000Y-92000000D01*
X277000000Y-90000000D02*
X277000000Y-92000000D01*
X321000000Y-90000000D02*
X321000000Y-95000000D01*
X318000000Y-90000000D02*
X318000000Y-92000000D01*
X317000000Y-90000000D02*
X317000000Y-92000000D01*
X271000000Y-90000000D02*
X271000000Y-95000000D01*
X233000000Y-90000000D02*
X233000000Y-92000000D01*
X261000000Y-90000000D02*
X261000000Y-95000000D01*
X309000000Y-90000000D02*
X309000000Y-92000000D01*
X276000000Y-90000000D02*
X276000000Y-93000000D01*
X150000000Y-90000000D02*
X150000000Y-92000000D01*
X205000000Y-90000000D02*
X205000000Y-92000000D01*
X148000000Y-90000000D02*
X148000000Y-92000000D01*
X172000000Y-90000000D02*
X172000000Y-92000000D01*
X158000000Y-90000000D02*
X158000000Y-92000000D01*
X145000000Y-90000000D02*
X145000000Y-92000000D01*
X178000000Y-90000000D02*
X178000000Y-92000000D01*
X135000000Y-90000000D02*
X135000000Y-92000000D01*
X195000000Y-90000000D02*
X195000000Y-92000000D01*
X222000000Y-90000000D02*
X222000000Y-92000000D01*
X143000000Y-90000000D02*
X143000000Y-92000000D01*
X184000000Y-90000000D02*
X184000000Y-92000000D01*
X201000000Y-90000000D02*
X201000000Y-95000000D01*
X137000000Y-90000000D02*
X137000000Y-92000000D01*
X144000000Y-90000000D02*
X144000000Y-92000000D01*
X216000000Y-90000000D02*
X216000000Y-93000000D01*
X165000000Y-90000000D02*
X165000000Y-92000000D01*
X188000000Y-90000000D02*
X188000000Y-92000000D01*
X170000000Y-90000000D02*
X170000000Y-92000000D01*
X211000000Y-90000000D02*
X211000000Y-95000000D01*
X183000000Y-90000000D02*
X183000000Y-92000000D01*
X206000000Y-90000000D02*
X206000000Y-93000000D01*
X138000000Y-90000000D02*
X138000000Y-92000000D01*
X225000000Y-90000000D02*
X225000000Y-92000000D01*
X208000000Y-90000000D02*
X208000000Y-92000000D01*
X149000000Y-90000000D02*
X149000000Y-92000000D01*
X168000000Y-90000000D02*
X168000000Y-92000000D01*
X131000000Y-90000000D02*
X131000000Y-95000000D01*
X159000000Y-90000000D02*
X159000000Y-92000000D01*
X203000000Y-90000000D02*
X203000000Y-92000000D01*
X152000000Y-90000000D02*
X152000000Y-92000000D01*
X223000000Y-90000000D02*
X223000000Y-92000000D01*
X227000000Y-90000000D02*
X227000000Y-92000000D01*
X191000000Y-90000000D02*
X191000000Y-95000000D01*
X140000000Y-90000000D02*
X140000000Y-92000000D01*
X163000000Y-90000000D02*
X163000000Y-92000000D01*
X224000000Y-90000000D02*
X224000000Y-92000000D01*
X160000000Y-90000000D02*
X160000000Y-92000000D01*
X173000000Y-90000000D02*
X173000000Y-92000000D01*
X153000000Y-90000000D02*
X153000000Y-92000000D01*
X192000000Y-90000000D02*
X192000000Y-92000000D01*
X229000000Y-90000000D02*
X229000000Y-92000000D01*
X185000000Y-90000000D02*
X185000000Y-92000000D01*
X155000000Y-90000000D02*
X155000000Y-92000000D01*
X151000000Y-90000000D02*
X151000000Y-95000000D01*
X180000000Y-90000000D02*
X180000000Y-92000000D01*
X212000000Y-90000000D02*
X212000000Y-92000000D01*
X174000000Y-90000000D02*
X174000000Y-92000000D01*
X156000000Y-90000000D02*
X156000000Y-93000000D01*
X220000000Y-90000000D02*
X220000000Y-92000000D01*
X139000000Y-90000000D02*
X139000000Y-92000000D01*
X132000000Y-90000000D02*
X132000000Y-92000000D01*
X210000000Y-90000000D02*
X210000000Y-92000000D01*
X182000000Y-90000000D02*
X182000000Y-92000000D01*
X215000000Y-90000000D02*
X215000000Y-92000000D01*
X193000000Y-90000000D02*
X193000000Y-92000000D01*
X200000000Y-90000000D02*
X200000000Y-92000000D01*
X147000000Y-90000000D02*
X147000000Y-92000000D01*
X134000000Y-90000000D02*
X134000000Y-92000000D01*
X198000000Y-90000000D02*
X198000000Y-92000000D01*
X228000000Y-90000000D02*
X228000000Y-92000000D01*
X162000000Y-90000000D02*
X162000000Y-92000000D01*
X136000000Y-90000000D02*
X136000000Y-93000000D01*
X199000000Y-90000000D02*
X199000000Y-92000000D01*
X194000000Y-90000000D02*
X194000000Y-92000000D01*
X187000000Y-90000000D02*
X187000000Y-92000000D01*
X219000000Y-90000000D02*
X219000000Y-92000000D01*
X181000000Y-90000000D02*
X181000000Y-95000000D01*
X189000000Y-90000000D02*
X189000000Y-92000000D01*
X230000000Y-90000000D02*
X230000000Y-92000000D01*
X202000000Y-90000000D02*
X202000000Y-92000000D01*
X164000000Y-90000000D02*
X164000000Y-92000000D01*
X157000000Y-90000000D02*
X157000000Y-92000000D01*
X141000000Y-90000000D02*
X141000000Y-95000000D01*
X214000000Y-90000000D02*
X214000000Y-92000000D01*
X154000000Y-90000000D02*
X154000000Y-92000000D01*
X190000000Y-90000000D02*
X190000000Y-92000000D01*
X166000000Y-90000000D02*
X166000000Y-93000000D01*
X213000000Y-90000000D02*
X213000000Y-92000000D01*
X207000000Y-90000000D02*
X207000000Y-92000000D01*
X196000000Y-90000000D02*
X196000000Y-93000000D01*
X142000000Y-90000000D02*
X142000000Y-92000000D01*
X226000000Y-90000000D02*
X226000000Y-93000000D01*
X175000000Y-90000000D02*
X175000000Y-92000000D01*
X167000000Y-90000000D02*
X167000000Y-92000000D01*
X179000000Y-90000000D02*
X179000000Y-92000000D01*
X204000000Y-90000000D02*
X204000000Y-92000000D01*
X146000000Y-90000000D02*
X146000000Y-93000000D01*
X169000000Y-90000000D02*
X169000000Y-92000000D01*
X186000000Y-90000000D02*
X186000000Y-93000000D01*
X197000000Y-90000000D02*
X197000000Y-92000000D01*
X177000000Y-90000000D02*
X177000000Y-92000000D01*
X221000000Y-90000000D02*
X221000000Y-95000000D01*
X218000000Y-90000000D02*
X218000000Y-92000000D01*
X217000000Y-90000000D02*
X217000000Y-92000000D01*
X171000000Y-90000000D02*
X171000000Y-95000000D01*
X133000000Y-90000000D02*
X133000000Y-92000000D01*
X161000000Y-90000000D02*
X161000000Y-95000000D01*
X209000000Y-90000000D02*
X209000000Y-92000000D01*
X176000000Y-90000000D02*
X176000000Y-93000000D01*
X100000000Y-90000000D02*
X100000000Y-92000000D01*
X98000000Y-90000000D02*
X98000000Y-92000000D01*
X122000000Y-90000000D02*
X122000000Y-92000000D01*
X108000000Y-90000000D02*
X108000000Y-92000000D01*
X95000000Y-90000000D02*
X95000000Y-92000000D01*
X128000000Y-90000000D02*
X128000000Y-92000000D01*
X85000000Y-90000000D02*
X85000000Y-92000000D01*
X93000000Y-90000000D02*
X93000000Y-92000000D01*
X87000000Y-90000000D02*
X87000000Y-92000000D01*
X94000000Y-90000000D02*
X94000000Y-92000000D01*
X115000000Y-90000000D02*
X115000000Y-92000000D01*
X120000000Y-90000000D02*
X120000000Y-92000000D01*
X88000000Y-90000000D02*
X88000000Y-92000000D01*
X99000000Y-90000000D02*
X99000000Y-92000000D01*
X118000000Y-90000000D02*
X118000000Y-92000000D01*
X81000000Y-90000000D02*
X81000000Y-95000000D01*
X109000000Y-90000000D02*
X109000000Y-92000000D01*
X102000000Y-90000000D02*
X102000000Y-92000000D01*
X90000000Y-90000000D02*
X90000000Y-92000000D01*
X113000000Y-90000000D02*
X113000000Y-92000000D01*
X110000000Y-90000000D02*
X110000000Y-92000000D01*
X123000000Y-90000000D02*
X123000000Y-92000000D01*
X103000000Y-90000000D02*
X103000000Y-92000000D01*
X105000000Y-90000000D02*
X105000000Y-92000000D01*
X101000000Y-90000000D02*
X101000000Y-95000000D01*
X130000000Y-90000000D02*
X130000000Y-92000000D01*
X124000000Y-90000000D02*
X124000000Y-92000000D01*
X106000000Y-90000000D02*
X106000000Y-93000000D01*
X89000000Y-90000000D02*
X89000000Y-92000000D01*
X82000000Y-90000000D02*
X82000000Y-92000000D01*
X97000000Y-90000000D02*
X97000000Y-92000000D01*
X84000000Y-90000000D02*
X84000000Y-92000000D01*
X112000000Y-90000000D02*
X112000000Y-92000000D01*
X86000000Y-90000000D02*
X86000000Y-93000000D01*
X114000000Y-90000000D02*
X114000000Y-92000000D01*
X107000000Y-90000000D02*
X107000000Y-92000000D01*
X91000000Y-90000000D02*
X91000000Y-95000000D01*
X104000000Y-90000000D02*
X104000000Y-92000000D01*
X116000000Y-90000000D02*
X116000000Y-93000000D01*
X92000000Y-90000000D02*
X92000000Y-92000000D01*
X125000000Y-90000000D02*
X125000000Y-92000000D01*
X117000000Y-90000000D02*
X117000000Y-92000000D01*
X129000000Y-90000000D02*
X129000000Y-92000000D01*
X96000000Y-90000000D02*
X96000000Y-93000000D01*
X119000000Y-90000000D02*
X119000000Y-92000000D01*
X127000000Y-90000000D02*
X127000000Y-92000000D01*
X121000000Y-90000000D02*
X121000000Y-95000000D01*
X83000000Y-90000000D02*
X83000000Y-92000000D01*
X111000000Y-90000000D02*
X111000000Y-95000000D01*
X126000000Y-90000000D02*
X126000000Y-93000000D01*
X75000000Y-90000000D02*
X75000000Y-92000000D01*
X80000000Y-90000000D02*
X80000000Y-92000000D01*
X78000000Y-90000000D02*
X78000000Y-92000000D01*
X73000000Y-90000000D02*
X73000000Y-92000000D01*
X72000000Y-90000000D02*
X72000000Y-92000000D01*
X74000000Y-90000000D02*
X74000000Y-92000000D01*
X76000000Y-90000000D02*
X76000000Y-93000000D01*
X77000000Y-90000000D02*
X77000000Y-92000000D01*
X79000000Y-90000000D02*
X79000000Y-92000000D01*
X71000000Y-90000000D02*
X71000000Y-95000000D01*
X70000000Y-90000000D02*
X70000000Y-92000000D01*
X68000000Y-90000000D02*
X68000000Y-92000000D01*
X65000000Y-90000000D02*
X65000000Y-92000000D01*
X55000000Y-90000000D02*
X55000000Y-92000000D01*
X63000000Y-90000000D02*
X63000000Y-92000000D01*
X57000000Y-90000000D02*
X57000000Y-92000000D01*
X64000000Y-90000000D02*
X64000000Y-92000000D01*
X58000000Y-90000000D02*
X58000000Y-92000000D01*
X69000000Y-90000000D02*
X69000000Y-92000000D01*
X51000000Y-90000000D02*
X51000000Y-95000000D01*
X60000000Y-90000000D02*
X60000000Y-92000000D01*
X59000000Y-90000000D02*
X59000000Y-92000000D01*
X52000000Y-90000000D02*
X52000000Y-92000000D01*
X67000000Y-90000000D02*
X67000000Y-92000000D01*
X54000000Y-90000000D02*
X54000000Y-92000000D01*
X56000000Y-90000000D02*
X56000000Y-93000000D01*
X61000000Y-90000000D02*
X61000000Y-95000000D01*
X62000000Y-90000000D02*
X62000000Y-92000000D01*
X66000000Y-90000000D02*
X66000000Y-93000000D01*
X53000000Y-90000000D02*
X53000000Y-92000000D01*
X45000000Y-90000000D02*
X45000000Y-92000000D01*
X47000000Y-90000000D02*
X47000000Y-92000000D01*
X48000000Y-90000000D02*
X48000000Y-92000000D01*
X41000000Y-90000000D02*
X41000000Y-95000000D01*
X50000000Y-90000000D02*
X50000000Y-92000000D01*
X49000000Y-90000000D02*
X49000000Y-92000000D01*
X42000000Y-90000000D02*
X42000000Y-92000000D01*
X44000000Y-90000000D02*
X44000000Y-92000000D01*
X46000000Y-90000000D02*
X46000000Y-93000000D01*
X43000000Y-90000000D02*
X43000000Y-92000000D01*
X40000000Y-90000000D02*
X40000000Y-92000000D01*
X37000000Y-90000000D02*
X37000000Y-92000000D01*
X39000000Y-90000000D02*
X39000000Y-92000000D01*
X38000000Y-90000000D02*
X38000000Y-92000000D01*
X36000000Y-90000000D02*
X36000000Y-93000000D01*
X35000000Y-90000000D02*
X35000000Y-92000000D01*
X34000000Y-90000000D02*
X34000000Y-92000000D01*
X33000000Y-90000000D02*
X33000000Y-92000000D01*
X32000000Y-90000000D02*
X32000000Y-92000000D01*
X31000000Y-90000000D02*
X31000000Y-95000000D01*
D12*
%TO.C,G\u002A\u002A\u002A*%
G36*
X174566667Y-102867333D02*
G01*
X172450000Y-102867333D01*
X172450000Y-109175000D01*
X174566667Y-109175000D01*
X174566667Y-112900333D01*
X165040777Y-112900333D01*
X165051805Y-111048250D01*
X165062834Y-109196166D01*
X167158334Y-109173520D01*
X167158334Y-102868812D01*
X165062834Y-102846166D01*
X165051805Y-100994083D01*
X165040777Y-99142000D01*
X174566667Y-99142000D01*
X174566667Y-102867333D01*
G37*
X174566667Y-102867333D02*
X172450000Y-102867333D01*
X172450000Y-109175000D01*
X174566667Y-109175000D01*
X174566667Y-112900333D01*
X165040777Y-112900333D01*
X165051805Y-111048250D01*
X165062834Y-109196166D01*
X167158334Y-109173520D01*
X167158334Y-102868812D01*
X165062834Y-102846166D01*
X165051805Y-100994083D01*
X165040777Y-99142000D01*
X174566667Y-99142000D01*
X174566667Y-102867333D01*
D13*
%TO.C,REF\u002A\u002A*%
X31181312Y-110550826D02*
X31464823Y-111884663D01*
X33339708Y-109589863D02*
X34141232Y-110693069D01*
X33801919Y-109215585D02*
X34714345Y-110228959D01*
X30593960Y-110643859D02*
X30736484Y-112000043D01*
X32840935Y-109913783D02*
X33750027Y-111488359D01*
X31755773Y-110396910D02*
X32177188Y-111693788D01*
X32311054Y-110183784D02*
X32865630Y-111429527D01*
X34222436Y-108795047D02*
X35235824Y-109707500D01*
X35557691Y-103811842D02*
X36891528Y-103528333D01*
X34920621Y-102152283D02*
X36495224Y-101243191D01*
X35403749Y-106748953D02*
X36700652Y-107170344D01*
X31755773Y-99589405D02*
X32177188Y-98292572D01*
X35650717Y-104399259D02*
X37006882Y-104256735D01*
X30593960Y-99342457D02*
X30736484Y-97986293D01*
X35190623Y-102682165D02*
X36436366Y-102127524D01*
X34920621Y-107834090D02*
X36495224Y-108743182D01*
X31181312Y-99435527D02*
X31464823Y-98101684D01*
X35557691Y-106174467D02*
X36891528Y-106457977D01*
X34596708Y-101653511D02*
X35699901Y-100851923D01*
X33339708Y-100396446D02*
X34141232Y-99293260D01*
X35650717Y-105587050D02*
X37006882Y-105729639D01*
X32840935Y-100072591D02*
X33750027Y-98497957D01*
X34222436Y-101191300D02*
X35235824Y-100278809D01*
X35681839Y-104993154D02*
X37500028Y-104993154D01*
X34596708Y-108332875D02*
X35699901Y-109134381D01*
X33801919Y-100770718D02*
X34714345Y-99757395D01*
X32311054Y-99802552D02*
X32865630Y-98556839D01*
X35190623Y-107304190D02*
X36436366Y-107858817D01*
X35403749Y-103237382D02*
X36700652Y-102816031D01*
%TD*%
D14*
%TO.C,REF\u002A\u002A*%
X333000000Y-105000000D03*
D15*
X328000000Y-105000000D03*
D16*
X323950000Y-96750000D03*
D17*
X320950000Y-96750000D03*
D18*
X323000000Y-105000000D03*
D19*
X319000000Y-105000000D03*
D20*
X332950000Y-96750000D03*
D21*
X329950000Y-96750000D03*
D22*
X326950000Y-96750000D03*
D23*
X317950000Y-96750000D03*
D24*
X314950000Y-96750000D03*
D25*
X311950000Y-96750000D03*
D26*
X308950000Y-96750000D03*
D27*
X305950000Y-96750000D03*
D28*
X302950000Y-96750000D03*
D29*
X299950000Y-96750000D03*
%TD*%
M02*
