%FSLAX45Y45*%
G04 Gerber Fmt 4.5, Leading zero omitted, Abs format (unit mm)*
G04 Created by KiCad (PCBNEW 5.1.10) date 2021-09-06 22:28:21*
%MOMM*%
%LPD*%
G01*
G04 APERTURE LIST*
%TA.AperFunction,Profile*%
%ADD10C,0.050000*%
%TD*%
%ADD11C,0.200000*%
%ADD12C,0.300000*%
G04 APERTURE END LIST*
D10*
X3000000Y-9950000D02*
G75*
G02*
X3000000Y-11050000I0J-550000D01*
G01*
X3000000Y-11900000D02*
X3000000Y-11050000D01*
X33600000Y-9000000D02*
G75*
G02*
X33700000Y-9100000I0J-100000D01*
G01*
X33700000Y-11900000D02*
G75*
G02*
X33600000Y-12000000I-100000J0D01*
G01*
X3100000Y-12000000D02*
G75*
G02*
X3000000Y-11900000I0J100000D01*
G01*
X3000000Y-9100000D02*
G75*
G02*
X3100000Y-9000000I100000J0D01*
G01*
X3000000Y-9950000D02*
X3000000Y-9100000D01*
X33600000Y-12000000D02*
X3100000Y-12000000D01*
X33700000Y-9100000D02*
X33700000Y-11900000D01*
X3100000Y-9000000D02*
X33600000Y-9000000D01*
D11*
D12*
X3283928Y-12468214D02*
X3283928Y-12168214D01*
X3355357Y-12168214D01*
X3398214Y-12182500D01*
X3426786Y-12211071D01*
X3441071Y-12239643D01*
X3455357Y-12296786D01*
X3455357Y-12339643D01*
X3441071Y-12396786D01*
X3426786Y-12425357D01*
X3398214Y-12453929D01*
X3355357Y-12468214D01*
X3283928Y-12468214D01*
X3583928Y-12468214D02*
X3583928Y-12268214D01*
X3583928Y-12325357D02*
X3598214Y-12296786D01*
X3612500Y-12282500D01*
X3641071Y-12268214D01*
X3669643Y-12268214D01*
X3769643Y-12468214D02*
X3769643Y-12268214D01*
X3769643Y-12168214D02*
X3755357Y-12182500D01*
X3769643Y-12196786D01*
X3783928Y-12182500D01*
X3769643Y-12168214D01*
X3769643Y-12196786D01*
X3955357Y-12468214D02*
X3926786Y-12453929D01*
X3912500Y-12425357D01*
X3912500Y-12168214D01*
X4112500Y-12468214D02*
X4083928Y-12453929D01*
X4069643Y-12425357D01*
X4069643Y-12168214D01*
X4455357Y-12468214D02*
X4455357Y-12168214D01*
X4555357Y-12382500D01*
X4655357Y-12168214D01*
X4655357Y-12468214D01*
X4926786Y-12468214D02*
X4926786Y-12311071D01*
X4912500Y-12282500D01*
X4883928Y-12268214D01*
X4826786Y-12268214D01*
X4798214Y-12282500D01*
X4926786Y-12453929D02*
X4898214Y-12468214D01*
X4826786Y-12468214D01*
X4798214Y-12453929D01*
X4783928Y-12425357D01*
X4783928Y-12396786D01*
X4798214Y-12368214D01*
X4826786Y-12353929D01*
X4898214Y-12353929D01*
X4926786Y-12339643D01*
X5069643Y-12268214D02*
X5069643Y-12568214D01*
X5069643Y-12282500D02*
X5098214Y-12268214D01*
X5155357Y-12268214D01*
X5183928Y-12282500D01*
X5198214Y-12296786D01*
X5212500Y-12325357D01*
X5212500Y-12411071D01*
X5198214Y-12439643D01*
X5183928Y-12453929D01*
X5155357Y-12468214D01*
X5098214Y-12468214D01*
X5069643Y-12453929D01*
X5341071Y-12439643D02*
X5355357Y-12453929D01*
X5341071Y-12468214D01*
X5326786Y-12453929D01*
X5341071Y-12439643D01*
X5341071Y-12468214D01*
X5341071Y-12282500D02*
X5355357Y-12296786D01*
X5341071Y-12311071D01*
X5326786Y-12296786D01*
X5341071Y-12282500D01*
X5341071Y-12311071D01*
M02*
