%FSLAX45Y45*%
G04 Gerber Fmt 4.5, Leading zero omitted, Abs format (unit mm)*
G04 Created by KiCad (PCBNEW 5.1.10) date 2021-09-06 22:28:21*
%MOMM*%
%LPD*%
G01*
G04 APERTURE LIST*
%TA.AperFunction,Profile*%
%ADD10C,0.050000*%
%TD*%
%ADD11C,0.200000*%
%ADD12C,0.300000*%
G04 APERTURE END LIST*
D10*
X3000000Y-9950000D02*
G75*
G02*
X3000000Y-11050000I0J-550000D01*
G01*
X3000000Y-11900000D02*
X3000000Y-11050000D01*
X33600000Y-9000000D02*
G75*
G02*
X33700000Y-9100000I0J-100000D01*
G01*
X33700000Y-11900000D02*
G75*
G02*
X33600000Y-12000000I-100000J0D01*
G01*
X3100000Y-12000000D02*
G75*
G02*
X3000000Y-11900000I0J100000D01*
G01*
X3000000Y-9100000D02*
G75*
G02*
X3100000Y-9000000I100000J0D01*
G01*
X3000000Y-9950000D02*
X3000000Y-9100000D01*
X33600000Y-12000000D02*
X3100000Y-12000000D01*
X33700000Y-9100000D02*
X33700000Y-11900000D01*
X3100000Y-9000000D02*
X33600000Y-9000000D01*
D11*
X29979760Y-9659760D02*
X30010240Y-9690240D01*
X30010240Y-9659760D02*
X29979760Y-9690240D01*
X30315000Y-9675000D02*
G75*
G03*
X30315000Y-9675000I-20000J0D01*
G01*
X30595000Y-9650000D02*
X30595000Y-9700000D01*
X30570000Y-9675000D02*
X30620000Y-9675000D01*
X30916213Y-9696213D02*
X30916213Y-9653787D01*
X30873787Y-9653787D01*
X30873787Y-9696213D01*
X30916213Y-9696213D01*
X31195000Y-9710000D02*
X31230000Y-9675000D01*
X31195000Y-9640000D01*
X31160000Y-9675000D01*
X31195000Y-9710000D01*
X31455000Y-9635000D02*
X31535000Y-9715000D01*
X31535000Y-9635000D02*
X31455000Y-9715000D01*
X31535000Y-9675000D02*
G75*
G03*
X31535000Y-9675000I-40000J0D01*
G01*
X31750000Y-9630000D02*
X31840000Y-9720000D01*
X31840000Y-9630000D02*
X31750000Y-9720000D01*
X31795000Y-9630000D02*
X31795000Y-9720000D01*
X31750000Y-9675000D02*
X31840000Y-9675000D01*
X32045000Y-9625000D02*
X32145000Y-9725000D01*
X32145000Y-9625000D02*
X32045000Y-9725000D01*
X32130356Y-9710356D02*
X32130356Y-9639644D01*
X32059644Y-9639644D01*
X32059644Y-9710356D01*
X32130356Y-9710356D01*
X32340000Y-9620000D02*
X32450000Y-9730000D01*
X32450000Y-9620000D02*
X32340000Y-9730000D01*
X32395000Y-9730000D02*
X32450000Y-9675000D01*
X32395000Y-9620000D01*
X32340000Y-9675000D01*
X32395000Y-9730000D01*
X32695000Y-9615000D02*
X32695000Y-9735000D01*
X32635000Y-9675000D02*
X32755000Y-9675000D01*
X32755000Y-9675000D02*
G75*
G03*
X32755000Y-9675000I-60000J0D01*
G01*
X33048033Y-9728034D02*
X33048033Y-9621967D01*
X32941966Y-9621967D01*
X32941966Y-9728034D01*
X33048033Y-9728034D01*
X33070000Y-9675000D02*
G75*
G03*
X33070000Y-9675000I-75000J0D01*
G01*
X33295000Y-9775000D02*
X33395000Y-9675000D01*
X33295000Y-9575000D01*
X33195000Y-9675000D01*
X33295000Y-9775000D01*
X33395000Y-9675000D02*
G75*
G03*
X33395000Y-9675000I-100000J0D01*
G01*
X31900000Y-10375000D02*
X31900000Y-10625000D01*
X31775000Y-10500000D02*
X32025000Y-10500000D01*
X31988389Y-10588389D02*
X31988389Y-10411611D01*
X31811611Y-10411611D01*
X31811611Y-10588389D01*
X31988389Y-10588389D01*
X32300000Y-10350000D02*
X32300000Y-10650000D01*
X32150000Y-10500000D02*
X32450000Y-10500000D01*
X32300000Y-10650000D02*
X32450000Y-10500000D01*
X32300000Y-10350000D01*
X32150000Y-10500000D01*
X32300000Y-10650000D01*
X32800000Y-10675000D02*
X32975000Y-10500000D01*
X32800000Y-10325000D01*
X32625000Y-10500000D01*
X32800000Y-10675000D01*
X32923745Y-10623745D02*
X32923745Y-10376255D01*
X32676255Y-10376255D01*
X32676255Y-10623745D01*
X32923745Y-10623745D01*
X33100000Y-10300000D02*
X33500000Y-10700000D01*
X33500000Y-10300000D02*
X33100000Y-10700000D01*
X33300000Y-10300000D02*
X33300000Y-10700000D01*
X33100000Y-10500000D02*
X33500000Y-10500000D01*
X33500000Y-10500000D02*
G75*
G03*
X33500000Y-10500000I-200000J0D01*
G01*
D12*
X3283928Y-12468214D02*
X3283928Y-12168214D01*
X3355357Y-12168214D01*
X3398214Y-12182500D01*
X3426786Y-12211071D01*
X3441071Y-12239643D01*
X3455357Y-12296786D01*
X3455357Y-12339643D01*
X3441071Y-12396786D01*
X3426786Y-12425357D01*
X3398214Y-12453929D01*
X3355357Y-12468214D01*
X3283928Y-12468214D01*
X3583928Y-12468214D02*
X3583928Y-12268214D01*
X3583928Y-12325357D02*
X3598214Y-12296786D01*
X3612500Y-12282500D01*
X3641071Y-12268214D01*
X3669643Y-12268214D01*
X3769643Y-12468214D02*
X3769643Y-12268214D01*
X3769643Y-12168214D02*
X3755357Y-12182500D01*
X3769643Y-12196786D01*
X3783928Y-12182500D01*
X3769643Y-12168214D01*
X3769643Y-12196786D01*
X3955357Y-12468214D02*
X3926786Y-12453929D01*
X3912500Y-12425357D01*
X3912500Y-12168214D01*
X4112500Y-12468214D02*
X4083928Y-12453929D01*
X4069643Y-12425357D01*
X4069643Y-12168214D01*
X4455357Y-12468214D02*
X4455357Y-12168214D01*
X4555357Y-12382500D01*
X4655357Y-12168214D01*
X4655357Y-12468214D01*
X4926786Y-12468214D02*
X4926786Y-12311071D01*
X4912500Y-12282500D01*
X4883928Y-12268214D01*
X4826786Y-12268214D01*
X4798214Y-12282500D01*
X4926786Y-12453929D02*
X4898214Y-12468214D01*
X4826786Y-12468214D01*
X4798214Y-12453929D01*
X4783928Y-12425357D01*
X4783928Y-12396786D01*
X4798214Y-12368214D01*
X4826786Y-12353929D01*
X4898214Y-12353929D01*
X4926786Y-12339643D01*
X5069643Y-12268214D02*
X5069643Y-12568214D01*
X5069643Y-12282500D02*
X5098214Y-12268214D01*
X5155357Y-12268214D01*
X5183928Y-12282500D01*
X5198214Y-12296786D01*
X5212500Y-12325357D01*
X5212500Y-12411071D01*
X5198214Y-12439643D01*
X5183928Y-12453929D01*
X5155357Y-12468214D01*
X5098214Y-12468214D01*
X5069643Y-12453929D01*
X5341071Y-12439643D02*
X5355357Y-12453929D01*
X5341071Y-12468214D01*
X5326786Y-12453929D01*
X5341071Y-12439643D01*
X5341071Y-12468214D01*
X5341071Y-12282500D02*
X5355357Y-12296786D01*
X5341071Y-12311071D01*
X5326786Y-12296786D01*
X5341071Y-12282500D01*
X5341071Y-12311071D01*
X2967020Y-12947260D02*
X2997500Y-12977740D01*
X2997500Y-12947260D02*
X2967020Y-12977740D01*
X3341071Y-12798214D02*
X3369643Y-12798214D01*
X3398214Y-12812500D01*
X3412500Y-12826786D01*
X3426786Y-12855357D01*
X3441071Y-12912500D01*
X3441071Y-12983929D01*
X3426786Y-13041071D01*
X3412500Y-13069643D01*
X3398214Y-13083929D01*
X3369643Y-13098214D01*
X3341071Y-13098214D01*
X3312500Y-13083929D01*
X3298214Y-13069643D01*
X3283928Y-13041071D01*
X3269643Y-12983929D01*
X3269643Y-12912500D01*
X3283928Y-12855357D01*
X3298214Y-12826786D01*
X3312500Y-12812500D01*
X3341071Y-12798214D01*
X3569643Y-13069643D02*
X3583928Y-13083929D01*
X3569643Y-13098214D01*
X3555357Y-13083929D01*
X3569643Y-13069643D01*
X3569643Y-13098214D01*
X3683928Y-12798214D02*
X3869643Y-12798214D01*
X3769643Y-12912500D01*
X3812500Y-12912500D01*
X3841071Y-12926786D01*
X3855357Y-12941071D01*
X3869643Y-12969643D01*
X3869643Y-13041071D01*
X3855357Y-13069643D01*
X3841071Y-13083929D01*
X3812500Y-13098214D01*
X3726786Y-13098214D01*
X3698214Y-13083929D01*
X3683928Y-13069643D01*
X4055357Y-12798214D02*
X4083928Y-12798214D01*
X4112500Y-12812500D01*
X4126786Y-12826786D01*
X4141071Y-12855357D01*
X4155357Y-12912500D01*
X4155357Y-12983929D01*
X4141071Y-13041071D01*
X4126786Y-13069643D01*
X4112500Y-13083929D01*
X4083928Y-13098214D01*
X4055357Y-13098214D01*
X4026786Y-13083929D01*
X4012500Y-13069643D01*
X3998214Y-13041071D01*
X3983928Y-12983929D01*
X3983928Y-12912500D01*
X3998214Y-12855357D01*
X4012500Y-12826786D01*
X4026786Y-12812500D01*
X4055357Y-12798214D01*
X4426786Y-12798214D02*
X4283928Y-12798214D01*
X4269643Y-12941071D01*
X4283928Y-12926786D01*
X4312500Y-12912500D01*
X4383928Y-12912500D01*
X4412500Y-12926786D01*
X4426786Y-12941071D01*
X4441071Y-12969643D01*
X4441071Y-13041071D01*
X4426786Y-13069643D01*
X4412500Y-13083929D01*
X4383928Y-13098214D01*
X4312500Y-13098214D01*
X4283928Y-13083929D01*
X4269643Y-13069643D01*
X4569643Y-13098214D02*
X4569643Y-12898214D01*
X4569643Y-12926786D02*
X4583928Y-12912500D01*
X4612500Y-12898214D01*
X4655357Y-12898214D01*
X4683928Y-12912500D01*
X4698214Y-12941071D01*
X4698214Y-13098214D01*
X4698214Y-12941071D02*
X4712500Y-12912500D01*
X4741071Y-12898214D01*
X4783928Y-12898214D01*
X4812500Y-12912500D01*
X4826786Y-12941071D01*
X4826786Y-13098214D01*
X4969643Y-13098214D02*
X4969643Y-12898214D01*
X4969643Y-12926786D02*
X4983928Y-12912500D01*
X5012500Y-12898214D01*
X5055357Y-12898214D01*
X5083928Y-12912500D01*
X5098214Y-12941071D01*
X5098214Y-13098214D01*
X5098214Y-12941071D02*
X5112500Y-12912500D01*
X5141071Y-12898214D01*
X5183928Y-12898214D01*
X5212500Y-12912500D01*
X5226786Y-12941071D01*
X5226786Y-13098214D01*
X5812500Y-12783929D02*
X5555357Y-13169643D01*
X6198214Y-12798214D02*
X6226786Y-12798214D01*
X6255357Y-12812500D01*
X6269643Y-12826786D01*
X6283928Y-12855357D01*
X6298214Y-12912500D01*
X6298214Y-12983929D01*
X6283928Y-13041071D01*
X6269643Y-13069643D01*
X6255357Y-13083929D01*
X6226786Y-13098214D01*
X6198214Y-13098214D01*
X6169643Y-13083929D01*
X6155357Y-13069643D01*
X6141071Y-13041071D01*
X6126786Y-12983929D01*
X6126786Y-12912500D01*
X6141071Y-12855357D01*
X6155357Y-12826786D01*
X6169643Y-12812500D01*
X6198214Y-12798214D01*
X6426786Y-13069643D02*
X6441071Y-13083929D01*
X6426786Y-13098214D01*
X6412500Y-13083929D01*
X6426786Y-13069643D01*
X6426786Y-13098214D01*
X6626786Y-12798214D02*
X6655357Y-12798214D01*
X6683928Y-12812500D01*
X6698214Y-12826786D01*
X6712500Y-12855357D01*
X6726786Y-12912500D01*
X6726786Y-12983929D01*
X6712500Y-13041071D01*
X6698214Y-13069643D01*
X6683928Y-13083929D01*
X6655357Y-13098214D01*
X6626786Y-13098214D01*
X6598214Y-13083929D01*
X6583928Y-13069643D01*
X6569643Y-13041071D01*
X6555357Y-12983929D01*
X6555357Y-12912500D01*
X6569643Y-12855357D01*
X6583928Y-12826786D01*
X6598214Y-12812500D01*
X6626786Y-12798214D01*
X7012500Y-13098214D02*
X6841071Y-13098214D01*
X6926786Y-13098214D02*
X6926786Y-12798214D01*
X6898214Y-12841071D01*
X6869643Y-12869643D01*
X6841071Y-12883929D01*
X7126786Y-12826786D02*
X7141071Y-12812500D01*
X7169643Y-12798214D01*
X7241071Y-12798214D01*
X7269643Y-12812500D01*
X7283928Y-12826786D01*
X7298214Y-12855357D01*
X7298214Y-12883929D01*
X7283928Y-12926786D01*
X7112500Y-13098214D01*
X7298214Y-13098214D01*
X7483928Y-12798214D02*
X7512500Y-12798214D01*
X7541071Y-12812500D01*
X7555357Y-12826786D01*
X7569643Y-12855357D01*
X7583928Y-12912500D01*
X7583928Y-12983929D01*
X7569643Y-13041071D01*
X7555357Y-13069643D01*
X7541071Y-13083929D01*
X7512500Y-13098214D01*
X7483928Y-13098214D01*
X7455357Y-13083929D01*
X7441071Y-13069643D01*
X7426786Y-13041071D01*
X7412500Y-12983929D01*
X7412500Y-12912500D01*
X7426786Y-12855357D01*
X7441071Y-12826786D01*
X7455357Y-12812500D01*
X7483928Y-12798214D01*
X7698214Y-12798214D02*
X7698214Y-12855357D01*
X7812500Y-12798214D02*
X7812500Y-12855357D01*
X8255357Y-13212500D02*
X8241071Y-13198214D01*
X8212500Y-13155357D01*
X8198214Y-13126786D01*
X8183928Y-13083929D01*
X8169643Y-13012500D01*
X8169643Y-12955357D01*
X8183928Y-12883929D01*
X8198214Y-12841071D01*
X8212500Y-12812500D01*
X8241071Y-12769643D01*
X8255357Y-12755357D01*
X8526786Y-13098214D02*
X8355357Y-13098214D01*
X8441071Y-13098214D02*
X8441071Y-12798214D01*
X8412500Y-12841071D01*
X8383928Y-12869643D01*
X8355357Y-12883929D01*
X8883928Y-13098214D02*
X8883928Y-12798214D01*
X9012500Y-13098214D02*
X9012500Y-12941071D01*
X8998214Y-12912500D01*
X8969643Y-12898214D01*
X8926786Y-12898214D01*
X8898214Y-12912500D01*
X8883928Y-12926786D01*
X9198214Y-13098214D02*
X9169643Y-13083929D01*
X9155357Y-13069643D01*
X9141071Y-13041071D01*
X9141071Y-12955357D01*
X9155357Y-12926786D01*
X9169643Y-12912500D01*
X9198214Y-12898214D01*
X9241071Y-12898214D01*
X9269643Y-12912500D01*
X9283928Y-12926786D01*
X9298214Y-12955357D01*
X9298214Y-13041071D01*
X9283928Y-13069643D01*
X9269643Y-13083929D01*
X9241071Y-13098214D01*
X9198214Y-13098214D01*
X9469643Y-13098214D02*
X9441071Y-13083929D01*
X9426786Y-13055357D01*
X9426786Y-12798214D01*
X9698214Y-13083929D02*
X9669643Y-13098214D01*
X9612500Y-13098214D01*
X9583928Y-13083929D01*
X9569643Y-13055357D01*
X9569643Y-12941071D01*
X9583928Y-12912500D01*
X9612500Y-12898214D01*
X9669643Y-12898214D01*
X9698214Y-12912500D01*
X9712500Y-12941071D01*
X9712500Y-12969643D01*
X9569643Y-12998214D01*
X9812500Y-13212500D02*
X9826786Y-13198214D01*
X9855357Y-13155357D01*
X9869643Y-13126786D01*
X9883928Y-13083929D01*
X9898214Y-13012500D01*
X9898214Y-12955357D01*
X9883928Y-12883929D01*
X9869643Y-12841071D01*
X9855357Y-12812500D01*
X9826786Y-12769643D01*
X9812500Y-12755357D01*
X2997500Y-13358500D02*
G75*
G03*
X2997500Y-13358500I-20000J0D01*
G01*
X3341071Y-13194214D02*
X3369643Y-13194214D01*
X3398214Y-13208500D01*
X3412500Y-13222786D01*
X3426786Y-13251357D01*
X3441071Y-13308500D01*
X3441071Y-13379929D01*
X3426786Y-13437071D01*
X3412500Y-13465643D01*
X3398214Y-13479929D01*
X3369643Y-13494214D01*
X3341071Y-13494214D01*
X3312500Y-13479929D01*
X3298214Y-13465643D01*
X3283928Y-13437071D01*
X3269643Y-13379929D01*
X3269643Y-13308500D01*
X3283928Y-13251357D01*
X3298214Y-13222786D01*
X3312500Y-13208500D01*
X3341071Y-13194214D01*
X3569643Y-13465643D02*
X3583928Y-13479929D01*
X3569643Y-13494214D01*
X3555357Y-13479929D01*
X3569643Y-13465643D01*
X3569643Y-13494214D01*
X3841071Y-13294214D02*
X3841071Y-13494214D01*
X3769643Y-13179929D02*
X3698214Y-13394214D01*
X3883928Y-13394214D01*
X4055357Y-13194214D02*
X4083928Y-13194214D01*
X4112500Y-13208500D01*
X4126786Y-13222786D01*
X4141071Y-13251357D01*
X4155357Y-13308500D01*
X4155357Y-13379929D01*
X4141071Y-13437071D01*
X4126786Y-13465643D01*
X4112500Y-13479929D01*
X4083928Y-13494214D01*
X4055357Y-13494214D01*
X4026786Y-13479929D01*
X4012500Y-13465643D01*
X3998214Y-13437071D01*
X3983928Y-13379929D01*
X3983928Y-13308500D01*
X3998214Y-13251357D01*
X4012500Y-13222786D01*
X4026786Y-13208500D01*
X4055357Y-13194214D01*
X4341071Y-13194214D02*
X4369643Y-13194214D01*
X4398214Y-13208500D01*
X4412500Y-13222786D01*
X4426786Y-13251357D01*
X4441071Y-13308500D01*
X4441071Y-13379929D01*
X4426786Y-13437071D01*
X4412500Y-13465643D01*
X4398214Y-13479929D01*
X4369643Y-13494214D01*
X4341071Y-13494214D01*
X4312500Y-13479929D01*
X4298214Y-13465643D01*
X4283928Y-13437071D01*
X4269643Y-13379929D01*
X4269643Y-13308500D01*
X4283928Y-13251357D01*
X4298214Y-13222786D01*
X4312500Y-13208500D01*
X4341071Y-13194214D01*
X4569643Y-13494214D02*
X4569643Y-13294214D01*
X4569643Y-13322786D02*
X4583928Y-13308500D01*
X4612500Y-13294214D01*
X4655357Y-13294214D01*
X4683928Y-13308500D01*
X4698214Y-13337071D01*
X4698214Y-13494214D01*
X4698214Y-13337071D02*
X4712500Y-13308500D01*
X4741071Y-13294214D01*
X4783928Y-13294214D01*
X4812500Y-13308500D01*
X4826786Y-13337071D01*
X4826786Y-13494214D01*
X4969643Y-13494214D02*
X4969643Y-13294214D01*
X4969643Y-13322786D02*
X4983928Y-13308500D01*
X5012500Y-13294214D01*
X5055357Y-13294214D01*
X5083928Y-13308500D01*
X5098214Y-13337071D01*
X5098214Y-13494214D01*
X5098214Y-13337071D02*
X5112500Y-13308500D01*
X5141071Y-13294214D01*
X5183928Y-13294214D01*
X5212500Y-13308500D01*
X5226786Y-13337071D01*
X5226786Y-13494214D01*
X5812500Y-13179929D02*
X5555357Y-13565643D01*
X6198214Y-13194214D02*
X6226786Y-13194214D01*
X6255357Y-13208500D01*
X6269643Y-13222786D01*
X6283928Y-13251357D01*
X6298214Y-13308500D01*
X6298214Y-13379929D01*
X6283928Y-13437071D01*
X6269643Y-13465643D01*
X6255357Y-13479929D01*
X6226786Y-13494214D01*
X6198214Y-13494214D01*
X6169643Y-13479929D01*
X6155357Y-13465643D01*
X6141071Y-13437071D01*
X6126786Y-13379929D01*
X6126786Y-13308500D01*
X6141071Y-13251357D01*
X6155357Y-13222786D01*
X6169643Y-13208500D01*
X6198214Y-13194214D01*
X6426786Y-13465643D02*
X6441071Y-13479929D01*
X6426786Y-13494214D01*
X6412500Y-13479929D01*
X6426786Y-13465643D01*
X6426786Y-13494214D01*
X6626786Y-13194214D02*
X6655357Y-13194214D01*
X6683928Y-13208500D01*
X6698214Y-13222786D01*
X6712500Y-13251357D01*
X6726786Y-13308500D01*
X6726786Y-13379929D01*
X6712500Y-13437071D01*
X6698214Y-13465643D01*
X6683928Y-13479929D01*
X6655357Y-13494214D01*
X6626786Y-13494214D01*
X6598214Y-13479929D01*
X6583928Y-13465643D01*
X6569643Y-13437071D01*
X6555357Y-13379929D01*
X6555357Y-13308500D01*
X6569643Y-13251357D01*
X6583928Y-13222786D01*
X6598214Y-13208500D01*
X6626786Y-13194214D01*
X7012500Y-13494214D02*
X6841071Y-13494214D01*
X6926786Y-13494214D02*
X6926786Y-13194214D01*
X6898214Y-13237071D01*
X6869643Y-13265643D01*
X6841071Y-13279929D01*
X7283928Y-13194214D02*
X7141071Y-13194214D01*
X7126786Y-13337071D01*
X7141071Y-13322786D01*
X7169643Y-13308500D01*
X7241071Y-13308500D01*
X7269643Y-13322786D01*
X7283928Y-13337071D01*
X7298214Y-13365643D01*
X7298214Y-13437071D01*
X7283928Y-13465643D01*
X7269643Y-13479929D01*
X7241071Y-13494214D01*
X7169643Y-13494214D01*
X7141071Y-13479929D01*
X7126786Y-13465643D01*
X7398214Y-13194214D02*
X7598214Y-13194214D01*
X7469643Y-13494214D01*
X7698214Y-13194214D02*
X7698214Y-13251357D01*
X7812500Y-13194214D02*
X7812500Y-13251357D01*
X8255357Y-13608500D02*
X8241071Y-13594214D01*
X8212500Y-13551357D01*
X8198214Y-13522786D01*
X8183928Y-13479929D01*
X8169643Y-13408500D01*
X8169643Y-13351357D01*
X8183928Y-13279929D01*
X8198214Y-13237071D01*
X8212500Y-13208500D01*
X8241071Y-13165643D01*
X8255357Y-13151357D01*
X8526786Y-13494214D02*
X8355357Y-13494214D01*
X8441071Y-13494214D02*
X8441071Y-13194214D01*
X8412500Y-13237071D01*
X8383928Y-13265643D01*
X8355357Y-13279929D01*
X8883928Y-13494214D02*
X8883928Y-13194214D01*
X9012500Y-13494214D02*
X9012500Y-13337071D01*
X8998214Y-13308500D01*
X8969643Y-13294214D01*
X8926786Y-13294214D01*
X8898214Y-13308500D01*
X8883928Y-13322786D01*
X9198214Y-13494214D02*
X9169643Y-13479929D01*
X9155357Y-13465643D01*
X9141071Y-13437071D01*
X9141071Y-13351357D01*
X9155357Y-13322786D01*
X9169643Y-13308500D01*
X9198214Y-13294214D01*
X9241071Y-13294214D01*
X9269643Y-13308500D01*
X9283928Y-13322786D01*
X9298214Y-13351357D01*
X9298214Y-13437071D01*
X9283928Y-13465643D01*
X9269643Y-13479929D01*
X9241071Y-13494214D01*
X9198214Y-13494214D01*
X9469643Y-13494214D02*
X9441071Y-13479929D01*
X9426786Y-13451357D01*
X9426786Y-13194214D01*
X9698214Y-13479929D02*
X9669643Y-13494214D01*
X9612500Y-13494214D01*
X9583928Y-13479929D01*
X9569643Y-13451357D01*
X9569643Y-13337071D01*
X9583928Y-13308500D01*
X9612500Y-13294214D01*
X9669643Y-13294214D01*
X9698214Y-13308500D01*
X9712500Y-13337071D01*
X9712500Y-13365643D01*
X9569643Y-13394214D01*
X9812500Y-13608500D02*
X9826786Y-13594214D01*
X9855357Y-13551357D01*
X9869643Y-13522786D01*
X9883928Y-13479929D01*
X9898214Y-13408500D01*
X9898214Y-13351357D01*
X9883928Y-13279929D01*
X9869643Y-13237071D01*
X9855357Y-13208500D01*
X9826786Y-13165643D01*
X9812500Y-13151357D01*
X2972500Y-13729500D02*
X2972500Y-13779500D01*
X2947500Y-13754500D02*
X2997500Y-13754500D01*
X3341071Y-13590214D02*
X3369643Y-13590214D01*
X3398214Y-13604500D01*
X3412500Y-13618786D01*
X3426786Y-13647357D01*
X3441071Y-13704500D01*
X3441071Y-13775929D01*
X3426786Y-13833071D01*
X3412500Y-13861643D01*
X3398214Y-13875929D01*
X3369643Y-13890214D01*
X3341071Y-13890214D01*
X3312500Y-13875929D01*
X3298214Y-13861643D01*
X3283928Y-13833071D01*
X3269643Y-13775929D01*
X3269643Y-13704500D01*
X3283928Y-13647357D01*
X3298214Y-13618786D01*
X3312500Y-13604500D01*
X3341071Y-13590214D01*
X3569643Y-13861643D02*
X3583928Y-13875929D01*
X3569643Y-13890214D01*
X3555357Y-13875929D01*
X3569643Y-13861643D01*
X3569643Y-13890214D01*
X3855357Y-13590214D02*
X3712500Y-13590214D01*
X3698214Y-13733071D01*
X3712500Y-13718786D01*
X3741071Y-13704500D01*
X3812500Y-13704500D01*
X3841071Y-13718786D01*
X3855357Y-13733071D01*
X3869643Y-13761643D01*
X3869643Y-13833071D01*
X3855357Y-13861643D01*
X3841071Y-13875929D01*
X3812500Y-13890214D01*
X3741071Y-13890214D01*
X3712500Y-13875929D01*
X3698214Y-13861643D01*
X4055357Y-13590214D02*
X4083928Y-13590214D01*
X4112500Y-13604500D01*
X4126786Y-13618786D01*
X4141071Y-13647357D01*
X4155357Y-13704500D01*
X4155357Y-13775929D01*
X4141071Y-13833071D01*
X4126786Y-13861643D01*
X4112500Y-13875929D01*
X4083928Y-13890214D01*
X4055357Y-13890214D01*
X4026786Y-13875929D01*
X4012500Y-13861643D01*
X3998214Y-13833071D01*
X3983928Y-13775929D01*
X3983928Y-13704500D01*
X3998214Y-13647357D01*
X4012500Y-13618786D01*
X4026786Y-13604500D01*
X4055357Y-13590214D01*
X4341071Y-13590214D02*
X4369643Y-13590214D01*
X4398214Y-13604500D01*
X4412500Y-13618786D01*
X4426786Y-13647357D01*
X4441071Y-13704500D01*
X4441071Y-13775929D01*
X4426786Y-13833071D01*
X4412500Y-13861643D01*
X4398214Y-13875929D01*
X4369643Y-13890214D01*
X4341071Y-13890214D01*
X4312500Y-13875929D01*
X4298214Y-13861643D01*
X4283928Y-13833071D01*
X4269643Y-13775929D01*
X4269643Y-13704500D01*
X4283928Y-13647357D01*
X4298214Y-13618786D01*
X4312500Y-13604500D01*
X4341071Y-13590214D01*
X4569643Y-13890214D02*
X4569643Y-13690214D01*
X4569643Y-13718786D02*
X4583928Y-13704500D01*
X4612500Y-13690214D01*
X4655357Y-13690214D01*
X4683928Y-13704500D01*
X4698214Y-13733071D01*
X4698214Y-13890214D01*
X4698214Y-13733071D02*
X4712500Y-13704500D01*
X4741071Y-13690214D01*
X4783928Y-13690214D01*
X4812500Y-13704500D01*
X4826786Y-13733071D01*
X4826786Y-13890214D01*
X4969643Y-13890214D02*
X4969643Y-13690214D01*
X4969643Y-13718786D02*
X4983928Y-13704500D01*
X5012500Y-13690214D01*
X5055357Y-13690214D01*
X5083928Y-13704500D01*
X5098214Y-13733071D01*
X5098214Y-13890214D01*
X5098214Y-13733071D02*
X5112500Y-13704500D01*
X5141071Y-13690214D01*
X5183928Y-13690214D01*
X5212500Y-13704500D01*
X5226786Y-13733071D01*
X5226786Y-13890214D01*
X5812500Y-13575929D02*
X5555357Y-13961643D01*
X6198214Y-13590214D02*
X6226786Y-13590214D01*
X6255357Y-13604500D01*
X6269643Y-13618786D01*
X6283928Y-13647357D01*
X6298214Y-13704500D01*
X6298214Y-13775929D01*
X6283928Y-13833071D01*
X6269643Y-13861643D01*
X6255357Y-13875929D01*
X6226786Y-13890214D01*
X6198214Y-13890214D01*
X6169643Y-13875929D01*
X6155357Y-13861643D01*
X6141071Y-13833071D01*
X6126786Y-13775929D01*
X6126786Y-13704500D01*
X6141071Y-13647357D01*
X6155357Y-13618786D01*
X6169643Y-13604500D01*
X6198214Y-13590214D01*
X6426786Y-13861643D02*
X6441071Y-13875929D01*
X6426786Y-13890214D01*
X6412500Y-13875929D01*
X6426786Y-13861643D01*
X6426786Y-13890214D01*
X6626786Y-13590214D02*
X6655357Y-13590214D01*
X6683928Y-13604500D01*
X6698214Y-13618786D01*
X6712500Y-13647357D01*
X6726786Y-13704500D01*
X6726786Y-13775929D01*
X6712500Y-13833071D01*
X6698214Y-13861643D01*
X6683928Y-13875929D01*
X6655357Y-13890214D01*
X6626786Y-13890214D01*
X6598214Y-13875929D01*
X6583928Y-13861643D01*
X6569643Y-13833071D01*
X6555357Y-13775929D01*
X6555357Y-13704500D01*
X6569643Y-13647357D01*
X6583928Y-13618786D01*
X6598214Y-13604500D01*
X6626786Y-13590214D01*
X7012500Y-13890214D02*
X6841071Y-13890214D01*
X6926786Y-13890214D02*
X6926786Y-13590214D01*
X6898214Y-13633071D01*
X6869643Y-13661643D01*
X6841071Y-13675929D01*
X7155357Y-13890214D02*
X7212500Y-13890214D01*
X7241071Y-13875929D01*
X7255357Y-13861643D01*
X7283928Y-13818786D01*
X7298214Y-13761643D01*
X7298214Y-13647357D01*
X7283928Y-13618786D01*
X7269643Y-13604500D01*
X7241071Y-13590214D01*
X7183928Y-13590214D01*
X7155357Y-13604500D01*
X7141071Y-13618786D01*
X7126786Y-13647357D01*
X7126786Y-13718786D01*
X7141071Y-13747357D01*
X7155357Y-13761643D01*
X7183928Y-13775929D01*
X7241071Y-13775929D01*
X7269643Y-13761643D01*
X7283928Y-13747357D01*
X7298214Y-13718786D01*
X7398214Y-13590214D02*
X7598214Y-13590214D01*
X7469643Y-13890214D01*
X7698214Y-13590214D02*
X7698214Y-13647357D01*
X7812500Y-13590214D02*
X7812500Y-13647357D01*
X8255357Y-14004500D02*
X8241071Y-13990214D01*
X8212500Y-13947357D01*
X8198214Y-13918786D01*
X8183928Y-13875929D01*
X8169643Y-13804500D01*
X8169643Y-13747357D01*
X8183928Y-13675929D01*
X8198214Y-13633071D01*
X8212500Y-13604500D01*
X8241071Y-13561643D01*
X8255357Y-13547357D01*
X8526786Y-13890214D02*
X8355357Y-13890214D01*
X8441071Y-13890214D02*
X8441071Y-13590214D01*
X8412500Y-13633071D01*
X8383928Y-13661643D01*
X8355357Y-13675929D01*
X8883928Y-13890214D02*
X8883928Y-13590214D01*
X9012500Y-13890214D02*
X9012500Y-13733071D01*
X8998214Y-13704500D01*
X8969643Y-13690214D01*
X8926786Y-13690214D01*
X8898214Y-13704500D01*
X8883928Y-13718786D01*
X9198214Y-13890214D02*
X9169643Y-13875929D01*
X9155357Y-13861643D01*
X9141071Y-13833071D01*
X9141071Y-13747357D01*
X9155357Y-13718786D01*
X9169643Y-13704500D01*
X9198214Y-13690214D01*
X9241071Y-13690214D01*
X9269643Y-13704500D01*
X9283928Y-13718786D01*
X9298214Y-13747357D01*
X9298214Y-13833071D01*
X9283928Y-13861643D01*
X9269643Y-13875929D01*
X9241071Y-13890214D01*
X9198214Y-13890214D01*
X9469643Y-13890214D02*
X9441071Y-13875929D01*
X9426786Y-13847357D01*
X9426786Y-13590214D01*
X9698214Y-13875929D02*
X9669643Y-13890214D01*
X9612500Y-13890214D01*
X9583928Y-13875929D01*
X9569643Y-13847357D01*
X9569643Y-13733071D01*
X9583928Y-13704500D01*
X9612500Y-13690214D01*
X9669643Y-13690214D01*
X9698214Y-13704500D01*
X9712500Y-13733071D01*
X9712500Y-13761643D01*
X9569643Y-13790214D01*
X9812500Y-14004500D02*
X9826786Y-13990214D01*
X9855357Y-13947357D01*
X9869643Y-13918786D01*
X9883928Y-13875929D01*
X9898214Y-13804500D01*
X9898214Y-13747357D01*
X9883928Y-13675929D01*
X9869643Y-13633071D01*
X9855357Y-13604500D01*
X9826786Y-13561643D01*
X9812500Y-13547357D01*
X2988713Y-14171713D02*
X2988713Y-14129287D01*
X2946286Y-14129287D01*
X2946286Y-14171713D01*
X2988713Y-14171713D01*
X3341071Y-13986214D02*
X3369643Y-13986214D01*
X3398214Y-14000500D01*
X3412500Y-14014786D01*
X3426786Y-14043357D01*
X3441071Y-14100500D01*
X3441071Y-14171929D01*
X3426786Y-14229071D01*
X3412500Y-14257643D01*
X3398214Y-14271929D01*
X3369643Y-14286214D01*
X3341071Y-14286214D01*
X3312500Y-14271929D01*
X3298214Y-14257643D01*
X3283928Y-14229071D01*
X3269643Y-14171929D01*
X3269643Y-14100500D01*
X3283928Y-14043357D01*
X3298214Y-14014786D01*
X3312500Y-14000500D01*
X3341071Y-13986214D01*
X3569643Y-14257643D02*
X3583928Y-14271929D01*
X3569643Y-14286214D01*
X3555357Y-14271929D01*
X3569643Y-14257643D01*
X3569643Y-14286214D01*
X3841071Y-13986214D02*
X3783928Y-13986214D01*
X3755357Y-14000500D01*
X3741071Y-14014786D01*
X3712500Y-14057643D01*
X3698214Y-14114786D01*
X3698214Y-14229071D01*
X3712500Y-14257643D01*
X3726786Y-14271929D01*
X3755357Y-14286214D01*
X3812500Y-14286214D01*
X3841071Y-14271929D01*
X3855357Y-14257643D01*
X3869643Y-14229071D01*
X3869643Y-14157643D01*
X3855357Y-14129071D01*
X3841071Y-14114786D01*
X3812500Y-14100500D01*
X3755357Y-14100500D01*
X3726786Y-14114786D01*
X3712500Y-14129071D01*
X3698214Y-14157643D01*
X4055357Y-13986214D02*
X4083928Y-13986214D01*
X4112500Y-14000500D01*
X4126786Y-14014786D01*
X4141071Y-14043357D01*
X4155357Y-14100500D01*
X4155357Y-14171929D01*
X4141071Y-14229071D01*
X4126786Y-14257643D01*
X4112500Y-14271929D01*
X4083928Y-14286214D01*
X4055357Y-14286214D01*
X4026786Y-14271929D01*
X4012500Y-14257643D01*
X3998214Y-14229071D01*
X3983928Y-14171929D01*
X3983928Y-14100500D01*
X3998214Y-14043357D01*
X4012500Y-14014786D01*
X4026786Y-14000500D01*
X4055357Y-13986214D01*
X4341071Y-13986214D02*
X4369643Y-13986214D01*
X4398214Y-14000500D01*
X4412500Y-14014786D01*
X4426786Y-14043357D01*
X4441071Y-14100500D01*
X4441071Y-14171929D01*
X4426786Y-14229071D01*
X4412500Y-14257643D01*
X4398214Y-14271929D01*
X4369643Y-14286214D01*
X4341071Y-14286214D01*
X4312500Y-14271929D01*
X4298214Y-14257643D01*
X4283928Y-14229071D01*
X4269643Y-14171929D01*
X4269643Y-14100500D01*
X4283928Y-14043357D01*
X4298214Y-14014786D01*
X4312500Y-14000500D01*
X4341071Y-13986214D01*
X4569643Y-14286214D02*
X4569643Y-14086214D01*
X4569643Y-14114786D02*
X4583928Y-14100500D01*
X4612500Y-14086214D01*
X4655357Y-14086214D01*
X4683928Y-14100500D01*
X4698214Y-14129071D01*
X4698214Y-14286214D01*
X4698214Y-14129071D02*
X4712500Y-14100500D01*
X4741071Y-14086214D01*
X4783928Y-14086214D01*
X4812500Y-14100500D01*
X4826786Y-14129071D01*
X4826786Y-14286214D01*
X4969643Y-14286214D02*
X4969643Y-14086214D01*
X4969643Y-14114786D02*
X4983928Y-14100500D01*
X5012500Y-14086214D01*
X5055357Y-14086214D01*
X5083928Y-14100500D01*
X5098214Y-14129071D01*
X5098214Y-14286214D01*
X5098214Y-14129071D02*
X5112500Y-14100500D01*
X5141071Y-14086214D01*
X5183928Y-14086214D01*
X5212500Y-14100500D01*
X5226786Y-14129071D01*
X5226786Y-14286214D01*
X5812500Y-13971929D02*
X5555357Y-14357643D01*
X6198214Y-13986214D02*
X6226786Y-13986214D01*
X6255357Y-14000500D01*
X6269643Y-14014786D01*
X6283928Y-14043357D01*
X6298214Y-14100500D01*
X6298214Y-14171929D01*
X6283928Y-14229071D01*
X6269643Y-14257643D01*
X6255357Y-14271929D01*
X6226786Y-14286214D01*
X6198214Y-14286214D01*
X6169643Y-14271929D01*
X6155357Y-14257643D01*
X6141071Y-14229071D01*
X6126786Y-14171929D01*
X6126786Y-14100500D01*
X6141071Y-14043357D01*
X6155357Y-14014786D01*
X6169643Y-14000500D01*
X6198214Y-13986214D01*
X6426786Y-14257643D02*
X6441071Y-14271929D01*
X6426786Y-14286214D01*
X6412500Y-14271929D01*
X6426786Y-14257643D01*
X6426786Y-14286214D01*
X6626786Y-13986214D02*
X6655357Y-13986214D01*
X6683928Y-14000500D01*
X6698214Y-14014786D01*
X6712500Y-14043357D01*
X6726786Y-14100500D01*
X6726786Y-14171929D01*
X6712500Y-14229071D01*
X6698214Y-14257643D01*
X6683928Y-14271929D01*
X6655357Y-14286214D01*
X6626786Y-14286214D01*
X6598214Y-14271929D01*
X6583928Y-14257643D01*
X6569643Y-14229071D01*
X6555357Y-14171929D01*
X6555357Y-14100500D01*
X6569643Y-14043357D01*
X6583928Y-14014786D01*
X6598214Y-14000500D01*
X6626786Y-13986214D01*
X6841071Y-14014786D02*
X6855357Y-14000500D01*
X6883928Y-13986214D01*
X6955357Y-13986214D01*
X6983928Y-14000500D01*
X6998214Y-14014786D01*
X7012500Y-14043357D01*
X7012500Y-14071929D01*
X6998214Y-14114786D01*
X6826786Y-14286214D01*
X7012500Y-14286214D01*
X7112500Y-13986214D02*
X7298214Y-13986214D01*
X7198214Y-14100500D01*
X7241071Y-14100500D01*
X7269643Y-14114786D01*
X7283928Y-14129071D01*
X7298214Y-14157643D01*
X7298214Y-14229071D01*
X7283928Y-14257643D01*
X7269643Y-14271929D01*
X7241071Y-14286214D01*
X7155357Y-14286214D01*
X7126786Y-14271929D01*
X7112500Y-14257643D01*
X7555357Y-13986214D02*
X7498214Y-13986214D01*
X7469643Y-14000500D01*
X7455357Y-14014786D01*
X7426786Y-14057643D01*
X7412500Y-14114786D01*
X7412500Y-14229071D01*
X7426786Y-14257643D01*
X7441071Y-14271929D01*
X7469643Y-14286214D01*
X7526786Y-14286214D01*
X7555357Y-14271929D01*
X7569643Y-14257643D01*
X7583928Y-14229071D01*
X7583928Y-14157643D01*
X7569643Y-14129071D01*
X7555357Y-14114786D01*
X7526786Y-14100500D01*
X7469643Y-14100500D01*
X7441071Y-14114786D01*
X7426786Y-14129071D01*
X7412500Y-14157643D01*
X7698214Y-13986214D02*
X7698214Y-14043357D01*
X7812500Y-13986214D02*
X7812500Y-14043357D01*
X8255357Y-14400500D02*
X8241071Y-14386214D01*
X8212500Y-14343357D01*
X8198214Y-14314786D01*
X8183928Y-14271929D01*
X8169643Y-14200500D01*
X8169643Y-14143357D01*
X8183928Y-14071929D01*
X8198214Y-14029071D01*
X8212500Y-14000500D01*
X8241071Y-13957643D01*
X8255357Y-13943357D01*
X8526786Y-14286214D02*
X8355357Y-14286214D01*
X8441071Y-14286214D02*
X8441071Y-13986214D01*
X8412500Y-14029071D01*
X8383928Y-14057643D01*
X8355357Y-14071929D01*
X8883928Y-14286214D02*
X8883928Y-13986214D01*
X9012500Y-14286214D02*
X9012500Y-14129071D01*
X8998214Y-14100500D01*
X8969643Y-14086214D01*
X8926786Y-14086214D01*
X8898214Y-14100500D01*
X8883928Y-14114786D01*
X9198214Y-14286214D02*
X9169643Y-14271929D01*
X9155357Y-14257643D01*
X9141071Y-14229071D01*
X9141071Y-14143357D01*
X9155357Y-14114786D01*
X9169643Y-14100500D01*
X9198214Y-14086214D01*
X9241071Y-14086214D01*
X9269643Y-14100500D01*
X9283928Y-14114786D01*
X9298214Y-14143357D01*
X9298214Y-14229071D01*
X9283928Y-14257643D01*
X9269643Y-14271929D01*
X9241071Y-14286214D01*
X9198214Y-14286214D01*
X9469643Y-14286214D02*
X9441071Y-14271929D01*
X9426786Y-14243357D01*
X9426786Y-13986214D01*
X9698214Y-14271929D02*
X9669643Y-14286214D01*
X9612500Y-14286214D01*
X9583928Y-14271929D01*
X9569643Y-14243357D01*
X9569643Y-14129071D01*
X9583928Y-14100500D01*
X9612500Y-14086214D01*
X9669643Y-14086214D01*
X9698214Y-14100500D01*
X9712500Y-14129071D01*
X9712500Y-14157643D01*
X9569643Y-14186214D01*
X9812500Y-14400500D02*
X9826786Y-14386214D01*
X9855357Y-14343357D01*
X9869643Y-14314786D01*
X9883928Y-14271929D01*
X9898214Y-14200500D01*
X9898214Y-14143357D01*
X9883928Y-14071929D01*
X9869643Y-14029071D01*
X9855357Y-14000500D01*
X9826786Y-13957643D01*
X9812500Y-13943357D01*
X2962500Y-14581500D02*
X2997500Y-14546500D01*
X2962500Y-14511500D01*
X2927500Y-14546500D01*
X2962500Y-14581500D01*
X3341071Y-14382214D02*
X3369643Y-14382214D01*
X3398214Y-14396500D01*
X3412500Y-14410786D01*
X3426786Y-14439357D01*
X3441071Y-14496500D01*
X3441071Y-14567929D01*
X3426786Y-14625071D01*
X3412500Y-14653643D01*
X3398214Y-14667929D01*
X3369643Y-14682214D01*
X3341071Y-14682214D01*
X3312500Y-14667929D01*
X3298214Y-14653643D01*
X3283928Y-14625071D01*
X3269643Y-14567929D01*
X3269643Y-14496500D01*
X3283928Y-14439357D01*
X3298214Y-14410786D01*
X3312500Y-14396500D01*
X3341071Y-14382214D01*
X3569643Y-14653643D02*
X3583928Y-14667929D01*
X3569643Y-14682214D01*
X3555357Y-14667929D01*
X3569643Y-14653643D01*
X3569643Y-14682214D01*
X3683928Y-14382214D02*
X3883928Y-14382214D01*
X3755357Y-14682214D01*
X4055357Y-14382214D02*
X4083928Y-14382214D01*
X4112500Y-14396500D01*
X4126786Y-14410786D01*
X4141071Y-14439357D01*
X4155357Y-14496500D01*
X4155357Y-14567929D01*
X4141071Y-14625071D01*
X4126786Y-14653643D01*
X4112500Y-14667929D01*
X4083928Y-14682214D01*
X4055357Y-14682214D01*
X4026786Y-14667929D01*
X4012500Y-14653643D01*
X3998214Y-14625071D01*
X3983928Y-14567929D01*
X3983928Y-14496500D01*
X3998214Y-14439357D01*
X4012500Y-14410786D01*
X4026786Y-14396500D01*
X4055357Y-14382214D01*
X4341071Y-14382214D02*
X4369643Y-14382214D01*
X4398214Y-14396500D01*
X4412500Y-14410786D01*
X4426786Y-14439357D01*
X4441071Y-14496500D01*
X4441071Y-14567929D01*
X4426786Y-14625071D01*
X4412500Y-14653643D01*
X4398214Y-14667929D01*
X4369643Y-14682214D01*
X4341071Y-14682214D01*
X4312500Y-14667929D01*
X4298214Y-14653643D01*
X4283928Y-14625071D01*
X4269643Y-14567929D01*
X4269643Y-14496500D01*
X4283928Y-14439357D01*
X4298214Y-14410786D01*
X4312500Y-14396500D01*
X4341071Y-14382214D01*
X4569643Y-14682214D02*
X4569643Y-14482214D01*
X4569643Y-14510786D02*
X4583928Y-14496500D01*
X4612500Y-14482214D01*
X4655357Y-14482214D01*
X4683928Y-14496500D01*
X4698214Y-14525071D01*
X4698214Y-14682214D01*
X4698214Y-14525071D02*
X4712500Y-14496500D01*
X4741071Y-14482214D01*
X4783928Y-14482214D01*
X4812500Y-14496500D01*
X4826786Y-14525071D01*
X4826786Y-14682214D01*
X4969643Y-14682214D02*
X4969643Y-14482214D01*
X4969643Y-14510786D02*
X4983928Y-14496500D01*
X5012500Y-14482214D01*
X5055357Y-14482214D01*
X5083928Y-14496500D01*
X5098214Y-14525071D01*
X5098214Y-14682214D01*
X5098214Y-14525071D02*
X5112500Y-14496500D01*
X5141071Y-14482214D01*
X5183928Y-14482214D01*
X5212500Y-14496500D01*
X5226786Y-14525071D01*
X5226786Y-14682214D01*
X5812500Y-14367929D02*
X5555357Y-14753643D01*
X6198214Y-14382214D02*
X6226786Y-14382214D01*
X6255357Y-14396500D01*
X6269643Y-14410786D01*
X6283928Y-14439357D01*
X6298214Y-14496500D01*
X6298214Y-14567929D01*
X6283928Y-14625071D01*
X6269643Y-14653643D01*
X6255357Y-14667929D01*
X6226786Y-14682214D01*
X6198214Y-14682214D01*
X6169643Y-14667929D01*
X6155357Y-14653643D01*
X6141071Y-14625071D01*
X6126786Y-14567929D01*
X6126786Y-14496500D01*
X6141071Y-14439357D01*
X6155357Y-14410786D01*
X6169643Y-14396500D01*
X6198214Y-14382214D01*
X6426786Y-14653643D02*
X6441071Y-14667929D01*
X6426786Y-14682214D01*
X6412500Y-14667929D01*
X6426786Y-14653643D01*
X6426786Y-14682214D01*
X6626786Y-14382214D02*
X6655357Y-14382214D01*
X6683928Y-14396500D01*
X6698214Y-14410786D01*
X6712500Y-14439357D01*
X6726786Y-14496500D01*
X6726786Y-14567929D01*
X6712500Y-14625071D01*
X6698214Y-14653643D01*
X6683928Y-14667929D01*
X6655357Y-14682214D01*
X6626786Y-14682214D01*
X6598214Y-14667929D01*
X6583928Y-14653643D01*
X6569643Y-14625071D01*
X6555357Y-14567929D01*
X6555357Y-14496500D01*
X6569643Y-14439357D01*
X6583928Y-14410786D01*
X6598214Y-14396500D01*
X6626786Y-14382214D01*
X6841071Y-14410786D02*
X6855357Y-14396500D01*
X6883928Y-14382214D01*
X6955357Y-14382214D01*
X6983928Y-14396500D01*
X6998214Y-14410786D01*
X7012500Y-14439357D01*
X7012500Y-14467929D01*
X6998214Y-14510786D01*
X6826786Y-14682214D01*
X7012500Y-14682214D01*
X7112500Y-14382214D02*
X7312500Y-14382214D01*
X7183928Y-14682214D01*
X7555357Y-14382214D02*
X7498214Y-14382214D01*
X7469643Y-14396500D01*
X7455357Y-14410786D01*
X7426786Y-14453643D01*
X7412500Y-14510786D01*
X7412500Y-14625071D01*
X7426786Y-14653643D01*
X7441071Y-14667929D01*
X7469643Y-14682214D01*
X7526786Y-14682214D01*
X7555357Y-14667929D01*
X7569643Y-14653643D01*
X7583928Y-14625071D01*
X7583928Y-14553643D01*
X7569643Y-14525071D01*
X7555357Y-14510786D01*
X7526786Y-14496500D01*
X7469643Y-14496500D01*
X7441071Y-14510786D01*
X7426786Y-14525071D01*
X7412500Y-14553643D01*
X7698214Y-14382214D02*
X7698214Y-14439357D01*
X7812500Y-14382214D02*
X7812500Y-14439357D01*
X8255357Y-14796500D02*
X8241071Y-14782214D01*
X8212500Y-14739357D01*
X8198214Y-14710786D01*
X8183928Y-14667929D01*
X8169643Y-14596500D01*
X8169643Y-14539357D01*
X8183928Y-14467929D01*
X8198214Y-14425071D01*
X8212500Y-14396500D01*
X8241071Y-14353643D01*
X8255357Y-14339357D01*
X8526786Y-14682214D02*
X8355357Y-14682214D01*
X8441071Y-14682214D02*
X8441071Y-14382214D01*
X8412500Y-14425071D01*
X8383928Y-14453643D01*
X8355357Y-14467929D01*
X8883928Y-14682214D02*
X8883928Y-14382214D01*
X9012500Y-14682214D02*
X9012500Y-14525071D01*
X8998214Y-14496500D01*
X8969643Y-14482214D01*
X8926786Y-14482214D01*
X8898214Y-14496500D01*
X8883928Y-14510786D01*
X9198214Y-14682214D02*
X9169643Y-14667929D01*
X9155357Y-14653643D01*
X9141071Y-14625071D01*
X9141071Y-14539357D01*
X9155357Y-14510786D01*
X9169643Y-14496500D01*
X9198214Y-14482214D01*
X9241071Y-14482214D01*
X9269643Y-14496500D01*
X9283928Y-14510786D01*
X9298214Y-14539357D01*
X9298214Y-14625071D01*
X9283928Y-14653643D01*
X9269643Y-14667929D01*
X9241071Y-14682214D01*
X9198214Y-14682214D01*
X9469643Y-14682214D02*
X9441071Y-14667929D01*
X9426786Y-14639357D01*
X9426786Y-14382214D01*
X9698214Y-14667929D02*
X9669643Y-14682214D01*
X9612500Y-14682214D01*
X9583928Y-14667929D01*
X9569643Y-14639357D01*
X9569643Y-14525071D01*
X9583928Y-14496500D01*
X9612500Y-14482214D01*
X9669643Y-14482214D01*
X9698214Y-14496500D01*
X9712500Y-14525071D01*
X9712500Y-14553643D01*
X9569643Y-14582214D01*
X9812500Y-14796500D02*
X9826786Y-14782214D01*
X9855357Y-14739357D01*
X9869643Y-14710786D01*
X9883928Y-14667929D01*
X9898214Y-14596500D01*
X9898214Y-14539357D01*
X9883928Y-14467929D01*
X9869643Y-14425071D01*
X9855357Y-14396500D01*
X9826786Y-14353643D01*
X9812500Y-14339357D01*
X2917500Y-14902500D02*
X2997500Y-14982500D01*
X2997500Y-14902500D02*
X2917500Y-14982500D01*
X2997500Y-14942500D02*
G75*
G03*
X2997500Y-14942500I-40000J0D01*
G01*
X3341071Y-14778214D02*
X3369643Y-14778214D01*
X3398214Y-14792500D01*
X3412500Y-14806786D01*
X3426786Y-14835357D01*
X3441071Y-14892500D01*
X3441071Y-14963929D01*
X3426786Y-15021071D01*
X3412500Y-15049643D01*
X3398214Y-15063929D01*
X3369643Y-15078214D01*
X3341071Y-15078214D01*
X3312500Y-15063929D01*
X3298214Y-15049643D01*
X3283928Y-15021071D01*
X3269643Y-14963929D01*
X3269643Y-14892500D01*
X3283928Y-14835357D01*
X3298214Y-14806786D01*
X3312500Y-14792500D01*
X3341071Y-14778214D01*
X3569643Y-15049643D02*
X3583928Y-15063929D01*
X3569643Y-15078214D01*
X3555357Y-15063929D01*
X3569643Y-15049643D01*
X3569643Y-15078214D01*
X3755357Y-14906786D02*
X3726786Y-14892500D01*
X3712500Y-14878214D01*
X3698214Y-14849643D01*
X3698214Y-14835357D01*
X3712500Y-14806786D01*
X3726786Y-14792500D01*
X3755357Y-14778214D01*
X3812500Y-14778214D01*
X3841071Y-14792500D01*
X3855357Y-14806786D01*
X3869643Y-14835357D01*
X3869643Y-14849643D01*
X3855357Y-14878214D01*
X3841071Y-14892500D01*
X3812500Y-14906786D01*
X3755357Y-14906786D01*
X3726786Y-14921071D01*
X3712500Y-14935357D01*
X3698214Y-14963929D01*
X3698214Y-15021071D01*
X3712500Y-15049643D01*
X3726786Y-15063929D01*
X3755357Y-15078214D01*
X3812500Y-15078214D01*
X3841071Y-15063929D01*
X3855357Y-15049643D01*
X3869643Y-15021071D01*
X3869643Y-14963929D01*
X3855357Y-14935357D01*
X3841071Y-14921071D01*
X3812500Y-14906786D01*
X4055357Y-14778214D02*
X4083928Y-14778214D01*
X4112500Y-14792500D01*
X4126786Y-14806786D01*
X4141071Y-14835357D01*
X4155357Y-14892500D01*
X4155357Y-14963929D01*
X4141071Y-15021071D01*
X4126786Y-15049643D01*
X4112500Y-15063929D01*
X4083928Y-15078214D01*
X4055357Y-15078214D01*
X4026786Y-15063929D01*
X4012500Y-15049643D01*
X3998214Y-15021071D01*
X3983928Y-14963929D01*
X3983928Y-14892500D01*
X3998214Y-14835357D01*
X4012500Y-14806786D01*
X4026786Y-14792500D01*
X4055357Y-14778214D01*
X4341071Y-14778214D02*
X4369643Y-14778214D01*
X4398214Y-14792500D01*
X4412500Y-14806786D01*
X4426786Y-14835357D01*
X4441071Y-14892500D01*
X4441071Y-14963929D01*
X4426786Y-15021071D01*
X4412500Y-15049643D01*
X4398214Y-15063929D01*
X4369643Y-15078214D01*
X4341071Y-15078214D01*
X4312500Y-15063929D01*
X4298214Y-15049643D01*
X4283928Y-15021071D01*
X4269643Y-14963929D01*
X4269643Y-14892500D01*
X4283928Y-14835357D01*
X4298214Y-14806786D01*
X4312500Y-14792500D01*
X4341071Y-14778214D01*
X4569643Y-15078214D02*
X4569643Y-14878214D01*
X4569643Y-14906786D02*
X4583928Y-14892500D01*
X4612500Y-14878214D01*
X4655357Y-14878214D01*
X4683928Y-14892500D01*
X4698214Y-14921071D01*
X4698214Y-15078214D01*
X4698214Y-14921071D02*
X4712500Y-14892500D01*
X4741071Y-14878214D01*
X4783928Y-14878214D01*
X4812500Y-14892500D01*
X4826786Y-14921071D01*
X4826786Y-15078214D01*
X4969643Y-15078214D02*
X4969643Y-14878214D01*
X4969643Y-14906786D02*
X4983928Y-14892500D01*
X5012500Y-14878214D01*
X5055357Y-14878214D01*
X5083928Y-14892500D01*
X5098214Y-14921071D01*
X5098214Y-15078214D01*
X5098214Y-14921071D02*
X5112500Y-14892500D01*
X5141071Y-14878214D01*
X5183928Y-14878214D01*
X5212500Y-14892500D01*
X5226786Y-14921071D01*
X5226786Y-15078214D01*
X5812500Y-14763929D02*
X5555357Y-15149643D01*
X6198214Y-14778214D02*
X6226786Y-14778214D01*
X6255357Y-14792500D01*
X6269643Y-14806786D01*
X6283928Y-14835357D01*
X6298214Y-14892500D01*
X6298214Y-14963929D01*
X6283928Y-15021071D01*
X6269643Y-15049643D01*
X6255357Y-15063929D01*
X6226786Y-15078214D01*
X6198214Y-15078214D01*
X6169643Y-15063929D01*
X6155357Y-15049643D01*
X6141071Y-15021071D01*
X6126786Y-14963929D01*
X6126786Y-14892500D01*
X6141071Y-14835357D01*
X6155357Y-14806786D01*
X6169643Y-14792500D01*
X6198214Y-14778214D01*
X6426786Y-15049643D02*
X6441071Y-15063929D01*
X6426786Y-15078214D01*
X6412500Y-15063929D01*
X6426786Y-15049643D01*
X6426786Y-15078214D01*
X6626786Y-14778214D02*
X6655357Y-14778214D01*
X6683928Y-14792500D01*
X6698214Y-14806786D01*
X6712500Y-14835357D01*
X6726786Y-14892500D01*
X6726786Y-14963929D01*
X6712500Y-15021071D01*
X6698214Y-15049643D01*
X6683928Y-15063929D01*
X6655357Y-15078214D01*
X6626786Y-15078214D01*
X6598214Y-15063929D01*
X6583928Y-15049643D01*
X6569643Y-15021071D01*
X6555357Y-14963929D01*
X6555357Y-14892500D01*
X6569643Y-14835357D01*
X6583928Y-14806786D01*
X6598214Y-14792500D01*
X6626786Y-14778214D01*
X6826786Y-14778214D02*
X7012500Y-14778214D01*
X6912500Y-14892500D01*
X6955357Y-14892500D01*
X6983928Y-14906786D01*
X6998214Y-14921071D01*
X7012500Y-14949643D01*
X7012500Y-15021071D01*
X6998214Y-15049643D01*
X6983928Y-15063929D01*
X6955357Y-15078214D01*
X6869643Y-15078214D01*
X6841071Y-15063929D01*
X6826786Y-15049643D01*
X7298214Y-15078214D02*
X7126786Y-15078214D01*
X7212500Y-15078214D02*
X7212500Y-14778214D01*
X7183928Y-14821071D01*
X7155357Y-14849643D01*
X7126786Y-14863929D01*
X7569643Y-14778214D02*
X7426786Y-14778214D01*
X7412500Y-14921071D01*
X7426786Y-14906786D01*
X7455357Y-14892500D01*
X7526786Y-14892500D01*
X7555357Y-14906786D01*
X7569643Y-14921071D01*
X7583928Y-14949643D01*
X7583928Y-15021071D01*
X7569643Y-15049643D01*
X7555357Y-15063929D01*
X7526786Y-15078214D01*
X7455357Y-15078214D01*
X7426786Y-15063929D01*
X7412500Y-15049643D01*
X7698214Y-14778214D02*
X7698214Y-14835357D01*
X7812500Y-14778214D02*
X7812500Y-14835357D01*
X8255357Y-15192500D02*
X8241071Y-15178214D01*
X8212500Y-15135357D01*
X8198214Y-15106786D01*
X8183928Y-15063929D01*
X8169643Y-14992500D01*
X8169643Y-14935357D01*
X8183928Y-14863929D01*
X8198214Y-14821071D01*
X8212500Y-14792500D01*
X8241071Y-14749643D01*
X8255357Y-14735357D01*
X8526786Y-15078214D02*
X8355357Y-15078214D01*
X8441071Y-15078214D02*
X8441071Y-14778214D01*
X8412500Y-14821071D01*
X8383928Y-14849643D01*
X8355357Y-14863929D01*
X8883928Y-15078214D02*
X8883928Y-14778214D01*
X9012500Y-15078214D02*
X9012500Y-14921071D01*
X8998214Y-14892500D01*
X8969643Y-14878214D01*
X8926786Y-14878214D01*
X8898214Y-14892500D01*
X8883928Y-14906786D01*
X9198214Y-15078214D02*
X9169643Y-15063929D01*
X9155357Y-15049643D01*
X9141071Y-15021071D01*
X9141071Y-14935357D01*
X9155357Y-14906786D01*
X9169643Y-14892500D01*
X9198214Y-14878214D01*
X9241071Y-14878214D01*
X9269643Y-14892500D01*
X9283928Y-14906786D01*
X9298214Y-14935357D01*
X9298214Y-15021071D01*
X9283928Y-15049643D01*
X9269643Y-15063929D01*
X9241071Y-15078214D01*
X9198214Y-15078214D01*
X9469643Y-15078214D02*
X9441071Y-15063929D01*
X9426786Y-15035357D01*
X9426786Y-14778214D01*
X9698214Y-15063929D02*
X9669643Y-15078214D01*
X9612500Y-15078214D01*
X9583928Y-15063929D01*
X9569643Y-15035357D01*
X9569643Y-14921071D01*
X9583928Y-14892500D01*
X9612500Y-14878214D01*
X9669643Y-14878214D01*
X9698214Y-14892500D01*
X9712500Y-14921071D01*
X9712500Y-14949643D01*
X9569643Y-14978214D01*
X9812500Y-15192500D02*
X9826786Y-15178214D01*
X9855357Y-15135357D01*
X9869643Y-15106786D01*
X9883928Y-15063929D01*
X9898214Y-14992500D01*
X9898214Y-14935357D01*
X9883928Y-14863929D01*
X9869643Y-14821071D01*
X9855357Y-14792500D01*
X9826786Y-14749643D01*
X9812500Y-14735357D01*
X2907500Y-15293500D02*
X2997500Y-15383500D01*
X2997500Y-15293500D02*
X2907500Y-15383500D01*
X2952500Y-15293500D02*
X2952500Y-15383500D01*
X2907500Y-15338500D02*
X2997500Y-15338500D01*
X3341071Y-15174214D02*
X3369643Y-15174214D01*
X3398214Y-15188500D01*
X3412500Y-15202786D01*
X3426786Y-15231357D01*
X3441071Y-15288500D01*
X3441071Y-15359929D01*
X3426786Y-15417071D01*
X3412500Y-15445643D01*
X3398214Y-15459929D01*
X3369643Y-15474214D01*
X3341071Y-15474214D01*
X3312500Y-15459929D01*
X3298214Y-15445643D01*
X3283928Y-15417071D01*
X3269643Y-15359929D01*
X3269643Y-15288500D01*
X3283928Y-15231357D01*
X3298214Y-15202786D01*
X3312500Y-15188500D01*
X3341071Y-15174214D01*
X3569643Y-15445643D02*
X3583928Y-15459929D01*
X3569643Y-15474214D01*
X3555357Y-15459929D01*
X3569643Y-15445643D01*
X3569643Y-15474214D01*
X3726786Y-15474214D02*
X3783928Y-15474214D01*
X3812500Y-15459929D01*
X3826786Y-15445643D01*
X3855357Y-15402786D01*
X3869643Y-15345643D01*
X3869643Y-15231357D01*
X3855357Y-15202786D01*
X3841071Y-15188500D01*
X3812500Y-15174214D01*
X3755357Y-15174214D01*
X3726786Y-15188500D01*
X3712500Y-15202786D01*
X3698214Y-15231357D01*
X3698214Y-15302786D01*
X3712500Y-15331357D01*
X3726786Y-15345643D01*
X3755357Y-15359929D01*
X3812500Y-15359929D01*
X3841071Y-15345643D01*
X3855357Y-15331357D01*
X3869643Y-15302786D01*
X4055357Y-15174214D02*
X4083928Y-15174214D01*
X4112500Y-15188500D01*
X4126786Y-15202786D01*
X4141071Y-15231357D01*
X4155357Y-15288500D01*
X4155357Y-15359929D01*
X4141071Y-15417071D01*
X4126786Y-15445643D01*
X4112500Y-15459929D01*
X4083928Y-15474214D01*
X4055357Y-15474214D01*
X4026786Y-15459929D01*
X4012500Y-15445643D01*
X3998214Y-15417071D01*
X3983928Y-15359929D01*
X3983928Y-15288500D01*
X3998214Y-15231357D01*
X4012500Y-15202786D01*
X4026786Y-15188500D01*
X4055357Y-15174214D01*
X4341071Y-15174214D02*
X4369643Y-15174214D01*
X4398214Y-15188500D01*
X4412500Y-15202786D01*
X4426786Y-15231357D01*
X4441071Y-15288500D01*
X4441071Y-15359929D01*
X4426786Y-15417071D01*
X4412500Y-15445643D01*
X4398214Y-15459929D01*
X4369643Y-15474214D01*
X4341071Y-15474214D01*
X4312500Y-15459929D01*
X4298214Y-15445643D01*
X4283928Y-15417071D01*
X4269643Y-15359929D01*
X4269643Y-15288500D01*
X4283928Y-15231357D01*
X4298214Y-15202786D01*
X4312500Y-15188500D01*
X4341071Y-15174214D01*
X4569643Y-15474214D02*
X4569643Y-15274214D01*
X4569643Y-15302786D02*
X4583928Y-15288500D01*
X4612500Y-15274214D01*
X4655357Y-15274214D01*
X4683928Y-15288500D01*
X4698214Y-15317071D01*
X4698214Y-15474214D01*
X4698214Y-15317071D02*
X4712500Y-15288500D01*
X4741071Y-15274214D01*
X4783928Y-15274214D01*
X4812500Y-15288500D01*
X4826786Y-15317071D01*
X4826786Y-15474214D01*
X4969643Y-15474214D02*
X4969643Y-15274214D01*
X4969643Y-15302786D02*
X4983928Y-15288500D01*
X5012500Y-15274214D01*
X5055357Y-15274214D01*
X5083928Y-15288500D01*
X5098214Y-15317071D01*
X5098214Y-15474214D01*
X5098214Y-15317071D02*
X5112500Y-15288500D01*
X5141071Y-15274214D01*
X5183928Y-15274214D01*
X5212500Y-15288500D01*
X5226786Y-15317071D01*
X5226786Y-15474214D01*
X5812500Y-15159929D02*
X5555357Y-15545643D01*
X6198214Y-15174214D02*
X6226786Y-15174214D01*
X6255357Y-15188500D01*
X6269643Y-15202786D01*
X6283928Y-15231357D01*
X6298214Y-15288500D01*
X6298214Y-15359929D01*
X6283928Y-15417071D01*
X6269643Y-15445643D01*
X6255357Y-15459929D01*
X6226786Y-15474214D01*
X6198214Y-15474214D01*
X6169643Y-15459929D01*
X6155357Y-15445643D01*
X6141071Y-15417071D01*
X6126786Y-15359929D01*
X6126786Y-15288500D01*
X6141071Y-15231357D01*
X6155357Y-15202786D01*
X6169643Y-15188500D01*
X6198214Y-15174214D01*
X6426786Y-15445643D02*
X6441071Y-15459929D01*
X6426786Y-15474214D01*
X6412500Y-15459929D01*
X6426786Y-15445643D01*
X6426786Y-15474214D01*
X6626786Y-15174214D02*
X6655357Y-15174214D01*
X6683928Y-15188500D01*
X6698214Y-15202786D01*
X6712500Y-15231357D01*
X6726786Y-15288500D01*
X6726786Y-15359929D01*
X6712500Y-15417071D01*
X6698214Y-15445643D01*
X6683928Y-15459929D01*
X6655357Y-15474214D01*
X6626786Y-15474214D01*
X6598214Y-15459929D01*
X6583928Y-15445643D01*
X6569643Y-15417071D01*
X6555357Y-15359929D01*
X6555357Y-15288500D01*
X6569643Y-15231357D01*
X6583928Y-15202786D01*
X6598214Y-15188500D01*
X6626786Y-15174214D01*
X6826786Y-15174214D02*
X7012500Y-15174214D01*
X6912500Y-15288500D01*
X6955357Y-15288500D01*
X6983928Y-15302786D01*
X6998214Y-15317071D01*
X7012500Y-15345643D01*
X7012500Y-15417071D01*
X6998214Y-15445643D01*
X6983928Y-15459929D01*
X6955357Y-15474214D01*
X6869643Y-15474214D01*
X6841071Y-15459929D01*
X6826786Y-15445643D01*
X7283928Y-15174214D02*
X7141071Y-15174214D01*
X7126786Y-15317071D01*
X7141071Y-15302786D01*
X7169643Y-15288500D01*
X7241071Y-15288500D01*
X7269643Y-15302786D01*
X7283928Y-15317071D01*
X7298214Y-15345643D01*
X7298214Y-15417071D01*
X7283928Y-15445643D01*
X7269643Y-15459929D01*
X7241071Y-15474214D01*
X7169643Y-15474214D01*
X7141071Y-15459929D01*
X7126786Y-15445643D01*
X7555357Y-15274214D02*
X7555357Y-15474214D01*
X7483928Y-15159929D02*
X7412500Y-15374214D01*
X7598214Y-15374214D01*
X7698214Y-15174214D02*
X7698214Y-15231357D01*
X7812500Y-15174214D02*
X7812500Y-15231357D01*
X8255357Y-15588500D02*
X8241071Y-15574214D01*
X8212500Y-15531357D01*
X8198214Y-15502786D01*
X8183928Y-15459929D01*
X8169643Y-15388500D01*
X8169643Y-15331357D01*
X8183928Y-15259929D01*
X8198214Y-15217071D01*
X8212500Y-15188500D01*
X8241071Y-15145643D01*
X8255357Y-15131357D01*
X8526786Y-15474214D02*
X8355357Y-15474214D01*
X8441071Y-15474214D02*
X8441071Y-15174214D01*
X8412500Y-15217071D01*
X8383928Y-15245643D01*
X8355357Y-15259929D01*
X8883928Y-15474214D02*
X8883928Y-15174214D01*
X9012500Y-15474214D02*
X9012500Y-15317071D01*
X8998214Y-15288500D01*
X8969643Y-15274214D01*
X8926786Y-15274214D01*
X8898214Y-15288500D01*
X8883928Y-15302786D01*
X9198214Y-15474214D02*
X9169643Y-15459929D01*
X9155357Y-15445643D01*
X9141071Y-15417071D01*
X9141071Y-15331357D01*
X9155357Y-15302786D01*
X9169643Y-15288500D01*
X9198214Y-15274214D01*
X9241071Y-15274214D01*
X9269643Y-15288500D01*
X9283928Y-15302786D01*
X9298214Y-15331357D01*
X9298214Y-15417071D01*
X9283928Y-15445643D01*
X9269643Y-15459929D01*
X9241071Y-15474214D01*
X9198214Y-15474214D01*
X9469643Y-15474214D02*
X9441071Y-15459929D01*
X9426786Y-15431357D01*
X9426786Y-15174214D01*
X9698214Y-15459929D02*
X9669643Y-15474214D01*
X9612500Y-15474214D01*
X9583928Y-15459929D01*
X9569643Y-15431357D01*
X9569643Y-15317071D01*
X9583928Y-15288500D01*
X9612500Y-15274214D01*
X9669643Y-15274214D01*
X9698214Y-15288500D01*
X9712500Y-15317071D01*
X9712500Y-15345643D01*
X9569643Y-15374214D01*
X9812500Y-15588500D02*
X9826786Y-15574214D01*
X9855357Y-15531357D01*
X9869643Y-15502786D01*
X9883928Y-15459929D01*
X9898214Y-15388500D01*
X9898214Y-15331357D01*
X9883928Y-15259929D01*
X9869643Y-15217071D01*
X9855357Y-15188500D01*
X9826786Y-15145643D01*
X9812500Y-15131357D01*
X2897500Y-15684500D02*
X2997500Y-15784500D01*
X2997500Y-15684500D02*
X2897500Y-15784500D01*
X2982856Y-15769856D02*
X2982856Y-15699144D01*
X2912144Y-15699144D01*
X2912144Y-15769856D01*
X2982856Y-15769856D01*
X3441071Y-15870214D02*
X3269643Y-15870214D01*
X3355357Y-15870214D02*
X3355357Y-15570214D01*
X3326786Y-15613071D01*
X3298214Y-15641643D01*
X3269643Y-15655929D01*
X3569643Y-15841643D02*
X3583928Y-15855929D01*
X3569643Y-15870214D01*
X3555357Y-15855929D01*
X3569643Y-15841643D01*
X3569643Y-15870214D01*
X3769643Y-15570214D02*
X3798214Y-15570214D01*
X3826786Y-15584500D01*
X3841071Y-15598786D01*
X3855357Y-15627357D01*
X3869643Y-15684500D01*
X3869643Y-15755929D01*
X3855357Y-15813071D01*
X3841071Y-15841643D01*
X3826786Y-15855929D01*
X3798214Y-15870214D01*
X3769643Y-15870214D01*
X3741071Y-15855929D01*
X3726786Y-15841643D01*
X3712500Y-15813071D01*
X3698214Y-15755929D01*
X3698214Y-15684500D01*
X3712500Y-15627357D01*
X3726786Y-15598786D01*
X3741071Y-15584500D01*
X3769643Y-15570214D01*
X4055357Y-15570214D02*
X4083928Y-15570214D01*
X4112500Y-15584500D01*
X4126786Y-15598786D01*
X4141071Y-15627357D01*
X4155357Y-15684500D01*
X4155357Y-15755929D01*
X4141071Y-15813071D01*
X4126786Y-15841643D01*
X4112500Y-15855929D01*
X4083928Y-15870214D01*
X4055357Y-15870214D01*
X4026786Y-15855929D01*
X4012500Y-15841643D01*
X3998214Y-15813071D01*
X3983928Y-15755929D01*
X3983928Y-15684500D01*
X3998214Y-15627357D01*
X4012500Y-15598786D01*
X4026786Y-15584500D01*
X4055357Y-15570214D01*
X4341071Y-15570214D02*
X4369643Y-15570214D01*
X4398214Y-15584500D01*
X4412500Y-15598786D01*
X4426786Y-15627357D01*
X4441071Y-15684500D01*
X4441071Y-15755929D01*
X4426786Y-15813071D01*
X4412500Y-15841643D01*
X4398214Y-15855929D01*
X4369643Y-15870214D01*
X4341071Y-15870214D01*
X4312500Y-15855929D01*
X4298214Y-15841643D01*
X4283928Y-15813071D01*
X4269643Y-15755929D01*
X4269643Y-15684500D01*
X4283928Y-15627357D01*
X4298214Y-15598786D01*
X4312500Y-15584500D01*
X4341071Y-15570214D01*
X4569643Y-15870214D02*
X4569643Y-15670214D01*
X4569643Y-15698786D02*
X4583928Y-15684500D01*
X4612500Y-15670214D01*
X4655357Y-15670214D01*
X4683928Y-15684500D01*
X4698214Y-15713071D01*
X4698214Y-15870214D01*
X4698214Y-15713071D02*
X4712500Y-15684500D01*
X4741071Y-15670214D01*
X4783928Y-15670214D01*
X4812500Y-15684500D01*
X4826786Y-15713071D01*
X4826786Y-15870214D01*
X4969643Y-15870214D02*
X4969643Y-15670214D01*
X4969643Y-15698786D02*
X4983928Y-15684500D01*
X5012500Y-15670214D01*
X5055357Y-15670214D01*
X5083928Y-15684500D01*
X5098214Y-15713071D01*
X5098214Y-15870214D01*
X5098214Y-15713071D02*
X5112500Y-15684500D01*
X5141071Y-15670214D01*
X5183928Y-15670214D01*
X5212500Y-15684500D01*
X5226786Y-15713071D01*
X5226786Y-15870214D01*
X5812500Y-15555929D02*
X5555357Y-15941643D01*
X6198214Y-15570214D02*
X6226786Y-15570214D01*
X6255357Y-15584500D01*
X6269643Y-15598786D01*
X6283928Y-15627357D01*
X6298214Y-15684500D01*
X6298214Y-15755929D01*
X6283928Y-15813071D01*
X6269643Y-15841643D01*
X6255357Y-15855929D01*
X6226786Y-15870214D01*
X6198214Y-15870214D01*
X6169643Y-15855929D01*
X6155357Y-15841643D01*
X6141071Y-15813071D01*
X6126786Y-15755929D01*
X6126786Y-15684500D01*
X6141071Y-15627357D01*
X6155357Y-15598786D01*
X6169643Y-15584500D01*
X6198214Y-15570214D01*
X6426786Y-15841643D02*
X6441071Y-15855929D01*
X6426786Y-15870214D01*
X6412500Y-15855929D01*
X6426786Y-15841643D01*
X6426786Y-15870214D01*
X6626786Y-15570214D02*
X6655357Y-15570214D01*
X6683928Y-15584500D01*
X6698214Y-15598786D01*
X6712500Y-15627357D01*
X6726786Y-15684500D01*
X6726786Y-15755929D01*
X6712500Y-15813071D01*
X6698214Y-15841643D01*
X6683928Y-15855929D01*
X6655357Y-15870214D01*
X6626786Y-15870214D01*
X6598214Y-15855929D01*
X6583928Y-15841643D01*
X6569643Y-15813071D01*
X6555357Y-15755929D01*
X6555357Y-15684500D01*
X6569643Y-15627357D01*
X6583928Y-15598786D01*
X6598214Y-15584500D01*
X6626786Y-15570214D01*
X6826786Y-15570214D02*
X7012500Y-15570214D01*
X6912500Y-15684500D01*
X6955357Y-15684500D01*
X6983928Y-15698786D01*
X6998214Y-15713071D01*
X7012500Y-15741643D01*
X7012500Y-15813071D01*
X6998214Y-15841643D01*
X6983928Y-15855929D01*
X6955357Y-15870214D01*
X6869643Y-15870214D01*
X6841071Y-15855929D01*
X6826786Y-15841643D01*
X7155357Y-15870214D02*
X7212500Y-15870214D01*
X7241071Y-15855929D01*
X7255357Y-15841643D01*
X7283928Y-15798786D01*
X7298214Y-15741643D01*
X7298214Y-15627357D01*
X7283928Y-15598786D01*
X7269643Y-15584500D01*
X7241071Y-15570214D01*
X7183928Y-15570214D01*
X7155357Y-15584500D01*
X7141071Y-15598786D01*
X7126786Y-15627357D01*
X7126786Y-15698786D01*
X7141071Y-15727357D01*
X7155357Y-15741643D01*
X7183928Y-15755929D01*
X7241071Y-15755929D01*
X7269643Y-15741643D01*
X7283928Y-15727357D01*
X7298214Y-15698786D01*
X7555357Y-15670214D02*
X7555357Y-15870214D01*
X7483928Y-15555929D02*
X7412500Y-15770214D01*
X7598214Y-15770214D01*
X7698214Y-15570214D02*
X7698214Y-15627357D01*
X7812500Y-15570214D02*
X7812500Y-15627357D01*
X8255357Y-15984500D02*
X8241071Y-15970214D01*
X8212500Y-15927357D01*
X8198214Y-15898786D01*
X8183928Y-15855929D01*
X8169643Y-15784500D01*
X8169643Y-15727357D01*
X8183928Y-15655929D01*
X8198214Y-15613071D01*
X8212500Y-15584500D01*
X8241071Y-15541643D01*
X8255357Y-15527357D01*
X8526786Y-15870214D02*
X8355357Y-15870214D01*
X8441071Y-15870214D02*
X8441071Y-15570214D01*
X8412500Y-15613071D01*
X8383928Y-15641643D01*
X8355357Y-15655929D01*
X8883928Y-15870214D02*
X8883928Y-15570214D01*
X9012500Y-15870214D02*
X9012500Y-15713071D01*
X8998214Y-15684500D01*
X8969643Y-15670214D01*
X8926786Y-15670214D01*
X8898214Y-15684500D01*
X8883928Y-15698786D01*
X9198214Y-15870214D02*
X9169643Y-15855929D01*
X9155357Y-15841643D01*
X9141071Y-15813071D01*
X9141071Y-15727357D01*
X9155357Y-15698786D01*
X9169643Y-15684500D01*
X9198214Y-15670214D01*
X9241071Y-15670214D01*
X9269643Y-15684500D01*
X9283928Y-15698786D01*
X9298214Y-15727357D01*
X9298214Y-15813071D01*
X9283928Y-15841643D01*
X9269643Y-15855929D01*
X9241071Y-15870214D01*
X9198214Y-15870214D01*
X9469643Y-15870214D02*
X9441071Y-15855929D01*
X9426786Y-15827357D01*
X9426786Y-15570214D01*
X9698214Y-15855929D02*
X9669643Y-15870214D01*
X9612500Y-15870214D01*
X9583928Y-15855929D01*
X9569643Y-15827357D01*
X9569643Y-15713071D01*
X9583928Y-15684500D01*
X9612500Y-15670214D01*
X9669643Y-15670214D01*
X9698214Y-15684500D01*
X9712500Y-15713071D01*
X9712500Y-15741643D01*
X9569643Y-15770214D01*
X9812500Y-15984500D02*
X9826786Y-15970214D01*
X9855357Y-15927357D01*
X9869643Y-15898786D01*
X9883928Y-15855929D01*
X9898214Y-15784500D01*
X9898214Y-15727357D01*
X9883928Y-15655929D01*
X9869643Y-15613071D01*
X9855357Y-15584500D01*
X9826786Y-15541643D01*
X9812500Y-15527357D01*
X2887500Y-16075500D02*
X2997500Y-16185500D01*
X2997500Y-16075500D02*
X2887500Y-16185500D01*
X2942500Y-16185500D02*
X2997500Y-16130500D01*
X2942500Y-16075500D01*
X2887500Y-16130500D01*
X2942500Y-16185500D01*
X3441071Y-16266214D02*
X3269643Y-16266214D01*
X3355357Y-16266214D02*
X3355357Y-15966214D01*
X3326786Y-16009071D01*
X3298214Y-16037643D01*
X3269643Y-16051929D01*
X3569643Y-16237643D02*
X3583928Y-16251929D01*
X3569643Y-16266214D01*
X3555357Y-16251929D01*
X3569643Y-16237643D01*
X3569643Y-16266214D01*
X3869643Y-16266214D02*
X3698214Y-16266214D01*
X3783928Y-16266214D02*
X3783928Y-15966214D01*
X3755357Y-16009071D01*
X3726786Y-16037643D01*
X3698214Y-16051929D01*
X4055357Y-15966214D02*
X4083928Y-15966214D01*
X4112500Y-15980500D01*
X4126786Y-15994786D01*
X4141071Y-16023357D01*
X4155357Y-16080500D01*
X4155357Y-16151929D01*
X4141071Y-16209071D01*
X4126786Y-16237643D01*
X4112500Y-16251929D01*
X4083928Y-16266214D01*
X4055357Y-16266214D01*
X4026786Y-16251929D01*
X4012500Y-16237643D01*
X3998214Y-16209071D01*
X3983928Y-16151929D01*
X3983928Y-16080500D01*
X3998214Y-16023357D01*
X4012500Y-15994786D01*
X4026786Y-15980500D01*
X4055357Y-15966214D01*
X4341071Y-15966214D02*
X4369643Y-15966214D01*
X4398214Y-15980500D01*
X4412500Y-15994786D01*
X4426786Y-16023357D01*
X4441071Y-16080500D01*
X4441071Y-16151929D01*
X4426786Y-16209071D01*
X4412500Y-16237643D01*
X4398214Y-16251929D01*
X4369643Y-16266214D01*
X4341071Y-16266214D01*
X4312500Y-16251929D01*
X4298214Y-16237643D01*
X4283928Y-16209071D01*
X4269643Y-16151929D01*
X4269643Y-16080500D01*
X4283928Y-16023357D01*
X4298214Y-15994786D01*
X4312500Y-15980500D01*
X4341071Y-15966214D01*
X4569643Y-16266214D02*
X4569643Y-16066214D01*
X4569643Y-16094786D02*
X4583928Y-16080500D01*
X4612500Y-16066214D01*
X4655357Y-16066214D01*
X4683928Y-16080500D01*
X4698214Y-16109071D01*
X4698214Y-16266214D01*
X4698214Y-16109071D02*
X4712500Y-16080500D01*
X4741071Y-16066214D01*
X4783928Y-16066214D01*
X4812500Y-16080500D01*
X4826786Y-16109071D01*
X4826786Y-16266214D01*
X4969643Y-16266214D02*
X4969643Y-16066214D01*
X4969643Y-16094786D02*
X4983928Y-16080500D01*
X5012500Y-16066214D01*
X5055357Y-16066214D01*
X5083928Y-16080500D01*
X5098214Y-16109071D01*
X5098214Y-16266214D01*
X5098214Y-16109071D02*
X5112500Y-16080500D01*
X5141071Y-16066214D01*
X5183928Y-16066214D01*
X5212500Y-16080500D01*
X5226786Y-16109071D01*
X5226786Y-16266214D01*
X5812500Y-15951929D02*
X5555357Y-16337643D01*
X6198214Y-15966214D02*
X6226786Y-15966214D01*
X6255357Y-15980500D01*
X6269643Y-15994786D01*
X6283928Y-16023357D01*
X6298214Y-16080500D01*
X6298214Y-16151929D01*
X6283928Y-16209071D01*
X6269643Y-16237643D01*
X6255357Y-16251929D01*
X6226786Y-16266214D01*
X6198214Y-16266214D01*
X6169643Y-16251929D01*
X6155357Y-16237643D01*
X6141071Y-16209071D01*
X6126786Y-16151929D01*
X6126786Y-16080500D01*
X6141071Y-16023357D01*
X6155357Y-15994786D01*
X6169643Y-15980500D01*
X6198214Y-15966214D01*
X6426786Y-16237643D02*
X6441071Y-16251929D01*
X6426786Y-16266214D01*
X6412500Y-16251929D01*
X6426786Y-16237643D01*
X6426786Y-16266214D01*
X6626786Y-15966214D02*
X6655357Y-15966214D01*
X6683928Y-15980500D01*
X6698214Y-15994786D01*
X6712500Y-16023357D01*
X6726786Y-16080500D01*
X6726786Y-16151929D01*
X6712500Y-16209071D01*
X6698214Y-16237643D01*
X6683928Y-16251929D01*
X6655357Y-16266214D01*
X6626786Y-16266214D01*
X6598214Y-16251929D01*
X6583928Y-16237643D01*
X6569643Y-16209071D01*
X6555357Y-16151929D01*
X6555357Y-16080500D01*
X6569643Y-16023357D01*
X6583928Y-15994786D01*
X6598214Y-15980500D01*
X6626786Y-15966214D01*
X6983928Y-16066214D02*
X6983928Y-16266214D01*
X6912500Y-15951929D02*
X6841071Y-16166214D01*
X7026786Y-16166214D01*
X7112500Y-15966214D02*
X7298214Y-15966214D01*
X7198214Y-16080500D01*
X7241071Y-16080500D01*
X7269643Y-16094786D01*
X7283928Y-16109071D01*
X7298214Y-16137643D01*
X7298214Y-16209071D01*
X7283928Y-16237643D01*
X7269643Y-16251929D01*
X7241071Y-16266214D01*
X7155357Y-16266214D01*
X7126786Y-16251929D01*
X7112500Y-16237643D01*
X7398214Y-15966214D02*
X7583928Y-15966214D01*
X7483928Y-16080500D01*
X7526786Y-16080500D01*
X7555357Y-16094786D01*
X7569643Y-16109071D01*
X7583928Y-16137643D01*
X7583928Y-16209071D01*
X7569643Y-16237643D01*
X7555357Y-16251929D01*
X7526786Y-16266214D01*
X7441071Y-16266214D01*
X7412500Y-16251929D01*
X7398214Y-16237643D01*
X7698214Y-15966214D02*
X7698214Y-16023357D01*
X7812500Y-15966214D02*
X7812500Y-16023357D01*
X8255357Y-16380500D02*
X8241071Y-16366214D01*
X8212500Y-16323357D01*
X8198214Y-16294786D01*
X8183928Y-16251929D01*
X8169643Y-16180500D01*
X8169643Y-16123357D01*
X8183928Y-16051929D01*
X8198214Y-16009071D01*
X8212500Y-15980500D01*
X8241071Y-15937643D01*
X8255357Y-15923357D01*
X8526786Y-16266214D02*
X8355357Y-16266214D01*
X8441071Y-16266214D02*
X8441071Y-15966214D01*
X8412500Y-16009071D01*
X8383928Y-16037643D01*
X8355357Y-16051929D01*
X8883928Y-16266214D02*
X8883928Y-15966214D01*
X9012500Y-16266214D02*
X9012500Y-16109071D01*
X8998214Y-16080500D01*
X8969643Y-16066214D01*
X8926786Y-16066214D01*
X8898214Y-16080500D01*
X8883928Y-16094786D01*
X9198214Y-16266214D02*
X9169643Y-16251929D01*
X9155357Y-16237643D01*
X9141071Y-16209071D01*
X9141071Y-16123357D01*
X9155357Y-16094786D01*
X9169643Y-16080500D01*
X9198214Y-16066214D01*
X9241071Y-16066214D01*
X9269643Y-16080500D01*
X9283928Y-16094786D01*
X9298214Y-16123357D01*
X9298214Y-16209071D01*
X9283928Y-16237643D01*
X9269643Y-16251929D01*
X9241071Y-16266214D01*
X9198214Y-16266214D01*
X9469643Y-16266214D02*
X9441071Y-16251929D01*
X9426786Y-16223357D01*
X9426786Y-15966214D01*
X9698214Y-16251929D02*
X9669643Y-16266214D01*
X9612500Y-16266214D01*
X9583928Y-16251929D01*
X9569643Y-16223357D01*
X9569643Y-16109071D01*
X9583928Y-16080500D01*
X9612500Y-16066214D01*
X9669643Y-16066214D01*
X9698214Y-16080500D01*
X9712500Y-16109071D01*
X9712500Y-16137643D01*
X9569643Y-16166214D01*
X9812500Y-16380500D02*
X9826786Y-16366214D01*
X9855357Y-16323357D01*
X9869643Y-16294786D01*
X9883928Y-16251929D01*
X9898214Y-16180500D01*
X9898214Y-16123357D01*
X9883928Y-16051929D01*
X9869643Y-16009071D01*
X9855357Y-15980500D01*
X9826786Y-15937643D01*
X9812500Y-15923357D01*
X2937500Y-16466500D02*
X2937500Y-16586500D01*
X2877500Y-16526500D02*
X2997500Y-16526500D01*
X2997500Y-16526500D02*
G75*
G03*
X2997500Y-16526500I-60000J0D01*
G01*
X3441071Y-16662214D02*
X3269643Y-16662214D01*
X3355357Y-16662214D02*
X3355357Y-16362214D01*
X3326786Y-16405071D01*
X3298214Y-16433643D01*
X3269643Y-16447929D01*
X3569643Y-16633643D02*
X3583928Y-16647929D01*
X3569643Y-16662214D01*
X3555357Y-16647929D01*
X3569643Y-16633643D01*
X3569643Y-16662214D01*
X3698214Y-16390786D02*
X3712500Y-16376500D01*
X3741071Y-16362214D01*
X3812500Y-16362214D01*
X3841071Y-16376500D01*
X3855357Y-16390786D01*
X3869643Y-16419357D01*
X3869643Y-16447929D01*
X3855357Y-16490786D01*
X3683928Y-16662214D01*
X3869643Y-16662214D01*
X4055357Y-16362214D02*
X4083928Y-16362214D01*
X4112500Y-16376500D01*
X4126786Y-16390786D01*
X4141071Y-16419357D01*
X4155357Y-16476500D01*
X4155357Y-16547929D01*
X4141071Y-16605071D01*
X4126786Y-16633643D01*
X4112500Y-16647929D01*
X4083928Y-16662214D01*
X4055357Y-16662214D01*
X4026786Y-16647929D01*
X4012500Y-16633643D01*
X3998214Y-16605071D01*
X3983928Y-16547929D01*
X3983928Y-16476500D01*
X3998214Y-16419357D01*
X4012500Y-16390786D01*
X4026786Y-16376500D01*
X4055357Y-16362214D01*
X4341071Y-16362214D02*
X4369643Y-16362214D01*
X4398214Y-16376500D01*
X4412500Y-16390786D01*
X4426786Y-16419357D01*
X4441071Y-16476500D01*
X4441071Y-16547929D01*
X4426786Y-16605071D01*
X4412500Y-16633643D01*
X4398214Y-16647929D01*
X4369643Y-16662214D01*
X4341071Y-16662214D01*
X4312500Y-16647929D01*
X4298214Y-16633643D01*
X4283928Y-16605071D01*
X4269643Y-16547929D01*
X4269643Y-16476500D01*
X4283928Y-16419357D01*
X4298214Y-16390786D01*
X4312500Y-16376500D01*
X4341071Y-16362214D01*
X4569643Y-16662214D02*
X4569643Y-16462214D01*
X4569643Y-16490786D02*
X4583928Y-16476500D01*
X4612500Y-16462214D01*
X4655357Y-16462214D01*
X4683928Y-16476500D01*
X4698214Y-16505071D01*
X4698214Y-16662214D01*
X4698214Y-16505071D02*
X4712500Y-16476500D01*
X4741071Y-16462214D01*
X4783928Y-16462214D01*
X4812500Y-16476500D01*
X4826786Y-16505071D01*
X4826786Y-16662214D01*
X4969643Y-16662214D02*
X4969643Y-16462214D01*
X4969643Y-16490786D02*
X4983928Y-16476500D01*
X5012500Y-16462214D01*
X5055357Y-16462214D01*
X5083928Y-16476500D01*
X5098214Y-16505071D01*
X5098214Y-16662214D01*
X5098214Y-16505071D02*
X5112500Y-16476500D01*
X5141071Y-16462214D01*
X5183928Y-16462214D01*
X5212500Y-16476500D01*
X5226786Y-16505071D01*
X5226786Y-16662214D01*
X5812500Y-16347929D02*
X5555357Y-16733643D01*
X6198214Y-16362214D02*
X6226786Y-16362214D01*
X6255357Y-16376500D01*
X6269643Y-16390786D01*
X6283928Y-16419357D01*
X6298214Y-16476500D01*
X6298214Y-16547929D01*
X6283928Y-16605071D01*
X6269643Y-16633643D01*
X6255357Y-16647929D01*
X6226786Y-16662214D01*
X6198214Y-16662214D01*
X6169643Y-16647929D01*
X6155357Y-16633643D01*
X6141071Y-16605071D01*
X6126786Y-16547929D01*
X6126786Y-16476500D01*
X6141071Y-16419357D01*
X6155357Y-16390786D01*
X6169643Y-16376500D01*
X6198214Y-16362214D01*
X6426786Y-16633643D02*
X6441071Y-16647929D01*
X6426786Y-16662214D01*
X6412500Y-16647929D01*
X6426786Y-16633643D01*
X6426786Y-16662214D01*
X6626786Y-16362214D02*
X6655357Y-16362214D01*
X6683928Y-16376500D01*
X6698214Y-16390786D01*
X6712500Y-16419357D01*
X6726786Y-16476500D01*
X6726786Y-16547929D01*
X6712500Y-16605071D01*
X6698214Y-16633643D01*
X6683928Y-16647929D01*
X6655357Y-16662214D01*
X6626786Y-16662214D01*
X6598214Y-16647929D01*
X6583928Y-16633643D01*
X6569643Y-16605071D01*
X6555357Y-16547929D01*
X6555357Y-16476500D01*
X6569643Y-16419357D01*
X6583928Y-16390786D01*
X6598214Y-16376500D01*
X6626786Y-16362214D01*
X6983928Y-16462214D02*
X6983928Y-16662214D01*
X6912500Y-16347929D02*
X6841071Y-16562214D01*
X7026786Y-16562214D01*
X7112500Y-16362214D02*
X7312500Y-16362214D01*
X7183928Y-16662214D01*
X7412500Y-16390786D02*
X7426786Y-16376500D01*
X7455357Y-16362214D01*
X7526786Y-16362214D01*
X7555357Y-16376500D01*
X7569643Y-16390786D01*
X7583928Y-16419357D01*
X7583928Y-16447929D01*
X7569643Y-16490786D01*
X7398214Y-16662214D01*
X7583928Y-16662214D01*
X7698214Y-16362214D02*
X7698214Y-16419357D01*
X7812500Y-16362214D02*
X7812500Y-16419357D01*
X8255357Y-16776500D02*
X8241071Y-16762214D01*
X8212500Y-16719357D01*
X8198214Y-16690786D01*
X8183928Y-16647929D01*
X8169643Y-16576500D01*
X8169643Y-16519357D01*
X8183928Y-16447929D01*
X8198214Y-16405071D01*
X8212500Y-16376500D01*
X8241071Y-16333643D01*
X8255357Y-16319357D01*
X8526786Y-16662214D02*
X8355357Y-16662214D01*
X8441071Y-16662214D02*
X8441071Y-16362214D01*
X8412500Y-16405071D01*
X8383928Y-16433643D01*
X8355357Y-16447929D01*
X8883928Y-16662214D02*
X8883928Y-16362214D01*
X9012500Y-16662214D02*
X9012500Y-16505071D01*
X8998214Y-16476500D01*
X8969643Y-16462214D01*
X8926786Y-16462214D01*
X8898214Y-16476500D01*
X8883928Y-16490786D01*
X9198214Y-16662214D02*
X9169643Y-16647929D01*
X9155357Y-16633643D01*
X9141071Y-16605071D01*
X9141071Y-16519357D01*
X9155357Y-16490786D01*
X9169643Y-16476500D01*
X9198214Y-16462214D01*
X9241071Y-16462214D01*
X9269643Y-16476500D01*
X9283928Y-16490786D01*
X9298214Y-16519357D01*
X9298214Y-16605071D01*
X9283928Y-16633643D01*
X9269643Y-16647929D01*
X9241071Y-16662214D01*
X9198214Y-16662214D01*
X9469643Y-16662214D02*
X9441071Y-16647929D01*
X9426786Y-16619357D01*
X9426786Y-16362214D01*
X9698214Y-16647929D02*
X9669643Y-16662214D01*
X9612500Y-16662214D01*
X9583928Y-16647929D01*
X9569643Y-16619357D01*
X9569643Y-16505071D01*
X9583928Y-16476500D01*
X9612500Y-16462214D01*
X9669643Y-16462214D01*
X9698214Y-16476500D01*
X9712500Y-16505071D01*
X9712500Y-16533643D01*
X9569643Y-16562214D01*
X9812500Y-16776500D02*
X9826786Y-16762214D01*
X9855357Y-16719357D01*
X9869643Y-16690786D01*
X9883928Y-16647929D01*
X9898214Y-16576500D01*
X9898214Y-16519357D01*
X9883928Y-16447929D01*
X9869643Y-16405071D01*
X9855357Y-16376500D01*
X9826786Y-16333643D01*
X9812500Y-16319357D01*
X2975533Y-16975534D02*
X2975533Y-16869467D01*
X2869466Y-16869467D01*
X2869466Y-16975534D01*
X2975533Y-16975534D01*
X2997500Y-16922500D02*
G75*
G03*
X2997500Y-16922500I-75000J0D01*
G01*
X3441071Y-17058214D02*
X3269643Y-17058214D01*
X3355357Y-17058214D02*
X3355357Y-16758214D01*
X3326786Y-16801072D01*
X3298214Y-16829643D01*
X3269643Y-16843929D01*
X3569643Y-17029643D02*
X3583928Y-17043929D01*
X3569643Y-17058214D01*
X3555357Y-17043929D01*
X3569643Y-17029643D01*
X3569643Y-17058214D01*
X3855357Y-16758214D02*
X3712500Y-16758214D01*
X3698214Y-16901072D01*
X3712500Y-16886786D01*
X3741071Y-16872500D01*
X3812500Y-16872500D01*
X3841071Y-16886786D01*
X3855357Y-16901072D01*
X3869643Y-16929643D01*
X3869643Y-17001072D01*
X3855357Y-17029643D01*
X3841071Y-17043929D01*
X3812500Y-17058214D01*
X3741071Y-17058214D01*
X3712500Y-17043929D01*
X3698214Y-17029643D01*
X4055357Y-16758214D02*
X4083928Y-16758214D01*
X4112500Y-16772500D01*
X4126786Y-16786786D01*
X4141071Y-16815357D01*
X4155357Y-16872500D01*
X4155357Y-16943929D01*
X4141071Y-17001072D01*
X4126786Y-17029643D01*
X4112500Y-17043929D01*
X4083928Y-17058214D01*
X4055357Y-17058214D01*
X4026786Y-17043929D01*
X4012500Y-17029643D01*
X3998214Y-17001072D01*
X3983928Y-16943929D01*
X3983928Y-16872500D01*
X3998214Y-16815357D01*
X4012500Y-16786786D01*
X4026786Y-16772500D01*
X4055357Y-16758214D01*
X4341071Y-16758214D02*
X4369643Y-16758214D01*
X4398214Y-16772500D01*
X4412500Y-16786786D01*
X4426786Y-16815357D01*
X4441071Y-16872500D01*
X4441071Y-16943929D01*
X4426786Y-17001072D01*
X4412500Y-17029643D01*
X4398214Y-17043929D01*
X4369643Y-17058214D01*
X4341071Y-17058214D01*
X4312500Y-17043929D01*
X4298214Y-17029643D01*
X4283928Y-17001072D01*
X4269643Y-16943929D01*
X4269643Y-16872500D01*
X4283928Y-16815357D01*
X4298214Y-16786786D01*
X4312500Y-16772500D01*
X4341071Y-16758214D01*
X4569643Y-17058214D02*
X4569643Y-16858214D01*
X4569643Y-16886786D02*
X4583928Y-16872500D01*
X4612500Y-16858214D01*
X4655357Y-16858214D01*
X4683928Y-16872500D01*
X4698214Y-16901072D01*
X4698214Y-17058214D01*
X4698214Y-16901072D02*
X4712500Y-16872500D01*
X4741071Y-16858214D01*
X4783928Y-16858214D01*
X4812500Y-16872500D01*
X4826786Y-16901072D01*
X4826786Y-17058214D01*
X4969643Y-17058214D02*
X4969643Y-16858214D01*
X4969643Y-16886786D02*
X4983928Y-16872500D01*
X5012500Y-16858214D01*
X5055357Y-16858214D01*
X5083928Y-16872500D01*
X5098214Y-16901072D01*
X5098214Y-17058214D01*
X5098214Y-16901072D02*
X5112500Y-16872500D01*
X5141071Y-16858214D01*
X5183928Y-16858214D01*
X5212500Y-16872500D01*
X5226786Y-16901072D01*
X5226786Y-17058214D01*
X5812500Y-16743929D02*
X5555357Y-17129643D01*
X6198214Y-16758214D02*
X6226786Y-16758214D01*
X6255357Y-16772500D01*
X6269643Y-16786786D01*
X6283928Y-16815357D01*
X6298214Y-16872500D01*
X6298214Y-16943929D01*
X6283928Y-17001072D01*
X6269643Y-17029643D01*
X6255357Y-17043929D01*
X6226786Y-17058214D01*
X6198214Y-17058214D01*
X6169643Y-17043929D01*
X6155357Y-17029643D01*
X6141071Y-17001072D01*
X6126786Y-16943929D01*
X6126786Y-16872500D01*
X6141071Y-16815357D01*
X6155357Y-16786786D01*
X6169643Y-16772500D01*
X6198214Y-16758214D01*
X6426786Y-17029643D02*
X6441071Y-17043929D01*
X6426786Y-17058214D01*
X6412500Y-17043929D01*
X6426786Y-17029643D01*
X6426786Y-17058214D01*
X6626786Y-16758214D02*
X6655357Y-16758214D01*
X6683928Y-16772500D01*
X6698214Y-16786786D01*
X6712500Y-16815357D01*
X6726786Y-16872500D01*
X6726786Y-16943929D01*
X6712500Y-17001072D01*
X6698214Y-17029643D01*
X6683928Y-17043929D01*
X6655357Y-17058214D01*
X6626786Y-17058214D01*
X6598214Y-17043929D01*
X6583928Y-17029643D01*
X6569643Y-17001072D01*
X6555357Y-16943929D01*
X6555357Y-16872500D01*
X6569643Y-16815357D01*
X6583928Y-16786786D01*
X6598214Y-16772500D01*
X6626786Y-16758214D01*
X6998214Y-16758214D02*
X6855357Y-16758214D01*
X6841071Y-16901072D01*
X6855357Y-16886786D01*
X6883928Y-16872500D01*
X6955357Y-16872500D01*
X6983928Y-16886786D01*
X6998214Y-16901072D01*
X7012500Y-16929643D01*
X7012500Y-17001072D01*
X6998214Y-17029643D01*
X6983928Y-17043929D01*
X6955357Y-17058214D01*
X6883928Y-17058214D01*
X6855357Y-17043929D01*
X6841071Y-17029643D01*
X7155357Y-17058214D02*
X7212500Y-17058214D01*
X7241071Y-17043929D01*
X7255357Y-17029643D01*
X7283928Y-16986786D01*
X7298214Y-16929643D01*
X7298214Y-16815357D01*
X7283928Y-16786786D01*
X7269643Y-16772500D01*
X7241071Y-16758214D01*
X7183928Y-16758214D01*
X7155357Y-16772500D01*
X7141071Y-16786786D01*
X7126786Y-16815357D01*
X7126786Y-16886786D01*
X7141071Y-16915357D01*
X7155357Y-16929643D01*
X7183928Y-16943929D01*
X7241071Y-16943929D01*
X7269643Y-16929643D01*
X7283928Y-16915357D01*
X7298214Y-16886786D01*
X7583928Y-17058214D02*
X7412500Y-17058214D01*
X7498214Y-17058214D02*
X7498214Y-16758214D01*
X7469643Y-16801072D01*
X7441071Y-16829643D01*
X7412500Y-16843929D01*
X7698214Y-16758214D02*
X7698214Y-16815357D01*
X7812500Y-16758214D02*
X7812500Y-16815357D01*
X8255357Y-17172500D02*
X8241071Y-17158214D01*
X8212500Y-17115357D01*
X8198214Y-17086786D01*
X8183928Y-17043929D01*
X8169643Y-16972500D01*
X8169643Y-16915357D01*
X8183928Y-16843929D01*
X8198214Y-16801072D01*
X8212500Y-16772500D01*
X8241071Y-16729643D01*
X8255357Y-16715357D01*
X8526786Y-17058214D02*
X8355357Y-17058214D01*
X8441071Y-17058214D02*
X8441071Y-16758214D01*
X8412500Y-16801072D01*
X8383928Y-16829643D01*
X8355357Y-16843929D01*
X8883928Y-17058214D02*
X8883928Y-16758214D01*
X9012500Y-17058214D02*
X9012500Y-16901072D01*
X8998214Y-16872500D01*
X8969643Y-16858214D01*
X8926786Y-16858214D01*
X8898214Y-16872500D01*
X8883928Y-16886786D01*
X9198214Y-17058214D02*
X9169643Y-17043929D01*
X9155357Y-17029643D01*
X9141071Y-17001072D01*
X9141071Y-16915357D01*
X9155357Y-16886786D01*
X9169643Y-16872500D01*
X9198214Y-16858214D01*
X9241071Y-16858214D01*
X9269643Y-16872500D01*
X9283928Y-16886786D01*
X9298214Y-16915357D01*
X9298214Y-17001072D01*
X9283928Y-17029643D01*
X9269643Y-17043929D01*
X9241071Y-17058214D01*
X9198214Y-17058214D01*
X9469643Y-17058214D02*
X9441071Y-17043929D01*
X9426786Y-17015357D01*
X9426786Y-16758214D01*
X9698214Y-17043929D02*
X9669643Y-17058214D01*
X9612500Y-17058214D01*
X9583928Y-17043929D01*
X9569643Y-17015357D01*
X9569643Y-16901072D01*
X9583928Y-16872500D01*
X9612500Y-16858214D01*
X9669643Y-16858214D01*
X9698214Y-16872500D01*
X9712500Y-16901072D01*
X9712500Y-16929643D01*
X9569643Y-16958214D01*
X9812500Y-17172500D02*
X9826786Y-17158214D01*
X9855357Y-17115357D01*
X9869643Y-17086786D01*
X9883928Y-17043929D01*
X9898214Y-16972500D01*
X9898214Y-16915357D01*
X9883928Y-16843929D01*
X9869643Y-16801072D01*
X9855357Y-16772500D01*
X9826786Y-16729643D01*
X9812500Y-16715357D01*
X2897500Y-17418500D02*
X2997500Y-17318500D01*
X2897500Y-17218500D01*
X2797500Y-17318500D01*
X2897500Y-17418500D01*
X2997500Y-17318500D02*
G75*
G03*
X2997500Y-17318500I-100000J0D01*
G01*
X3269643Y-17182786D02*
X3283928Y-17168500D01*
X3312500Y-17154214D01*
X3383928Y-17154214D01*
X3412500Y-17168500D01*
X3426786Y-17182786D01*
X3441071Y-17211357D01*
X3441071Y-17239929D01*
X3426786Y-17282786D01*
X3255357Y-17454214D01*
X3441071Y-17454214D01*
X3569643Y-17425643D02*
X3583928Y-17439929D01*
X3569643Y-17454214D01*
X3555357Y-17439929D01*
X3569643Y-17425643D01*
X3569643Y-17454214D01*
X3769643Y-17154214D02*
X3798214Y-17154214D01*
X3826786Y-17168500D01*
X3841071Y-17182786D01*
X3855357Y-17211357D01*
X3869643Y-17268500D01*
X3869643Y-17339929D01*
X3855357Y-17397072D01*
X3841071Y-17425643D01*
X3826786Y-17439929D01*
X3798214Y-17454214D01*
X3769643Y-17454214D01*
X3741071Y-17439929D01*
X3726786Y-17425643D01*
X3712500Y-17397072D01*
X3698214Y-17339929D01*
X3698214Y-17268500D01*
X3712500Y-17211357D01*
X3726786Y-17182786D01*
X3741071Y-17168500D01*
X3769643Y-17154214D01*
X4055357Y-17154214D02*
X4083928Y-17154214D01*
X4112500Y-17168500D01*
X4126786Y-17182786D01*
X4141071Y-17211357D01*
X4155357Y-17268500D01*
X4155357Y-17339929D01*
X4141071Y-17397072D01*
X4126786Y-17425643D01*
X4112500Y-17439929D01*
X4083928Y-17454214D01*
X4055357Y-17454214D01*
X4026786Y-17439929D01*
X4012500Y-17425643D01*
X3998214Y-17397072D01*
X3983928Y-17339929D01*
X3983928Y-17268500D01*
X3998214Y-17211357D01*
X4012500Y-17182786D01*
X4026786Y-17168500D01*
X4055357Y-17154214D01*
X4341071Y-17154214D02*
X4369643Y-17154214D01*
X4398214Y-17168500D01*
X4412500Y-17182786D01*
X4426786Y-17211357D01*
X4441071Y-17268500D01*
X4441071Y-17339929D01*
X4426786Y-17397072D01*
X4412500Y-17425643D01*
X4398214Y-17439929D01*
X4369643Y-17454214D01*
X4341071Y-17454214D01*
X4312500Y-17439929D01*
X4298214Y-17425643D01*
X4283928Y-17397072D01*
X4269643Y-17339929D01*
X4269643Y-17268500D01*
X4283928Y-17211357D01*
X4298214Y-17182786D01*
X4312500Y-17168500D01*
X4341071Y-17154214D01*
X4569643Y-17454214D02*
X4569643Y-17254214D01*
X4569643Y-17282786D02*
X4583928Y-17268500D01*
X4612500Y-17254214D01*
X4655357Y-17254214D01*
X4683928Y-17268500D01*
X4698214Y-17297072D01*
X4698214Y-17454214D01*
X4698214Y-17297072D02*
X4712500Y-17268500D01*
X4741071Y-17254214D01*
X4783928Y-17254214D01*
X4812500Y-17268500D01*
X4826786Y-17297072D01*
X4826786Y-17454214D01*
X4969643Y-17454214D02*
X4969643Y-17254214D01*
X4969643Y-17282786D02*
X4983928Y-17268500D01*
X5012500Y-17254214D01*
X5055357Y-17254214D01*
X5083928Y-17268500D01*
X5098214Y-17297072D01*
X5098214Y-17454214D01*
X5098214Y-17297072D02*
X5112500Y-17268500D01*
X5141071Y-17254214D01*
X5183928Y-17254214D01*
X5212500Y-17268500D01*
X5226786Y-17297072D01*
X5226786Y-17454214D01*
X5812500Y-17139929D02*
X5555357Y-17525643D01*
X6198214Y-17154214D02*
X6226786Y-17154214D01*
X6255357Y-17168500D01*
X6269643Y-17182786D01*
X6283928Y-17211357D01*
X6298214Y-17268500D01*
X6298214Y-17339929D01*
X6283928Y-17397072D01*
X6269643Y-17425643D01*
X6255357Y-17439929D01*
X6226786Y-17454214D01*
X6198214Y-17454214D01*
X6169643Y-17439929D01*
X6155357Y-17425643D01*
X6141071Y-17397072D01*
X6126786Y-17339929D01*
X6126786Y-17268500D01*
X6141071Y-17211357D01*
X6155357Y-17182786D01*
X6169643Y-17168500D01*
X6198214Y-17154214D01*
X6426786Y-17425643D02*
X6441071Y-17439929D01*
X6426786Y-17454214D01*
X6412500Y-17439929D01*
X6426786Y-17425643D01*
X6426786Y-17454214D01*
X6626786Y-17154214D02*
X6655357Y-17154214D01*
X6683928Y-17168500D01*
X6698214Y-17182786D01*
X6712500Y-17211357D01*
X6726786Y-17268500D01*
X6726786Y-17339929D01*
X6712500Y-17397072D01*
X6698214Y-17425643D01*
X6683928Y-17439929D01*
X6655357Y-17454214D01*
X6626786Y-17454214D01*
X6598214Y-17439929D01*
X6583928Y-17425643D01*
X6569643Y-17397072D01*
X6555357Y-17339929D01*
X6555357Y-17268500D01*
X6569643Y-17211357D01*
X6583928Y-17182786D01*
X6598214Y-17168500D01*
X6626786Y-17154214D01*
X6826786Y-17154214D02*
X7026786Y-17154214D01*
X6898214Y-17454214D01*
X7183928Y-17282786D02*
X7155357Y-17268500D01*
X7141071Y-17254214D01*
X7126786Y-17225643D01*
X7126786Y-17211357D01*
X7141071Y-17182786D01*
X7155357Y-17168500D01*
X7183928Y-17154214D01*
X7241071Y-17154214D01*
X7269643Y-17168500D01*
X7283928Y-17182786D01*
X7298214Y-17211357D01*
X7298214Y-17225643D01*
X7283928Y-17254214D01*
X7269643Y-17268500D01*
X7241071Y-17282786D01*
X7183928Y-17282786D01*
X7155357Y-17297072D01*
X7141071Y-17311357D01*
X7126786Y-17339929D01*
X7126786Y-17397072D01*
X7141071Y-17425643D01*
X7155357Y-17439929D01*
X7183928Y-17454214D01*
X7241071Y-17454214D01*
X7269643Y-17439929D01*
X7283928Y-17425643D01*
X7298214Y-17397072D01*
X7298214Y-17339929D01*
X7283928Y-17311357D01*
X7269643Y-17297072D01*
X7241071Y-17282786D01*
X7398214Y-17154214D02*
X7598214Y-17154214D01*
X7469643Y-17454214D01*
X7698214Y-17154214D02*
X7698214Y-17211357D01*
X7812500Y-17154214D02*
X7812500Y-17211357D01*
X8255357Y-17568500D02*
X8241071Y-17554214D01*
X8212500Y-17511357D01*
X8198214Y-17482786D01*
X8183928Y-17439929D01*
X8169643Y-17368500D01*
X8169643Y-17311357D01*
X8183928Y-17239929D01*
X8198214Y-17197072D01*
X8212500Y-17168500D01*
X8241071Y-17125643D01*
X8255357Y-17111357D01*
X8526786Y-17454214D02*
X8355357Y-17454214D01*
X8441071Y-17454214D02*
X8441071Y-17154214D01*
X8412500Y-17197072D01*
X8383928Y-17225643D01*
X8355357Y-17239929D01*
X8883928Y-17454214D02*
X8883928Y-17154214D01*
X9012500Y-17454214D02*
X9012500Y-17297072D01*
X8998214Y-17268500D01*
X8969643Y-17254214D01*
X8926786Y-17254214D01*
X8898214Y-17268500D01*
X8883928Y-17282786D01*
X9198214Y-17454214D02*
X9169643Y-17439929D01*
X9155357Y-17425643D01*
X9141071Y-17397072D01*
X9141071Y-17311357D01*
X9155357Y-17282786D01*
X9169643Y-17268500D01*
X9198214Y-17254214D01*
X9241071Y-17254214D01*
X9269643Y-17268500D01*
X9283928Y-17282786D01*
X9298214Y-17311357D01*
X9298214Y-17397072D01*
X9283928Y-17425643D01*
X9269643Y-17439929D01*
X9241071Y-17454214D01*
X9198214Y-17454214D01*
X9469643Y-17454214D02*
X9441071Y-17439929D01*
X9426786Y-17411357D01*
X9426786Y-17154214D01*
X9698214Y-17439929D02*
X9669643Y-17454214D01*
X9612500Y-17454214D01*
X9583928Y-17439929D01*
X9569643Y-17411357D01*
X9569643Y-17297072D01*
X9583928Y-17268500D01*
X9612500Y-17254214D01*
X9669643Y-17254214D01*
X9698214Y-17268500D01*
X9712500Y-17297072D01*
X9712500Y-17325643D01*
X9569643Y-17354214D01*
X9812500Y-17568500D02*
X9826786Y-17554214D01*
X9855357Y-17511357D01*
X9869643Y-17482786D01*
X9883928Y-17439929D01*
X9898214Y-17368500D01*
X9898214Y-17311357D01*
X9883928Y-17239929D01*
X9869643Y-17197072D01*
X9855357Y-17168500D01*
X9826786Y-17125643D01*
X9812500Y-17111357D01*
X2872500Y-17589500D02*
X2872500Y-17839500D01*
X2747500Y-17714500D02*
X2997500Y-17714500D01*
X2960889Y-17802889D02*
X2960889Y-17626111D01*
X2784111Y-17626111D01*
X2784111Y-17802889D01*
X2960889Y-17802889D01*
X3269643Y-17578786D02*
X3283928Y-17564500D01*
X3312500Y-17550214D01*
X3383928Y-17550214D01*
X3412500Y-17564500D01*
X3426786Y-17578786D01*
X3441071Y-17607357D01*
X3441071Y-17635929D01*
X3426786Y-17678786D01*
X3255357Y-17850214D01*
X3441071Y-17850214D01*
X3569643Y-17821643D02*
X3583928Y-17835929D01*
X3569643Y-17850214D01*
X3555357Y-17835929D01*
X3569643Y-17821643D01*
X3569643Y-17850214D01*
X3855357Y-17550214D02*
X3712500Y-17550214D01*
X3698214Y-17693072D01*
X3712500Y-17678786D01*
X3741071Y-17664500D01*
X3812500Y-17664500D01*
X3841071Y-17678786D01*
X3855357Y-17693072D01*
X3869643Y-17721643D01*
X3869643Y-17793072D01*
X3855357Y-17821643D01*
X3841071Y-17835929D01*
X3812500Y-17850214D01*
X3741071Y-17850214D01*
X3712500Y-17835929D01*
X3698214Y-17821643D01*
X4055357Y-17550214D02*
X4083928Y-17550214D01*
X4112500Y-17564500D01*
X4126786Y-17578786D01*
X4141071Y-17607357D01*
X4155357Y-17664500D01*
X4155357Y-17735929D01*
X4141071Y-17793072D01*
X4126786Y-17821643D01*
X4112500Y-17835929D01*
X4083928Y-17850214D01*
X4055357Y-17850214D01*
X4026786Y-17835929D01*
X4012500Y-17821643D01*
X3998214Y-17793072D01*
X3983928Y-17735929D01*
X3983928Y-17664500D01*
X3998214Y-17607357D01*
X4012500Y-17578786D01*
X4026786Y-17564500D01*
X4055357Y-17550214D01*
X4341071Y-17550214D02*
X4369643Y-17550214D01*
X4398214Y-17564500D01*
X4412500Y-17578786D01*
X4426786Y-17607357D01*
X4441071Y-17664500D01*
X4441071Y-17735929D01*
X4426786Y-17793072D01*
X4412500Y-17821643D01*
X4398214Y-17835929D01*
X4369643Y-17850214D01*
X4341071Y-17850214D01*
X4312500Y-17835929D01*
X4298214Y-17821643D01*
X4283928Y-17793072D01*
X4269643Y-17735929D01*
X4269643Y-17664500D01*
X4283928Y-17607357D01*
X4298214Y-17578786D01*
X4312500Y-17564500D01*
X4341071Y-17550214D01*
X4569643Y-17850214D02*
X4569643Y-17650214D01*
X4569643Y-17678786D02*
X4583928Y-17664500D01*
X4612500Y-17650214D01*
X4655357Y-17650214D01*
X4683928Y-17664500D01*
X4698214Y-17693072D01*
X4698214Y-17850214D01*
X4698214Y-17693072D02*
X4712500Y-17664500D01*
X4741071Y-17650214D01*
X4783928Y-17650214D01*
X4812500Y-17664500D01*
X4826786Y-17693072D01*
X4826786Y-17850214D01*
X4969643Y-17850214D02*
X4969643Y-17650214D01*
X4969643Y-17678786D02*
X4983928Y-17664500D01*
X5012500Y-17650214D01*
X5055357Y-17650214D01*
X5083928Y-17664500D01*
X5098214Y-17693072D01*
X5098214Y-17850214D01*
X5098214Y-17693072D02*
X5112500Y-17664500D01*
X5141071Y-17650214D01*
X5183928Y-17650214D01*
X5212500Y-17664500D01*
X5226786Y-17693072D01*
X5226786Y-17850214D01*
X5812500Y-17535929D02*
X5555357Y-17921643D01*
X6198214Y-17550214D02*
X6226786Y-17550214D01*
X6255357Y-17564500D01*
X6269643Y-17578786D01*
X6283928Y-17607357D01*
X6298214Y-17664500D01*
X6298214Y-17735929D01*
X6283928Y-17793072D01*
X6269643Y-17821643D01*
X6255357Y-17835929D01*
X6226786Y-17850214D01*
X6198214Y-17850214D01*
X6169643Y-17835929D01*
X6155357Y-17821643D01*
X6141071Y-17793072D01*
X6126786Y-17735929D01*
X6126786Y-17664500D01*
X6141071Y-17607357D01*
X6155357Y-17578786D01*
X6169643Y-17564500D01*
X6198214Y-17550214D01*
X6426786Y-17821643D02*
X6441071Y-17835929D01*
X6426786Y-17850214D01*
X6412500Y-17835929D01*
X6426786Y-17821643D01*
X6426786Y-17850214D01*
X6626786Y-17550214D02*
X6655357Y-17550214D01*
X6683928Y-17564500D01*
X6698214Y-17578786D01*
X6712500Y-17607357D01*
X6726786Y-17664500D01*
X6726786Y-17735929D01*
X6712500Y-17793072D01*
X6698214Y-17821643D01*
X6683928Y-17835929D01*
X6655357Y-17850214D01*
X6626786Y-17850214D01*
X6598214Y-17835929D01*
X6583928Y-17821643D01*
X6569643Y-17793072D01*
X6555357Y-17735929D01*
X6555357Y-17664500D01*
X6569643Y-17607357D01*
X6583928Y-17578786D01*
X6598214Y-17564500D01*
X6626786Y-17550214D01*
X6869643Y-17850214D02*
X6926786Y-17850214D01*
X6955357Y-17835929D01*
X6969643Y-17821643D01*
X6998214Y-17778786D01*
X7012500Y-17721643D01*
X7012500Y-17607357D01*
X6998214Y-17578786D01*
X6983928Y-17564500D01*
X6955357Y-17550214D01*
X6898214Y-17550214D01*
X6869643Y-17564500D01*
X6855357Y-17578786D01*
X6841071Y-17607357D01*
X6841071Y-17678786D01*
X6855357Y-17707357D01*
X6869643Y-17721643D01*
X6898214Y-17735929D01*
X6955357Y-17735929D01*
X6983928Y-17721643D01*
X6998214Y-17707357D01*
X7012500Y-17678786D01*
X7183928Y-17678786D02*
X7155357Y-17664500D01*
X7141071Y-17650214D01*
X7126786Y-17621643D01*
X7126786Y-17607357D01*
X7141071Y-17578786D01*
X7155357Y-17564500D01*
X7183928Y-17550214D01*
X7241071Y-17550214D01*
X7269643Y-17564500D01*
X7283928Y-17578786D01*
X7298214Y-17607357D01*
X7298214Y-17621643D01*
X7283928Y-17650214D01*
X7269643Y-17664500D01*
X7241071Y-17678786D01*
X7183928Y-17678786D01*
X7155357Y-17693072D01*
X7141071Y-17707357D01*
X7126786Y-17735929D01*
X7126786Y-17793072D01*
X7141071Y-17821643D01*
X7155357Y-17835929D01*
X7183928Y-17850214D01*
X7241071Y-17850214D01*
X7269643Y-17835929D01*
X7283928Y-17821643D01*
X7298214Y-17793072D01*
X7298214Y-17735929D01*
X7283928Y-17707357D01*
X7269643Y-17693072D01*
X7241071Y-17678786D01*
X7555357Y-17650214D02*
X7555357Y-17850214D01*
X7483928Y-17535929D02*
X7412500Y-17750214D01*
X7598214Y-17750214D01*
X7698214Y-17550214D02*
X7698214Y-17607357D01*
X7812500Y-17550214D02*
X7812500Y-17607357D01*
X8255357Y-17964500D02*
X8241071Y-17950214D01*
X8212500Y-17907357D01*
X8198214Y-17878786D01*
X8183928Y-17835929D01*
X8169643Y-17764500D01*
X8169643Y-17707357D01*
X8183928Y-17635929D01*
X8198214Y-17593072D01*
X8212500Y-17564500D01*
X8241071Y-17521643D01*
X8255357Y-17507357D01*
X8526786Y-17850214D02*
X8355357Y-17850214D01*
X8441071Y-17850214D02*
X8441071Y-17550214D01*
X8412500Y-17593072D01*
X8383928Y-17621643D01*
X8355357Y-17635929D01*
X8883928Y-17850214D02*
X8883928Y-17550214D01*
X9012500Y-17850214D02*
X9012500Y-17693072D01*
X8998214Y-17664500D01*
X8969643Y-17650214D01*
X8926786Y-17650214D01*
X8898214Y-17664500D01*
X8883928Y-17678786D01*
X9198214Y-17850214D02*
X9169643Y-17835929D01*
X9155357Y-17821643D01*
X9141071Y-17793072D01*
X9141071Y-17707357D01*
X9155357Y-17678786D01*
X9169643Y-17664500D01*
X9198214Y-17650214D01*
X9241071Y-17650214D01*
X9269643Y-17664500D01*
X9283928Y-17678786D01*
X9298214Y-17707357D01*
X9298214Y-17793072D01*
X9283928Y-17821643D01*
X9269643Y-17835929D01*
X9241071Y-17850214D01*
X9198214Y-17850214D01*
X9469643Y-17850214D02*
X9441071Y-17835929D01*
X9426786Y-17807357D01*
X9426786Y-17550214D01*
X9698214Y-17835929D02*
X9669643Y-17850214D01*
X9612500Y-17850214D01*
X9583928Y-17835929D01*
X9569643Y-17807357D01*
X9569643Y-17693072D01*
X9583928Y-17664500D01*
X9612500Y-17650214D01*
X9669643Y-17650214D01*
X9698214Y-17664500D01*
X9712500Y-17693072D01*
X9712500Y-17721643D01*
X9569643Y-17750214D01*
X9812500Y-17964500D02*
X9826786Y-17950214D01*
X9855357Y-17907357D01*
X9869643Y-17878786D01*
X9883928Y-17835929D01*
X9898214Y-17764500D01*
X9898214Y-17707357D01*
X9883928Y-17635929D01*
X9869643Y-17593072D01*
X9855357Y-17564500D01*
X9826786Y-17521643D01*
X9812500Y-17507357D01*
X2847500Y-17960500D02*
X2847500Y-18260500D01*
X2697500Y-18110500D02*
X2997500Y-18110500D01*
X2847500Y-18260500D02*
X2997500Y-18110500D01*
X2847500Y-17960500D01*
X2697500Y-18110500D01*
X2847500Y-18260500D01*
X3255357Y-17946214D02*
X3441071Y-17946214D01*
X3341071Y-18060500D01*
X3383928Y-18060500D01*
X3412500Y-18074786D01*
X3426786Y-18089072D01*
X3441071Y-18117643D01*
X3441071Y-18189072D01*
X3426786Y-18217643D01*
X3412500Y-18231929D01*
X3383928Y-18246214D01*
X3298214Y-18246214D01*
X3269643Y-18231929D01*
X3255357Y-18217643D01*
X3569643Y-18217643D02*
X3583928Y-18231929D01*
X3569643Y-18246214D01*
X3555357Y-18231929D01*
X3569643Y-18217643D01*
X3569643Y-18246214D01*
X3769643Y-17946214D02*
X3798214Y-17946214D01*
X3826786Y-17960500D01*
X3841071Y-17974786D01*
X3855357Y-18003357D01*
X3869643Y-18060500D01*
X3869643Y-18131929D01*
X3855357Y-18189072D01*
X3841071Y-18217643D01*
X3826786Y-18231929D01*
X3798214Y-18246214D01*
X3769643Y-18246214D01*
X3741071Y-18231929D01*
X3726786Y-18217643D01*
X3712500Y-18189072D01*
X3698214Y-18131929D01*
X3698214Y-18060500D01*
X3712500Y-18003357D01*
X3726786Y-17974786D01*
X3741071Y-17960500D01*
X3769643Y-17946214D01*
X4055357Y-17946214D02*
X4083928Y-17946214D01*
X4112500Y-17960500D01*
X4126786Y-17974786D01*
X4141071Y-18003357D01*
X4155357Y-18060500D01*
X4155357Y-18131929D01*
X4141071Y-18189072D01*
X4126786Y-18217643D01*
X4112500Y-18231929D01*
X4083928Y-18246214D01*
X4055357Y-18246214D01*
X4026786Y-18231929D01*
X4012500Y-18217643D01*
X3998214Y-18189072D01*
X3983928Y-18131929D01*
X3983928Y-18060500D01*
X3998214Y-18003357D01*
X4012500Y-17974786D01*
X4026786Y-17960500D01*
X4055357Y-17946214D01*
X4341071Y-17946214D02*
X4369643Y-17946214D01*
X4398214Y-17960500D01*
X4412500Y-17974786D01*
X4426786Y-18003357D01*
X4441071Y-18060500D01*
X4441071Y-18131929D01*
X4426786Y-18189072D01*
X4412500Y-18217643D01*
X4398214Y-18231929D01*
X4369643Y-18246214D01*
X4341071Y-18246214D01*
X4312500Y-18231929D01*
X4298214Y-18217643D01*
X4283928Y-18189072D01*
X4269643Y-18131929D01*
X4269643Y-18060500D01*
X4283928Y-18003357D01*
X4298214Y-17974786D01*
X4312500Y-17960500D01*
X4341071Y-17946214D01*
X4569643Y-18246214D02*
X4569643Y-18046214D01*
X4569643Y-18074786D02*
X4583928Y-18060500D01*
X4612500Y-18046214D01*
X4655357Y-18046214D01*
X4683928Y-18060500D01*
X4698214Y-18089072D01*
X4698214Y-18246214D01*
X4698214Y-18089072D02*
X4712500Y-18060500D01*
X4741071Y-18046214D01*
X4783928Y-18046214D01*
X4812500Y-18060500D01*
X4826786Y-18089072D01*
X4826786Y-18246214D01*
X4969643Y-18246214D02*
X4969643Y-18046214D01*
X4969643Y-18074786D02*
X4983928Y-18060500D01*
X5012500Y-18046214D01*
X5055357Y-18046214D01*
X5083928Y-18060500D01*
X5098214Y-18089072D01*
X5098214Y-18246214D01*
X5098214Y-18089072D02*
X5112500Y-18060500D01*
X5141071Y-18046214D01*
X5183928Y-18046214D01*
X5212500Y-18060500D01*
X5226786Y-18089072D01*
X5226786Y-18246214D01*
X5812500Y-17931929D02*
X5555357Y-18317643D01*
X6198214Y-17946214D02*
X6226786Y-17946214D01*
X6255357Y-17960500D01*
X6269643Y-17974786D01*
X6283928Y-18003357D01*
X6298214Y-18060500D01*
X6298214Y-18131929D01*
X6283928Y-18189072D01*
X6269643Y-18217643D01*
X6255357Y-18231929D01*
X6226786Y-18246214D01*
X6198214Y-18246214D01*
X6169643Y-18231929D01*
X6155357Y-18217643D01*
X6141071Y-18189072D01*
X6126786Y-18131929D01*
X6126786Y-18060500D01*
X6141071Y-18003357D01*
X6155357Y-17974786D01*
X6169643Y-17960500D01*
X6198214Y-17946214D01*
X6426786Y-18217643D02*
X6441071Y-18231929D01*
X6426786Y-18246214D01*
X6412500Y-18231929D01*
X6426786Y-18217643D01*
X6426786Y-18246214D01*
X6726786Y-18246214D02*
X6555357Y-18246214D01*
X6641071Y-18246214D02*
X6641071Y-17946214D01*
X6612500Y-17989072D01*
X6583928Y-18017643D01*
X6555357Y-18031929D01*
X7012500Y-18246214D02*
X6841071Y-18246214D01*
X6926786Y-18246214D02*
X6926786Y-17946214D01*
X6898214Y-17989072D01*
X6869643Y-18017643D01*
X6841071Y-18031929D01*
X7183928Y-18074786D02*
X7155357Y-18060500D01*
X7141071Y-18046214D01*
X7126786Y-18017643D01*
X7126786Y-18003357D01*
X7141071Y-17974786D01*
X7155357Y-17960500D01*
X7183928Y-17946214D01*
X7241071Y-17946214D01*
X7269643Y-17960500D01*
X7283928Y-17974786D01*
X7298214Y-18003357D01*
X7298214Y-18017643D01*
X7283928Y-18046214D01*
X7269643Y-18060500D01*
X7241071Y-18074786D01*
X7183928Y-18074786D01*
X7155357Y-18089072D01*
X7141071Y-18103357D01*
X7126786Y-18131929D01*
X7126786Y-18189072D01*
X7141071Y-18217643D01*
X7155357Y-18231929D01*
X7183928Y-18246214D01*
X7241071Y-18246214D01*
X7269643Y-18231929D01*
X7283928Y-18217643D01*
X7298214Y-18189072D01*
X7298214Y-18131929D01*
X7283928Y-18103357D01*
X7269643Y-18089072D01*
X7241071Y-18074786D01*
X7583928Y-18246214D02*
X7412500Y-18246214D01*
X7498214Y-18246214D02*
X7498214Y-17946214D01*
X7469643Y-17989072D01*
X7441071Y-18017643D01*
X7412500Y-18031929D01*
X7698214Y-17946214D02*
X7698214Y-18003357D01*
X7812500Y-17946214D02*
X7812500Y-18003357D01*
X8255357Y-18360500D02*
X8241071Y-18346214D01*
X8212500Y-18303357D01*
X8198214Y-18274786D01*
X8183928Y-18231929D01*
X8169643Y-18160500D01*
X8169643Y-18103357D01*
X8183928Y-18031929D01*
X8198214Y-17989072D01*
X8212500Y-17960500D01*
X8241071Y-17917643D01*
X8255357Y-17903357D01*
X8526786Y-18246214D02*
X8355357Y-18246214D01*
X8441071Y-18246214D02*
X8441071Y-17946214D01*
X8412500Y-17989072D01*
X8383928Y-18017643D01*
X8355357Y-18031929D01*
X8883928Y-18246214D02*
X8883928Y-17946214D01*
X9012500Y-18246214D02*
X9012500Y-18089072D01*
X8998214Y-18060500D01*
X8969643Y-18046214D01*
X8926786Y-18046214D01*
X8898214Y-18060500D01*
X8883928Y-18074786D01*
X9198214Y-18246214D02*
X9169643Y-18231929D01*
X9155357Y-18217643D01*
X9141071Y-18189072D01*
X9141071Y-18103357D01*
X9155357Y-18074786D01*
X9169643Y-18060500D01*
X9198214Y-18046214D01*
X9241071Y-18046214D01*
X9269643Y-18060500D01*
X9283928Y-18074786D01*
X9298214Y-18103357D01*
X9298214Y-18189072D01*
X9283928Y-18217643D01*
X9269643Y-18231929D01*
X9241071Y-18246214D01*
X9198214Y-18246214D01*
X9469643Y-18246214D02*
X9441071Y-18231929D01*
X9426786Y-18203357D01*
X9426786Y-17946214D01*
X9698214Y-18231929D02*
X9669643Y-18246214D01*
X9612500Y-18246214D01*
X9583928Y-18231929D01*
X9569643Y-18203357D01*
X9569643Y-18089072D01*
X9583928Y-18060500D01*
X9612500Y-18046214D01*
X9669643Y-18046214D01*
X9698214Y-18060500D01*
X9712500Y-18089072D01*
X9712500Y-18117643D01*
X9569643Y-18146214D01*
X9812500Y-18360500D02*
X9826786Y-18346214D01*
X9855357Y-18303357D01*
X9869643Y-18274786D01*
X9883928Y-18231929D01*
X9898214Y-18160500D01*
X9898214Y-18103357D01*
X9883928Y-18031929D01*
X9869643Y-17989072D01*
X9855357Y-17960500D01*
X9826786Y-17917643D01*
X9812500Y-17903357D01*
X2822500Y-18715500D02*
X2997500Y-18540500D01*
X2822500Y-18365500D01*
X2647500Y-18540500D01*
X2822500Y-18715500D01*
X2946245Y-18664245D02*
X2946245Y-18416755D01*
X2698755Y-18416755D01*
X2698755Y-18664245D01*
X2946245Y-18664245D01*
X3255357Y-18376214D02*
X3441071Y-18376214D01*
X3341071Y-18490500D01*
X3383928Y-18490500D01*
X3412500Y-18504786D01*
X3426786Y-18519072D01*
X3441071Y-18547643D01*
X3441071Y-18619072D01*
X3426786Y-18647643D01*
X3412500Y-18661929D01*
X3383928Y-18676214D01*
X3298214Y-18676214D01*
X3269643Y-18661929D01*
X3255357Y-18647643D01*
X3569643Y-18647643D02*
X3583928Y-18661929D01*
X3569643Y-18676214D01*
X3555357Y-18661929D01*
X3569643Y-18647643D01*
X3569643Y-18676214D01*
X3855357Y-18376214D02*
X3712500Y-18376214D01*
X3698214Y-18519072D01*
X3712500Y-18504786D01*
X3741071Y-18490500D01*
X3812500Y-18490500D01*
X3841071Y-18504786D01*
X3855357Y-18519072D01*
X3869643Y-18547643D01*
X3869643Y-18619072D01*
X3855357Y-18647643D01*
X3841071Y-18661929D01*
X3812500Y-18676214D01*
X3741071Y-18676214D01*
X3712500Y-18661929D01*
X3698214Y-18647643D01*
X4055357Y-18376214D02*
X4083928Y-18376214D01*
X4112500Y-18390500D01*
X4126786Y-18404786D01*
X4141071Y-18433357D01*
X4155357Y-18490500D01*
X4155357Y-18561929D01*
X4141071Y-18619072D01*
X4126786Y-18647643D01*
X4112500Y-18661929D01*
X4083928Y-18676214D01*
X4055357Y-18676214D01*
X4026786Y-18661929D01*
X4012500Y-18647643D01*
X3998214Y-18619072D01*
X3983928Y-18561929D01*
X3983928Y-18490500D01*
X3998214Y-18433357D01*
X4012500Y-18404786D01*
X4026786Y-18390500D01*
X4055357Y-18376214D01*
X4341071Y-18376214D02*
X4369643Y-18376214D01*
X4398214Y-18390500D01*
X4412500Y-18404786D01*
X4426786Y-18433357D01*
X4441071Y-18490500D01*
X4441071Y-18561929D01*
X4426786Y-18619072D01*
X4412500Y-18647643D01*
X4398214Y-18661929D01*
X4369643Y-18676214D01*
X4341071Y-18676214D01*
X4312500Y-18661929D01*
X4298214Y-18647643D01*
X4283928Y-18619072D01*
X4269643Y-18561929D01*
X4269643Y-18490500D01*
X4283928Y-18433357D01*
X4298214Y-18404786D01*
X4312500Y-18390500D01*
X4341071Y-18376214D01*
X4569643Y-18676214D02*
X4569643Y-18476214D01*
X4569643Y-18504786D02*
X4583928Y-18490500D01*
X4612500Y-18476214D01*
X4655357Y-18476214D01*
X4683928Y-18490500D01*
X4698214Y-18519072D01*
X4698214Y-18676214D01*
X4698214Y-18519072D02*
X4712500Y-18490500D01*
X4741071Y-18476214D01*
X4783928Y-18476214D01*
X4812500Y-18490500D01*
X4826786Y-18519072D01*
X4826786Y-18676214D01*
X4969643Y-18676214D02*
X4969643Y-18476214D01*
X4969643Y-18504786D02*
X4983928Y-18490500D01*
X5012500Y-18476214D01*
X5055357Y-18476214D01*
X5083928Y-18490500D01*
X5098214Y-18519072D01*
X5098214Y-18676214D01*
X5098214Y-18519072D02*
X5112500Y-18490500D01*
X5141071Y-18476214D01*
X5183928Y-18476214D01*
X5212500Y-18490500D01*
X5226786Y-18519072D01*
X5226786Y-18676214D01*
X5812500Y-18361929D02*
X5555357Y-18747643D01*
X6198214Y-18376214D02*
X6226786Y-18376214D01*
X6255357Y-18390500D01*
X6269643Y-18404786D01*
X6283928Y-18433357D01*
X6298214Y-18490500D01*
X6298214Y-18561929D01*
X6283928Y-18619072D01*
X6269643Y-18647643D01*
X6255357Y-18661929D01*
X6226786Y-18676214D01*
X6198214Y-18676214D01*
X6169643Y-18661929D01*
X6155357Y-18647643D01*
X6141071Y-18619072D01*
X6126786Y-18561929D01*
X6126786Y-18490500D01*
X6141071Y-18433357D01*
X6155357Y-18404786D01*
X6169643Y-18390500D01*
X6198214Y-18376214D01*
X6426786Y-18647643D02*
X6441071Y-18661929D01*
X6426786Y-18676214D01*
X6412500Y-18661929D01*
X6426786Y-18647643D01*
X6426786Y-18676214D01*
X6726786Y-18676214D02*
X6555357Y-18676214D01*
X6641071Y-18676214D02*
X6641071Y-18376214D01*
X6612500Y-18419072D01*
X6583928Y-18447643D01*
X6555357Y-18461929D01*
X6826786Y-18376214D02*
X7012500Y-18376214D01*
X6912500Y-18490500D01*
X6955357Y-18490500D01*
X6983928Y-18504786D01*
X6998214Y-18519072D01*
X7012500Y-18547643D01*
X7012500Y-18619072D01*
X6998214Y-18647643D01*
X6983928Y-18661929D01*
X6955357Y-18676214D01*
X6869643Y-18676214D01*
X6841071Y-18661929D01*
X6826786Y-18647643D01*
X7112500Y-18376214D02*
X7312500Y-18376214D01*
X7183928Y-18676214D01*
X7469643Y-18504786D02*
X7441071Y-18490500D01*
X7426786Y-18476214D01*
X7412500Y-18447643D01*
X7412500Y-18433357D01*
X7426786Y-18404786D01*
X7441071Y-18390500D01*
X7469643Y-18376214D01*
X7526786Y-18376214D01*
X7555357Y-18390500D01*
X7569643Y-18404786D01*
X7583928Y-18433357D01*
X7583928Y-18447643D01*
X7569643Y-18476214D01*
X7555357Y-18490500D01*
X7526786Y-18504786D01*
X7469643Y-18504786D01*
X7441071Y-18519072D01*
X7426786Y-18533357D01*
X7412500Y-18561929D01*
X7412500Y-18619072D01*
X7426786Y-18647643D01*
X7441071Y-18661929D01*
X7469643Y-18676214D01*
X7526786Y-18676214D01*
X7555357Y-18661929D01*
X7569643Y-18647643D01*
X7583928Y-18619072D01*
X7583928Y-18561929D01*
X7569643Y-18533357D01*
X7555357Y-18519072D01*
X7526786Y-18504786D01*
X7698214Y-18376214D02*
X7698214Y-18433357D01*
X7812500Y-18376214D02*
X7812500Y-18433357D01*
X8255357Y-18790500D02*
X8241071Y-18776214D01*
X8212500Y-18733357D01*
X8198214Y-18704786D01*
X8183928Y-18661929D01*
X8169643Y-18590500D01*
X8169643Y-18533357D01*
X8183928Y-18461929D01*
X8198214Y-18419072D01*
X8212500Y-18390500D01*
X8241071Y-18347643D01*
X8255357Y-18333357D01*
X8526786Y-18676214D02*
X8355357Y-18676214D01*
X8441071Y-18676214D02*
X8441071Y-18376214D01*
X8412500Y-18419072D01*
X8383928Y-18447643D01*
X8355357Y-18461929D01*
X8883928Y-18676214D02*
X8883928Y-18376214D01*
X9012500Y-18676214D02*
X9012500Y-18519072D01*
X8998214Y-18490500D01*
X8969643Y-18476214D01*
X8926786Y-18476214D01*
X8898214Y-18490500D01*
X8883928Y-18504786D01*
X9198214Y-18676214D02*
X9169643Y-18661929D01*
X9155357Y-18647643D01*
X9141071Y-18619072D01*
X9141071Y-18533357D01*
X9155357Y-18504786D01*
X9169643Y-18490500D01*
X9198214Y-18476214D01*
X9241071Y-18476214D01*
X9269643Y-18490500D01*
X9283928Y-18504786D01*
X9298214Y-18533357D01*
X9298214Y-18619072D01*
X9283928Y-18647643D01*
X9269643Y-18661929D01*
X9241071Y-18676214D01*
X9198214Y-18676214D01*
X9469643Y-18676214D02*
X9441071Y-18661929D01*
X9426786Y-18633357D01*
X9426786Y-18376214D01*
X9698214Y-18661929D02*
X9669643Y-18676214D01*
X9612500Y-18676214D01*
X9583928Y-18661929D01*
X9569643Y-18633357D01*
X9569643Y-18519072D01*
X9583928Y-18490500D01*
X9612500Y-18476214D01*
X9669643Y-18476214D01*
X9698214Y-18490500D01*
X9712500Y-18519072D01*
X9712500Y-18547643D01*
X9569643Y-18576214D01*
X9812500Y-18790500D02*
X9826786Y-18776214D01*
X9855357Y-18733357D01*
X9869643Y-18704786D01*
X9883928Y-18661929D01*
X9898214Y-18590500D01*
X9898214Y-18533357D01*
X9883928Y-18461929D01*
X9869643Y-18419072D01*
X9855357Y-18390500D01*
X9826786Y-18347643D01*
X9812500Y-18333357D01*
X2597500Y-18820500D02*
X2997500Y-19220500D01*
X2997500Y-18820500D02*
X2597500Y-19220500D01*
X2797500Y-18820500D02*
X2797500Y-19220500D01*
X2597500Y-19020500D02*
X2997500Y-19020500D01*
X2997500Y-19020500D02*
G75*
G03*
X2997500Y-19020500I-200000J0D01*
G01*
X3412500Y-18956214D02*
X3412500Y-19156214D01*
X3341071Y-18841929D02*
X3269643Y-19056214D01*
X3455357Y-19056214D01*
X3569643Y-19127643D02*
X3583928Y-19141929D01*
X3569643Y-19156214D01*
X3555357Y-19141929D01*
X3569643Y-19127643D01*
X3569643Y-19156214D01*
X3769643Y-18856214D02*
X3798214Y-18856214D01*
X3826786Y-18870500D01*
X3841071Y-18884786D01*
X3855357Y-18913357D01*
X3869643Y-18970500D01*
X3869643Y-19041929D01*
X3855357Y-19099072D01*
X3841071Y-19127643D01*
X3826786Y-19141929D01*
X3798214Y-19156214D01*
X3769643Y-19156214D01*
X3741071Y-19141929D01*
X3726786Y-19127643D01*
X3712500Y-19099072D01*
X3698214Y-19041929D01*
X3698214Y-18970500D01*
X3712500Y-18913357D01*
X3726786Y-18884786D01*
X3741071Y-18870500D01*
X3769643Y-18856214D01*
X4055357Y-18856214D02*
X4083928Y-18856214D01*
X4112500Y-18870500D01*
X4126786Y-18884786D01*
X4141071Y-18913357D01*
X4155357Y-18970500D01*
X4155357Y-19041929D01*
X4141071Y-19099072D01*
X4126786Y-19127643D01*
X4112500Y-19141929D01*
X4083928Y-19156214D01*
X4055357Y-19156214D01*
X4026786Y-19141929D01*
X4012500Y-19127643D01*
X3998214Y-19099072D01*
X3983928Y-19041929D01*
X3983928Y-18970500D01*
X3998214Y-18913357D01*
X4012500Y-18884786D01*
X4026786Y-18870500D01*
X4055357Y-18856214D01*
X4341071Y-18856214D02*
X4369643Y-18856214D01*
X4398214Y-18870500D01*
X4412500Y-18884786D01*
X4426786Y-18913357D01*
X4441071Y-18970500D01*
X4441071Y-19041929D01*
X4426786Y-19099072D01*
X4412500Y-19127643D01*
X4398214Y-19141929D01*
X4369643Y-19156214D01*
X4341071Y-19156214D01*
X4312500Y-19141929D01*
X4298214Y-19127643D01*
X4283928Y-19099072D01*
X4269643Y-19041929D01*
X4269643Y-18970500D01*
X4283928Y-18913357D01*
X4298214Y-18884786D01*
X4312500Y-18870500D01*
X4341071Y-18856214D01*
X4569643Y-19156214D02*
X4569643Y-18956214D01*
X4569643Y-18984786D02*
X4583928Y-18970500D01*
X4612500Y-18956214D01*
X4655357Y-18956214D01*
X4683928Y-18970500D01*
X4698214Y-18999072D01*
X4698214Y-19156214D01*
X4698214Y-18999072D02*
X4712500Y-18970500D01*
X4741071Y-18956214D01*
X4783928Y-18956214D01*
X4812500Y-18970500D01*
X4826786Y-18999072D01*
X4826786Y-19156214D01*
X4969643Y-19156214D02*
X4969643Y-18956214D01*
X4969643Y-18984786D02*
X4983928Y-18970500D01*
X5012500Y-18956214D01*
X5055357Y-18956214D01*
X5083928Y-18970500D01*
X5098214Y-18999072D01*
X5098214Y-19156214D01*
X5098214Y-18999072D02*
X5112500Y-18970500D01*
X5141071Y-18956214D01*
X5183928Y-18956214D01*
X5212500Y-18970500D01*
X5226786Y-18999072D01*
X5226786Y-19156214D01*
X5812500Y-18841929D02*
X5555357Y-19227643D01*
X6198214Y-18856214D02*
X6226786Y-18856214D01*
X6255357Y-18870500D01*
X6269643Y-18884786D01*
X6283928Y-18913357D01*
X6298214Y-18970500D01*
X6298214Y-19041929D01*
X6283928Y-19099072D01*
X6269643Y-19127643D01*
X6255357Y-19141929D01*
X6226786Y-19156214D01*
X6198214Y-19156214D01*
X6169643Y-19141929D01*
X6155357Y-19127643D01*
X6141071Y-19099072D01*
X6126786Y-19041929D01*
X6126786Y-18970500D01*
X6141071Y-18913357D01*
X6155357Y-18884786D01*
X6169643Y-18870500D01*
X6198214Y-18856214D01*
X6426786Y-19127643D02*
X6441071Y-19141929D01*
X6426786Y-19156214D01*
X6412500Y-19141929D01*
X6426786Y-19127643D01*
X6426786Y-19156214D01*
X6726786Y-19156214D02*
X6555357Y-19156214D01*
X6641071Y-19156214D02*
X6641071Y-18856214D01*
X6612500Y-18899072D01*
X6583928Y-18927643D01*
X6555357Y-18941929D01*
X6998214Y-18856214D02*
X6855357Y-18856214D01*
X6841071Y-18999072D01*
X6855357Y-18984786D01*
X6883928Y-18970500D01*
X6955357Y-18970500D01*
X6983928Y-18984786D01*
X6998214Y-18999072D01*
X7012500Y-19027643D01*
X7012500Y-19099072D01*
X6998214Y-19127643D01*
X6983928Y-19141929D01*
X6955357Y-19156214D01*
X6883928Y-19156214D01*
X6855357Y-19141929D01*
X6841071Y-19127643D01*
X7112500Y-18856214D02*
X7312500Y-18856214D01*
X7183928Y-19156214D01*
X7569643Y-18856214D02*
X7426786Y-18856214D01*
X7412500Y-18999072D01*
X7426786Y-18984786D01*
X7455357Y-18970500D01*
X7526786Y-18970500D01*
X7555357Y-18984786D01*
X7569643Y-18999072D01*
X7583928Y-19027643D01*
X7583928Y-19099072D01*
X7569643Y-19127643D01*
X7555357Y-19141929D01*
X7526786Y-19156214D01*
X7455357Y-19156214D01*
X7426786Y-19141929D01*
X7412500Y-19127643D01*
X7698214Y-18856214D02*
X7698214Y-18913357D01*
X7812500Y-18856214D02*
X7812500Y-18913357D01*
X8255357Y-19270500D02*
X8241071Y-19256214D01*
X8212500Y-19213357D01*
X8198214Y-19184786D01*
X8183928Y-19141929D01*
X8169643Y-19070500D01*
X8169643Y-19013357D01*
X8183928Y-18941929D01*
X8198214Y-18899072D01*
X8212500Y-18870500D01*
X8241071Y-18827643D01*
X8255357Y-18813357D01*
X8526786Y-19156214D02*
X8355357Y-19156214D01*
X8441071Y-19156214D02*
X8441071Y-18856214D01*
X8412500Y-18899072D01*
X8383928Y-18927643D01*
X8355357Y-18941929D01*
X8883928Y-19156214D02*
X8883928Y-18856214D01*
X9012500Y-19156214D02*
X9012500Y-18999072D01*
X8998214Y-18970500D01*
X8969643Y-18956214D01*
X8926786Y-18956214D01*
X8898214Y-18970500D01*
X8883928Y-18984786D01*
X9198214Y-19156214D02*
X9169643Y-19141929D01*
X9155357Y-19127643D01*
X9141071Y-19099072D01*
X9141071Y-19013357D01*
X9155357Y-18984786D01*
X9169643Y-18970500D01*
X9198214Y-18956214D01*
X9241071Y-18956214D01*
X9269643Y-18970500D01*
X9283928Y-18984786D01*
X9298214Y-19013357D01*
X9298214Y-19099072D01*
X9283928Y-19127643D01*
X9269643Y-19141929D01*
X9241071Y-19156214D01*
X9198214Y-19156214D01*
X9469643Y-19156214D02*
X9441071Y-19141929D01*
X9426786Y-19113357D01*
X9426786Y-18856214D01*
X9698214Y-19141929D02*
X9669643Y-19156214D01*
X9612500Y-19156214D01*
X9583928Y-19141929D01*
X9569643Y-19113357D01*
X9569643Y-18999072D01*
X9583928Y-18970500D01*
X9612500Y-18956214D01*
X9669643Y-18956214D01*
X9698214Y-18970500D01*
X9712500Y-18999072D01*
X9712500Y-19027643D01*
X9569643Y-19056214D01*
X9812500Y-19270500D02*
X9826786Y-19256214D01*
X9855357Y-19213357D01*
X9869643Y-19184786D01*
X9883928Y-19141929D01*
X9898214Y-19070500D01*
X9898214Y-19013357D01*
X9883928Y-18941929D01*
X9869643Y-18899072D01*
X9855357Y-18870500D01*
X9826786Y-18827643D01*
X9812500Y-18813357D01*
M02*
